<svg xmlns="http://www.w3.org/2000/svg" viewBox="0 0 8 11" fill="#636161">
  <path d="M1 0C0.447917 0 0 0.461914 0 1.03125V9.96875C0 10.5381 0.447917 11 1 11H3V9.28125C3 8.71191 3.44792 8.25 4 8.25C4.55208 8.25 5 8.71191 5 9.28125V11H7C7.55208 11 8 10.5381 8 9.96875V1.03125C8 0.461914 7.55208 0 7 0H1ZM1.33333 5.15625C1.33333 4.96719 1.48333 4.8125 1.66667 4.8125H2.33333C2.51667 4.8125 2.66667 4.96719 2.66667 5.15625V5.84375C2.66667 6.03281 2.51667 6.1875 2.33333 6.1875H1.66667C1.48333 6.1875 1.33333 6.03281 1.33333 5.84375V5.15625ZM3.66667 4.8125H4.33333C4.51667 4.8125 4.66667 4.96719 4.66667 5.15625V5.84375C4.66667 6.03281 4.51667 6.1875 4.33333 6.1875H3.66667C3.48333 6.1875 3.33333 6.03281 3.33333 5.84375V5.15625C3.33333 4.96719 3.48333 4.8125 3.66667 4.8125ZM5.33333 5.15625C5.33333 4.96719 5.48333 4.8125 5.66667 4.8125H6.33333C6.51667 4.8125 6.66667 4.96719 6.66667 5.15625V5.84375C6.66667 6.03281 6.51667 6.1875 6.33333 6.1875H5.66667C5.48333 6.1875 5.33333 6.03281 5.33333 5.84375V5.15625ZM1.66667 2.0625H2.33333C2.51667 2.0625 2.66667 2.21719 2.66667 2.40625V3.09375C2.66667 3.28281 2.51667 3.4375 2.33333 3.4375H1.66667C1.48333 3.4375 1.33333 3.28281 1.33333 3.09375V2.40625C1.33333 2.21719 1.48333 2.0625 1.66667 2.0625ZM3.33333 2.40625C3.33333 2.21719 3.48333 2.0625 3.66667 2.0625H4.33333C4.51667 2.0625 4.66667 2.21719 4.66667 2.40625V3.09375C4.66667 3.28281 4.51667 3.4375 4.33333 3.4375H3.66667C3.48333 3.4375 3.33333 3.28281 3.33333 3.09375V2.40625ZM5.66667 2.0625H6.33333C6.51667 2.0625 6.66667 2.21719 6.66667 2.40625V3.09375C6.66667 3.28281 6.51667 3.4375 6.33333 3.4375H5.66667C5.48333 3.4375 5.33333 3.28281 5.33333 3.09375V2.40625C5.33333 2.21719 5.48333 2.0625 5.66667 2.0625Z"/>
</svg>
