<svg width="200" height="100" viewBox="0 0 200 100" fill="none" xmlns="http://www.w3.org/2000/svg">
  <!-- Pink confetti 1 -->
  <path d="M27.318 13.776C26.365 15.235 24.714 16.476 23.63 17.611C21.906 19.438 20.261 21.343 18.689 23.317C16.907 25.567 15.234 27.913 13.675 30.327C12.905 31.544 11.899 33.164 12.047 34.673C11.568 34.605 11.121 34.397 10.719 34.004C9.879 32.863 10.08 31.543 10.634 30.265C11.465 28.349 12.842 26.582 14.048 24.897C15.407 22.993 16.831 21.132 18.334 19.351C20.072 17.285 21.903 15.306 23.812 13.407C24.768 12.443 25.845 11.284 26.096 10L27.318 13.776Z" fill="url(#confetti_pink1)"/>
  <!-- Pink confetti 2 -->
  <path d="M10.85 30.17C10.811 30.13 10.784 30.087 10.761 30.055C10.741 30.035 10.737 30.023 10.718 30.004C11.12 30.397 11.566 30.605 12.046 30.672C13.118 30.835 14.304 30.255 15.234 29.614C17.201 28.297 18.982 26.609 20.813 25.114C22.973 23.343 27.087 19.075 30.082 21.591C30.629 22.068 31.182 22.647 31.673 23.234L33.018 27.389C32.877 28.167 32.579 28.943 32.219 29.648C30.699 32.507 27.22 35.699 28.466 39.101C29.171 39.383 29.942 39.421 30.776 39.452C32.003 39.486 33.194 39.65 34.371 40.015C35.521 40.375 36.606 40.9 37.604 41.557L38.006 42.8C37.156 42.396 36.265 42.069 35.358 41.853C33.607 41.452 31.285 41.955 29.76 40.919C28.817 40.269 27.903 39.14 27.218 38.237C26.141 36.807 26.134 34.848 26.778 33.24C28.033 30.088 32.272 26.702 31.001 23.098C28.155 21.98 24.926 25.379 22.921 27.021C21.142 28.473 19.421 30.024 17.575 31.393C16.478 32.206 14.912 33.184 13.492 32.676C12.441 32.297 11.535 30.994 10.85 30.17Z" fill="url(#confetti_pink2)"/>
  <!-- Cyan confetti 1 -->
  <path d="M61.056 23.578C58.902 23.162 60.716 23.653 60.678 23.653C61.207 23.616 63.324 23.691 63.626 23.729C65.856 23.842 68.048 24.409 70.127 25.165C76.778 27.622 82.561 32.573 89.628 33.895C91.934 34.311 94.088 34.273 96.205 33.933H96.242C97.679 33.744 100.173 33.064 100.626 32.913C100.702 32.913 100.702 32.913 100.702 32.913C102.856 32.308 106.447 30.796 106.447 30.796C105.842 31.099 104.103 31.25 103.121 31.288C103.121 31.288 103.121 31.288 103.159 31.288C102.781 31.325 102.478 31.325 102.403 31.325C99.946 31.401 97.49 31.023 95.146 30.267C84.677 26.866 76.287 18.06 64.533 21.877C64.118 21.99 63.702 22.142 63.286 22.255C62.984 22.784 61.623 23.653 61.056 23.578Z" fill="url(#confetti_cyan1)"/>
  <!-- Cyan confetti 2 -->
  <path d="M80.931 80.119C80.704 80.195 80.478 80.308 80.251 80.384C80.251 80.346 80.289 80.346 80.289 80.346C80.137 80.384 79.986 80.459 79.873 80.497C79.873 80.384 79.911 80.27 79.986 80.119C80.062 79.968 80.402 79.741 80.742 79.514C80.591 79.552 80.44 79.552 80.326 79.59C80.364 79.552 80.402 79.514 80.402 79.514C85.088 75.584 83.955 69.499 82.216 64.397C79.835 57.405 77.114 50.527 74.582 43.573C72.503 37.941 69.253 31.252 71.86 25.243C72.957 22.71 74.846 21.312 77 20.329C78.474 19.952 79.948 19.914 81.347 20.14C76.887 25.469 80.591 34.691 82.783 40.7C84.597 45.576 86.373 50.451 88.187 55.326C89.699 59.446 91.853 63.868 92.042 68.328C92.307 74.79 87.923 77.625 82.518 79.552C82.027 79.741 81.574 79.892 81.082 80.081C81.044 80.081 80.969 80.119 80.931 80.119Z" fill="url(#confetti_cyan2)"/>
  <!-- Green confetti 1 -->
  <path d="M152.795 21.47C149.9 25.903 144.883 29.672 141.59 33.122C136.355 38.669 131.356 44.458 126.583 50.452C121.169 57.289 116.087 64.416 111.35 71.749C109.011 75.446 105.956 80.367 106.406 84.949C104.95 84.745 103.593 84.112 102.372 82.918C99.821 79.453 100.43 75.443 102.113 71.561C104.638 65.739 108.82 60.373 112.486 55.254C116.612 49.469 120.94 43.818 125.505 38.407C130.783 32.131 136.345 26.12 142.144 20.35C145.05 17.423 148.32 13.902 149.083 10L152.795 21.47Z" fill="url(#confetti_green1)"/>
  <!-- Green confetti 2 -->
  <path d="M120.775 49.423C120.657 49.303 120.574 49.17 120.504 49.074C120.444 49.014 120.433 48.978 120.374 48.918C121.594 50.112 122.951 50.745 124.408 50.949C127.666 51.443 131.267 49.682 134.093 47.735C140.068 43.735 145.479 38.607 151.04 34.066C157.601 28.685 170.1 15.265 179.196 23.364C180.857 24.812 182.539 26.572 184.029 28.354L188.114 40.975C187.687 43.337 186.782 45.696 185.688 47.838C181.071 56.522 170.504 66.219 174.287 76.554C176.431 77.41 178.772 77.526 181.305 77.62C185.033 77.724 188.65 78.221 192.226 79.328C195.719 80.422 199.015 82.017 202.046 84.015L203.268 87.791C200.685 86.561 197.98 85.569 195.225 84.912C189.905 83.694 182.852 85.222 178.218 82.075C175.355 80.101 172.577 76.671 170.497 53.928C167.224 49.585 167.204 43.632 169.159 38.749C172.972 29.173 185.85 18.887 181.989 7.941C173.342 4.543 163.535 14.868 157.444 19.859C152.039 24.27 146.811 28.981 141.205 33.139C137.873 35.608 133.114 38.578 128.801 37.035C125.607 35.883 122.857 31.927 120.775 49.423Z" fill="url(#confetti_green2)"/>
  <defs>
    <linearGradient id="confetti_pink1" x1="26.814" y1="14.97" x2="10.18" y2="30.08" gradientUnits="userSpaceOnUse"><stop stop-color="#BC1558"/><stop offset="1" stop-color="#BC1558"/></linearGradient>
    <linearGradient id="confetti_pink2" x1="31.359" y1="27.78" x2="16.231" y2="41.52" gradientUnits="userSpaceOnUse"><stop stop-color="#F599D0"/><stop offset="1" stop-color="#BC1558"/></linearGradient>
    <linearGradient id="confetti_cyan1" x1="95.524" y1="31.86" x2="70.929" y2="23.27" gradientUnits="userSpaceOnUse"><stop stop-color="#1897C9"/><stop offset="0.5" stop-color="#18B7C9"/><stop offset="1" stop-color="#19D8C9"/></linearGradient>
    <linearGradient id="confetti_cyan2" x1="70.891" y1="50.25" x2="92.056" y2="50.25" gradientUnits="userSpaceOnUse"><stop stop-color="#1897C9"/><stop offset="0.33" stop-color="#18B7C9"/><stop offset="1" stop-color="#19D8C9"/></linearGradient>
    <linearGradient id="confetti_green1" x1="151.264" y1="25.1" x2="100.733" y2="70.98" gradientUnits="userSpaceOnUse"><stop stop-color="#55BD02"/><stop offset="1" stop-color="#CBC601"/></linearGradient>
    <linearGradient id="confetti_green2" x1="183.078" y1="42.17" x2="137.12" y2="83.9" gradientUnits="userSpaceOnUse"><stop stop-color="#CBC601"/><stop offset="1" stop-color="#55BD02"/></linearGradient>
  </defs>
</svg>
