<svg xmlns="http://www.w3.org/2000/svg" viewBox="0 0 30 26" fill="#555555">
  <path d="M0.00488281 3.71429C0.00488281 1.66562 1.68652 0 3.75488 0H26.2549C28.3232 0 30.0049 1.66562 30.0049 3.71429V22.2857C30.0049 24.3344 28.3232 26 26.2549 26H3.75488C1.68652 26 0.00488281 24.3344 0.00488281 22.2857V3.71429ZM18.9775 9.89509C18.7139 9.51205 18.2803 9.28571 17.8174 9.28571C17.3545 9.28571 16.915 9.51205 16.6572 9.89509L11.5596 17.3004L10.0068 15.3795C9.7373 15.0487 9.33301 14.8571 8.91113 14.8571C8.48926 14.8571 8.0791 15.0487 7.81543 15.3795L4.06543 20.0223C3.72559 20.4402 3.66113 21.0147 3.89551 21.4964C4.12988 21.9781 4.62207 22.2857 5.16113 22.2857H10.7861H12.6611H24.8486C25.3701 22.2857 25.8506 22.0013 26.0908 21.5429C26.3311 21.0844 26.3018 20.533 26.0088 20.1094L18.9775 9.89509ZM6.56738 9.28571C7.3133 9.28571 8.02868 8.99222 8.55612 8.4698C9.08357 7.94737 9.37988 7.23882 9.37988 6.5C9.37988 5.76118 9.08357 5.05263 8.55612 4.5302C8.02868 4.00778 7.3133 3.71429 6.56738 3.71429C5.82146 3.71429 5.10609 4.00778 4.57865 4.5302C4.0512 5.05263 3.75488 5.76118 3.75488 6.5C3.75488 7.23882 4.0512 7.94737 4.57865 8.4698C5.10609 8.99222 5.82146 9.28571 6.56738 9.28571Z"/>
</svg>
