<svg xmlns="http://www.w3.org/2000/svg" viewBox="0 0 10 13" fill="#636161">
  <path d="M5.61719 12.7079C6.95312 11.0736 10 7.11255 10 4.88765C10 2.18926 7.76042 0 5 0C2.23958 0 0 2.18926 0 4.88765C0 7.11255 3.04688 11.0736 4.38281 12.7079C4.70312 13.0974 5.29688 13.0974 5.61719 12.7079ZM5 3.25843C5.44203 3.25843 5.86595 3.43008 6.17851 3.73562C6.49107 4.04116 6.66667 4.45555 6.66667 4.88765C6.66667 5.31974 6.49107 5.73414 6.17851 6.03968C5.86595 6.34522 5.44203 6.51686 5 6.51686C4.55797 6.51686 4.13405 6.34522 3.82149 6.03968C3.50893 5.73414 3.33333 5.31974 3.33333 4.88765C3.33333 4.45555 3.50893 4.04116 3.82149 3.73562C4.13405 3.43008 4.55797 3.25843 5 3.25843Z"/>
</svg>
