<svg xmlns="http://www.w3.org/2000/svg" viewBox="0 0 28 32" fill="#555555">
  <path d="M22.5049 4.64531C20.9799 3.12031 18.5049 3.12031 16.9799 4.64531L5.47988 16.1453C2.84863 18.7766 2.84863 23.0391 5.47988 25.6703C8.11113 28.3016 12.3736 28.3016 15.0049 25.6703L24.5049 16.1703C25.1861 15.4891 26.2986 15.4891 26.9799 16.1703C27.6611 16.8516 27.6611 17.9641 26.9799 18.6453L17.4799 28.1453C13.4799 32.1453 7.00488 32.1453 3.00488 28.1453C-0.995117 24.1453 -0.995117 17.6703 3.00488 13.6703L14.5049 2.17031C17.3986 -0.723438 22.0861 -0.723438 24.9799 2.17031C27.8736 5.06406 27.8736 9.75156 24.9799 12.6453L13.9799 23.6453C12.1924 25.4328 9.29238 25.4328 7.50488 23.6453C5.71738 21.8578 5.71738 18.9578 7.50488 17.1703L16.5049 8.17031C17.1861 7.48906 18.2986 7.48906 18.9799 8.17031C19.6611 8.85156 19.6611 9.96406 18.9799 10.6453L9.97988 19.6453C9.56113 20.0641 9.56113 20.7516 9.97988 21.1703C10.3986 21.5891 11.0861 21.5891 11.5049 21.1703L22.5049 10.1703C24.0299 8.64531 24.0299 6.17031 22.5049 4.64531Z"/>
</svg>
