<svg xmlns="http://www.w3.org/2000/svg" viewBox="0 0 15 12" fill="#555555">
  <path d="M2.205 2.94C2.205 2.16026 2.51475 1.41246 3.06611 0.861106C3.61746 0.309749 4.36526 0 5.145 0C5.92474 0 6.67254 0.309749 7.22389 0.861106C7.77525 1.41246 8.085 2.16026 8.085 2.94C8.085 3.71974 7.77525 4.46754 7.22389 5.01889C6.67254 5.57025 5.92474 5.88 5.145 5.88C4.36526 5.88 3.61746 5.57025 3.06611 5.01889C2.51475 4.46754 2.205 3.71974 2.205 2.94ZM0 11.0778C0 8.81541 1.83291 6.9825 4.09533 6.9825H6.19467C8.45709 6.9825 10.29 8.81541 10.29 11.0778C10.29 11.4545 9.98452 11.76 9.60783 11.76H0.682172C0.305484 11.76 0 11.4545 0 11.0778ZM11.5763 7.16625V5.69625H10.1062C9.80077 5.69625 9.555 5.45048 9.555 5.145C9.555 4.83952 9.80077 4.59375 10.1062 4.59375H11.5763V3.12375C11.5763 2.81827 11.822 2.5725 12.1275 2.5725C12.433 2.5725 12.6788 2.81827 12.6788 3.12375V4.59375H14.1488C14.4542 4.59375 14.7 4.83952 14.7 5.145C14.7 5.45048 14.4542 5.69625 14.1488 5.69625H12.6788V7.16625C12.6788 7.47173 12.433 7.7175 12.1275 7.7175C11.822 7.7175 11.5763 7.47173 11.5763 7.16625Z"/>
</svg>
