<svg width="18" height="21" viewBox="0 0 18 21" fill="none" xmlns="http://www.w3.org/2000/svg">
<path d="M5.14286 0C5.85402 0 6.42857 0.586523 6.42857 1.3125V2.625H11.5714V1.3125C11.5714 0.586523 12.146 0 12.8571 0C13.5683 0 14.1429 0.586523 14.1429 1.3125V2.625H16.0714C17.1362 2.625 18 3.50684 18 4.59375V6.5625H0V4.59375C0 3.50684 0.863839 2.625 1.92857 2.625H3.85714V1.3125C3.85714 0.586523 4.4317 0 5.14286 0ZM0 7.875H18V19.0312C18 20.1182 17.1362 21 16.0714 21H1.92857C0.863839 21 0 20.1182 0 19.0312V7.875ZM13.2188 12.5098C13.5964 12.1242 13.5964 11.5008 13.2188 11.1193C12.8411 10.7379 12.2304 10.7338 11.8567 11.1193L8.03973 15.0158L6.15134 13.0881C5.77366 12.7025 5.16295 12.7025 4.78929 13.0881C4.41562 13.4736 4.41161 14.0971 4.78929 14.4785L7.36071 17.1035C7.73839 17.4891 8.34911 17.4891 8.72277 17.1035L13.2188 12.5098Z" fill="#1C52A8"/>
</svg>
