<svg width="100" height="100" viewBox="0 0 100 100" fill="none" xmlns="http://www.w3.org/2000/svg">
<path fill-rule="evenodd" clip-rule="evenodd" d="M2.99994 42.7048C3.01353 47.8416 7.15832 51.9864 12.2952 52H17.731V23H12.2952C7.15832 23 3.01353 27.1584 2.99994 32.2816V42.7048Z" fill="#000080"/>
<path fill-rule="evenodd" clip-rule="evenodd" d="M97.731 42.7048C97.7174 47.8416 93.5726 51.9864 88.4358 52H83V23H88.4358C93.5726 23 97.7174 27.1584 97.731 32.2816V42.7048Z" fill="#000080"/>
<path d="M81.5 21L49 18L16 22L11.5 52.5L47.5 67L62 73L69.5 64.5L79.5 59.5L86 41L81.5 21Z" fill="#47DFF7"/>
<path fill-rule="evenodd" clip-rule="evenodd" d="M33.0514 14H48.9716C49.4541 14 49.8216 14 50.0054 14H65.9257C80.3068 14 92 25.8299 92 40.3505C92 53.6649 82.1446 64.7062 69.4176 66.4459V82.451C69.4176 83.9356 68.4986 85.2809 67.1203 85.7912C66.7297 85.9304 66.3162 86 65.9257 86C64.9149 86 63.927 85.5593 63.2378 84.7474L48.2365 66.701H33.0973C18.6932 66.701 7 54.8711 7 40.3505C7 25.8531 18.6932 14 33.0514 14ZM33.0514 59.5799H49.8446C50.8784 59.5799 51.8432 60.0438 52.5095 60.8557L62.3878 72.732V63.1289C62.3878 61.1804 63.973 59.5799 65.9027 59.5799C76.4014 59.5799 84.9703 50.951 84.9703 40.3273C84.9703 29.7036 76.4014 21.0515 65.9027 21.0515H33.0284C22.5068 21.0515 13.9608 29.7036 13.9608 40.3273C13.9838 50.951 22.5297 59.5799 33.0514 59.5799Z" fill="#2557A7"/>
<circle cx="36" cy="37" r="5" fill="white"/>
<circle cx="65" cy="37" r="5" fill="white"/>
</svg>
