<svg width="100" height="100" viewBox="0 0 100 100" fill="none" xmlns="http://www.w3.org/2000/svg">
<circle cx="50" cy="50" r="50" fill="white"/>
<path d="M63 35H61V32C61 29.0826 59.8411 26.2847 57.7782 24.2218C55.7153 22.1589 52.9174 21 50 21C47.0826 21 44.2847 22.1589 42.2218 24.2218C40.1589 26.2847 39 29.0826 39 32V35H37C35.6953 35.0011 34.4168 35.3669 33.3089 36.056C32.2011 36.7452 31.3078 37.7302 30.73 38.9L18 32.72V39.39L30 45.21V53H18V59H30C30.0051 61.4388 30.4593 63.8558 31.34 66.13L18 72.61V79.28L34.31 71.37C36.1755 73.7486 38.5574 75.6719 41.2756 76.9945C43.9938 78.3171 46.9771 79.0044 50 79.0044C53.0229 79.0044 56.0062 78.3171 58.7244 76.9945C61.4426 75.6719 63.8245 73.7486 65.69 71.37L82 79.28V72.61L68.66 66.13C69.5407 63.8558 69.9949 61.4388 70 59H82V53H70V45.22L82 39.4V32.72L69.27 38.9C68.6922 37.7302 67.7989 36.7452 66.6911 36.056C65.5832 35.3669 64.3047 35.0011 63 35ZM45 32C45 30.6739 45.5268 29.4021 46.4645 28.4645C47.4021 27.5268 48.6739 27 50 27C51.3261 27 52.5979 27.5268 53.5355 28.4645C54.4732 29.4021 55 30.6739 55 32V35H45V32ZM64 59C63.9989 62.191 62.9077 65.2859 60.9072 67.772C58.9067 70.2581 56.1169 71.9862 53 72.67V49H47V72.67C43.8831 71.9862 41.0933 70.2581 39.0928 67.772C37.0923 65.2859 36.0011 62.191 36 59V42C36 41.7348 36.1054 41.4804 36.2929 41.2929C36.4804 41.1054 36.7348 41 37 41H63C63.2652 41 63.5196 41.1054 63.7071 41.2929C63.8946 41.4804 64 41.7348 64 42V59Z" fill="black"/>
</svg>
