<svg width="328" height="198" viewBox="0 0 328 198" fill="none" xmlns="http://www.w3.org/2000/svg">
<path d="M323.564 197.005H167.894C167.802 197.005 167.714 196.968 167.649 196.902C167.583 196.837 167.547 196.749 167.547 196.656C167.547 196.564 167.583 196.475 167.649 196.41C167.714 196.345 167.802 196.308 167.894 196.308H323.564C323.657 196.308 323.746 196.344 323.811 196.41C323.876 196.475 323.913 196.564 323.913 196.656C323.913 196.749 323.876 196.837 323.811 196.903C323.746 196.968 323.657 197.005 323.564 197.005Z" fill="#CCCCCC"/>
<path d="M254 99.0656C253.987 106.383 251.834 113.533 247.812 119.611C243.791 125.688 238.082 130.42 231.408 133.209C224.734 135.997 217.393 136.717 210.316 135.276C203.238 133.836 196.74 130.3 191.645 125.117C186.549 119.933 183.085 113.334 181.689 106.154C180.293 98.9742 181.029 91.536 183.803 84.7801C186.578 78.0242 191.266 72.254 197.275 68.1992C203.285 64.1444 210.346 61.9871 217.565 62.0001C222.361 61.9961 227.112 62.953 231.542 64.8159C235.973 66.6789 239.997 69.411 243.383 72.8554C246.768 76.2998 249.449 80.3885 251.271 84.8865C253.093 89.3845 254.021 94.2032 254 99.0656Z" fill="#F2F2F2"/>
<path d="M260.5 150C280.658 150 297 133.658 297 113.5C297 93.3416 280.658 77 260.5 77C240.342 77 224 93.3416 224 113.5C224 133.658 240.342 150 260.5 150Z" fill="white"/>
<path d="M245.811 99.0763C245.308 101.805 244.483 104.462 243.355 106.992C236.892 120.799 255.296 116.299 261.873 116.299C269.064 116.299 275.944 120.118 274.893 103.15C274.444 95.9014 269.064 90 261.873 90C255.731 90 247.095 92.7572 245.811 99.0763Z" fill="#2F2E41"/>
<path d="M260.5 116C266.299 116 271 111.299 271 105.5C271 99.701 266.299 95 260.5 95C254.701 95 250 99.701 250 105.5C250 111.299 254.701 116 260.5 116Z" fill="#FFB6B6"/>
<path d="M252.989 94.7918C254.902 93.6485 257.092 93.03 259.332 93.0011C261.572 92.9721 263.779 93.5337 265.722 94.6271C267.664 95.7206 269.272 97.3057 270.376 99.2167C271.48 101.128 272.04 103.295 271.998 105.491C266.436 106.86 260.593 107.907 254.662 105.818L253.261 102.457L252.435 105.82C250.629 106.544 248.818 107.157 247.007 105.813C246.933 103.624 247.447 101.453 248.496 99.5191C249.546 97.585 251.095 95.9549 252.989 94.7918Z" fill="#2F2E41"/>
<path d="M289 137.519C282.685 144.761 273.797 149.209 264.255 149.904C254.713 150.599 245.283 147.485 238 141.233L241.127 132.441C241.833 130.879 242.948 129.541 244.352 128.569C245.756 127.598 247.396 127.03 249.096 126.926L251.085 126.803L255.828 122.68C255.828 122.68 268.608 122.22 268.418 122L276.159 126.693L276.153 126.66L279.196 126.848C280.896 126.951 282.536 127.519 283.94 128.491C285.344 129.463 286.459 130.801 287.165 132.363L289 137.519Z" fill="#6C63FF"/>
<path d="M263.642 64.0347L262.89 53.5718C257.962 51.1085 252.508 49.8853 247 50.0085C254.749 55.9979 254.128 67.9687 259.494 76.1612C261.188 78.7035 263.431 80.8322 266.059 82.3896C268.687 83.9469 271.632 84.8929 274.675 85.1576L281.123 88.8676C281.861 83.9919 281.533 79.0143 280.162 74.2777C278.791 69.5411 276.409 65.158 273.18 61.4306C271.349 59.3574 269.263 57.5232 266.973 55.9712C265.563 60.0181 263.642 64.0347 263.642 64.0347Z" fill="#F2F2F2"/>
<path d="M20.2558 63.9712L19.3403 51.3192C13.3426 48.3404 6.70365 46.8613 0 47.0102C9.43113 54.2528 8.67571 68.7284 15.2073 78.635C17.2682 81.7093 19.9991 84.2834 23.1975 86.1666C26.3959 88.0498 29.9799 89.1938 33.6838 89.5137L41.5328 94C42.4306 88.1042 42.0313 82.0851 40.3623 76.3574C38.6933 70.6298 35.7943 65.3296 31.865 60.8222C29.6355 58.3153 27.0971 56.0973 24.3097 54.2205C22.5941 59.1143 20.2558 63.9712 20.2558 63.9712Z" fill="#F2F2F2"/>
<path d="M260 150C252.682 150 245.529 147.83 239.444 143.764C233.359 139.699 228.617 133.92 225.816 127.159C223.016 120.398 222.283 112.959 223.711 105.782C225.139 98.6044 228.663 92.0116 233.837 86.8371C239.012 81.6625 245.604 78.1386 252.782 76.711C259.959 75.2833 267.398 76.016 274.159 78.8165C280.92 81.6169 286.699 86.3593 290.764 92.4439C294.83 98.5285 297 105.682 297 113C296.989 122.81 293.087 132.214 286.151 139.151C279.214 146.087 269.81 149.989 260 150ZM260 76.9156C252.863 76.9155 245.887 79.0319 239.953 82.9969C234.018 86.9619 229.393 92.5975 226.662 99.1911C223.931 105.785 223.217 113.04 224.609 120.04C226.001 127.039 229.438 133.469 234.484 138.516C239.531 143.562 245.961 146.999 252.96 148.391C259.96 149.783 267.215 149.069 273.809 146.338C280.403 143.607 286.038 138.982 290.003 133.047C293.968 127.113 296.084 120.137 296.084 113C296.074 103.433 292.268 94.2612 285.504 87.4964C278.739 80.7316 269.567 76.9264 260 76.9156Z" fill="#3F3D56"/>
<path d="M132.5 74C152.658 74 169 57.4345 169 37C169 16.5655 152.658 0 132.5 0C112.342 0 96 16.5655 96 37C96 57.4345 112.342 74 132.5 74Z" fill="white"/>
<path d="M134 41C140.627 41 146 35.6274 146 29C146 22.3726 140.627 17 134 17C127.373 17 122 22.3726 122 29C122 35.6274 127.373 41 134 41Z" fill="#FFB8B8"/>
<path d="M144.463 20.8841C144.463 20.8841 147.573 15.1132 140.732 14.5885C140.732 14.5885 134.9 9.45253 128.955 13.6496C128.955 13.6496 125.713 13.6496 123.94 17.2117C123.94 17.2117 121.39 16.2728 120.829 18.7856C120.829 18.7856 118.963 24.032 120.829 28.7537C122.695 33.4754 123.315 34 123.315 34C123.315 34 122.006 28.1406 129.469 27.616C136.933 27.0913 143.78 22.5522 144.402 28.3232C145.024 34.0941 145.708 31.4871 145.708 31.4871C145.708 31.4871 151.615 23.245 144.463 20.8841Z" fill="#2F2E41"/>
<path d="M160 61.5188C153.685 68.7608 144.797 73.2094 135.255 73.9044C125.713 74.5994 116.283 71.4849 109 65.2334L112.127 56.4409C112.833 54.8792 113.948 53.5408 115.352 52.5692C116.756 51.5977 118.396 51.0295 120.096 50.9257L122.085 50.8027L126.828 46.6801C126.828 46.6801 139.608 46.2202 139.418 46L147.159 50.6926L147.153 50.6602L150.196 50.848C151.896 50.9513 153.536 51.5193 154.94 52.491C156.344 53.4626 157.459 54.8012 158.165 56.3632L160 61.5188Z" fill="#6C63FF"/>
<path d="M132.5 74C125.083 74 117.833 71.83 111.666 67.7644C105.499 63.6988 100.693 57.9202 97.8545 51.1593C95.0162 44.3984 94.2736 36.959 95.7206 29.7817C97.1675 22.6044 100.739 16.0116 105.984 10.8371C111.228 5.66252 117.91 2.13862 125.184 0.710962C132.458 -0.716691 139.998 0.0160291 146.851 2.81647C153.703 5.61691 159.56 10.3593 163.68 16.4439C167.801 22.5285 170 29.6821 170 37C169.989 46.8096 166.034 56.2142 159.004 63.1507C151.974 70.0871 142.442 73.9889 132.5 74ZM132.5 0.915544C125.267 0.915542 118.196 3.03186 112.182 6.99687C106.167 10.9619 101.48 16.5975 98.7118 23.1911C95.9438 29.7846 95.2195 37.04 96.6306 44.0397C98.0418 51.0394 101.525 57.4691 106.64 62.5156C111.754 67.5621 118.271 70.9988 125.365 72.3911C132.459 73.7834 139.813 73.0689 146.496 70.3377C153.178 67.6066 158.89 62.9815 162.909 57.0475C166.927 51.1134 169.072 44.1368 169.072 37C169.061 27.4331 165.204 18.2612 158.348 11.4964C151.492 4.73163 142.196 0.926396 132.5 0.915544Z" fill="#3F3D56"/>
<path d="M47 131C67.4345 131 84 114.658 84 94.5C84 74.3416 67.4345 58 47 58C26.5655 58 10 74.3416 10 94.5C10 114.658 26.5655 131 47 131Z" fill="white"/>
<path d="M29.6401 83.1254C31.1604 78.4137 34.6177 74.0923 39.3989 72.4994C44.1804 70.9066 51.1818 73.333 54.7764 76.8168C61.3517 83.1895 62.9563 105.082 58.4389 112C57.5403 111.954 54.4398 111.92 53.5303 111.886L52.2438 107.717V111.845C50.795 111.802 49.3348 111.772 47.8633 111.755C42.9295 111.696 38.2116 109.778 34.7015 106.406C31.1913 103.034 29.1622 98.4698 29.0409 93.6729C28.9232 89.0841 29.041 84.9822 29.6401 83.1254Z" fill="#2F2E41"/>
<path d="M46.5 99C52.299 99 57 94.299 57 88.5C57 82.701 52.299 78 46.5 78C40.701 78 36 82.701 36 88.5C36 94.299 40.701 99 46.5 99Z" fill="#9E616A"/>
<path d="M37 78.9791L49.4923 73C52.0462 74.1001 54.2458 75.8332 55.8629 78.0198C57.4799 80.2063 58.4556 82.7665 58.6886 85.4349L59 89L53.7689 87.7271L53.1957 83.1684L52.3074 87.3715L49.8933 86.7844L49.9162 79.707L47.5006 86.7793L38.8783 84.8858L37 78.9791Z" fill="#2F2E41"/>
<path d="M74 119.519C67.6847 126.761 58.7968 131.209 49.255 131.904C39.7132 132.599 30.283 129.485 23 123.233L26.1266 114.441C26.8332 112.879 27.9482 111.541 29.3522 110.569C30.7561 109.598 32.3959 109.03 34.0959 108.926L36.085 108.803L40.828 104.68C40.828 104.68 53.6077 104.22 53.4181 104L61.1592 108.693L61.1528 108.66L64.1959 108.848C65.896 108.951 67.536 109.519 68.94 110.491C70.344 111.463 71.459 112.801 72.1652 114.363L74 119.519Z" fill="#6C63FF"/>
<path d="M47 132C39.6821 132 32.5285 129.83 26.4439 125.764C20.3593 121.699 15.6169 115.92 12.8165 109.159C10.016 102.398 9.28331 94.959 10.711 87.7817C12.1386 80.6044 15.6625 74.0116 20.8371 68.8371C26.0116 63.6625 32.6044 60.1386 39.7817 58.711C46.959 57.2833 54.3984 58.016 61.1593 60.8165C67.9202 63.6169 73.6988 68.3593 77.7644 74.4439C81.83 80.5285 84 87.6821 84 95C83.9889 104.81 80.0871 114.214 73.1507 121.151C66.2142 128.087 56.8096 131.989 47 132ZM47 58.9155C39.8632 58.9155 32.8866 61.0319 26.9526 64.9969C21.0185 68.9619 16.3935 74.5975 13.6623 81.1911C10.9312 87.7847 10.2166 95.04 11.6089 102.04C13.0012 109.039 16.4379 115.469 21.4844 120.516C26.5309 125.562 32.9606 128.999 39.9603 130.391C46.96 131.783 54.2154 131.069 60.8089 128.338C67.4025 125.607 73.0381 120.982 77.0031 115.047C80.9682 109.113 83.0845 102.137 83.0845 95C83.0736 85.4331 79.2684 76.2612 72.5036 69.4964C65.7388 62.7316 56.5669 58.9264 47 58.9155Z" fill="#3F3D56"/>
<path d="M102.291 170H55.7087C54.4603 169.999 53.2635 169.503 52.3807 168.623C51.498 167.743 51.0014 166.549 51 165.305V136.695C51.0014 135.451 51.498 134.257 52.3807 133.377C53.2635 132.497 54.4603 132.001 55.7087 132H102.291C103.54 132.001 104.736 132.497 105.619 133.377C106.502 134.257 106.999 135.451 107 136.695V165.305C106.999 166.549 106.502 167.743 105.619 168.623C104.737 169.503 103.54 169.999 102.291 170Z" fill="#E6E6E6"/>
<path d="M323.207 184H275.793C274.522 183.999 273.304 183.503 272.405 182.623C271.507 181.743 271.001 180.549 271 179.305V150.695C271.001 149.451 271.507 148.257 272.405 147.377C273.304 146.497 274.522 146.001 275.793 146H323.207C324.478 146.001 325.696 146.497 326.595 147.377C327.493 148.257 327.999 149.451 328 150.695V179.305C327.999 180.549 327.493 181.743 326.595 182.623C325.696 183.503 324.478 183.999 323.207 184Z" fill="#E6E6E6"/>
<path d="M83.2976 166H58.4233C57.2506 165.999 56.1263 165.545 55.2971 164.737C54.4678 163.93 54.0014 162.835 54 161.693V140.307C54.0014 139.165 54.4678 138.07 55.2971 137.263C56.1263 136.455 57.2506 136.001 58.4233 136H98.5769C99.7496 136.001 100.874 136.455 101.703 137.263C102.532 138.07 102.999 139.165 103 140.307V146.815C102.994 151.902 100.916 156.778 97.2227 160.375C93.5291 163.971 88.5212 165.994 83.2976 166Z" fill="white"/>
<path d="M304.298 180H279.423C278.251 179.999 277.126 179.545 276.297 178.737C275.468 177.93 275.001 176.835 275 175.693V154.307C275.001 153.165 275.468 152.07 276.297 151.263C277.126 150.455 278.251 150.001 279.423 150H319.577C320.75 150.001 321.874 150.455 322.703 151.263C323.532 152.07 323.999 153.165 324 154.307V160.815C323.994 165.902 321.916 170.778 318.223 174.375C314.529 177.971 309.521 179.994 304.298 180Z" fill="white"/>
<path d="M94.959 148H63.041C62.7649 148 62.5001 147.842 62.3049 147.561C62.1097 147.279 62 146.898 62 146.5C62 146.102 62.1097 145.721 62.3049 145.439C62.5001 145.158 62.7649 145 63.041 145H94.959C95.2351 145 95.4999 145.158 95.6951 145.439C95.8903 145.721 96 146.102 96 146.5C96 146.898 95.8903 147.279 95.6951 147.561C95.4999 147.842 95.2351 148 94.959 148Z" fill="#6C63FF"/>
<path d="M315.928 162H283.072C282.787 162 282.515 161.842 282.314 161.561C282.113 161.279 282 160.898 282 160.5C282 160.102 282.113 159.721 282.314 159.439C282.515 159.158 282.787 159 283.072 159H315.928C316.213 159 316.485 159.158 316.686 159.439C316.887 159.721 317 160.102 317 160.5C317 160.898 316.887 161.279 316.686 161.561C316.485 161.842 316.213 162 315.928 162Z" fill="#6C63FF"/>
<path d="M67.97 152H63.03C62.7568 152 62.4948 151.895 62.3017 151.707C62.1085 151.52 62 151.265 62 151C62 150.735 62.1085 150.48 62.3017 150.293C62.4948 150.105 62.7568 150 63.03 150H67.97C68.2432 150 68.5052 150.105 68.6983 150.293C68.8915 150.48 69 150.735 69 151C69 151.265 68.8915 151.52 68.6983 151.707C68.5052 151.895 68.2432 152 67.97 152Z" fill="#6C63FF"/>
<path d="M288.823 166H283.177C282.865 166 282.566 165.895 282.345 165.707C282.124 165.52 282 165.265 282 165C282 164.735 282.124 164.48 282.345 164.293C282.566 164.105 282.865 164 283.177 164H288.823C289.135 164 289.434 164.105 289.655 164.293C289.876 164.48 290 164.735 290 165C290 165.265 289.876 165.52 289.655 165.707C289.434 165.895 289.135 166 288.823 166Z" fill="#6C63FF"/>
<path d="M76.9555 156H63.0445C62.7673 155.999 62.5016 155.894 62.3058 155.706C62.11 155.519 62 155.265 62 155C62 154.735 62.11 154.481 62.3058 154.294C62.5016 154.106 62.7673 154.001 63.0445 154H76.9555C77.2327 154.001 77.4984 154.106 77.6942 154.294C77.89 154.481 78 154.735 78 155C78 155.265 77.89 155.519 77.6942 155.706C77.4984 155.894 77.2327 155.999 76.9555 156Z" fill="#6C63FF"/>
<path d="M296.956 170H283.044C282.767 169.999 282.502 169.894 282.306 169.706C282.11 169.519 282 169.265 282 169C282 168.735 282.11 168.481 282.306 168.294C282.502 168.106 282.767 168.001 283.044 168H296.956C297.233 168.001 297.498 168.106 297.694 168.294C297.89 168.481 298 168.735 298 169C298 169.265 297.89 169.519 297.694 169.706C297.498 169.894 297.233 169.999 296.956 170Z" fill="#6C63FF"/>
<path d="M49 141C54.5228 141 59 136.523 59 131C59 125.477 54.5228 121 49 121C43.4772 121 39 125.477 39 131C39 136.523 43.4772 141 49 141Z" fill="#3F3D56"/>
<path d="M270 155C275.523 155 280 150.523 280 145C280 139.477 275.523 135 270 135C264.477 135 260 139.477 260 145C260 150.523 264.477 155 270 155Z" fill="#3F3D56"/>
<path d="M223.291 40H176.709C175.46 39.9986 174.263 39.5034 173.381 38.6232C172.498 37.7429 172.001 36.5494 172 35.3046V6.69543C172.001 5.45056 172.498 4.25708 173.381 3.37682C174.263 2.49656 175.46 2.00141 176.709 2H223.291C224.54 2.00141 225.736 2.49656 226.619 3.37682C227.502 4.25708 227.999 5.45056 228 6.69543V35.3046C227.999 36.5494 227.502 37.7429 226.619 38.6232C225.736 39.5034 224.54 39.9986 223.291 40Z" fill="#E6E6E6"/>
<path d="M204.298 36H179.423C178.251 35.9987 177.126 35.5294 176.297 34.695C175.468 33.8607 175.001 32.7294 175 31.5495V9.45054C175.001 8.27056 175.468 7.13931 176.297 6.30496C177.126 5.47061 178.251 5.0013 179.423 5H219.577C220.75 5.00131 221.874 5.47063 222.703 6.30498C223.532 7.13933 223.999 8.27059 224 9.45054V16.1757C223.994 21.4316 221.916 26.4706 218.223 30.1871C214.529 33.9036 209.521 35.9941 204.298 36Z" fill="white"/>
<path d="M215.959 17H184.041C183.765 17 183.5 16.8946 183.305 16.7071C183.11 16.5196 183 16.2652 183 16C183 15.7348 183.11 15.4804 183.305 15.2929C183.5 15.1054 183.765 15 184.041 15H215.959C216.235 15 216.5 15.1054 216.695 15.2929C216.89 15.4804 217 15.7348 217 16C217 16.2652 216.89 16.5196 216.695 16.7071C216.5 16.8946 216.235 17 215.959 17Z" fill="#6C63FF"/>
<path d="M188.97 21H184.03C183.757 21 183.495 20.8946 183.302 20.7071C183.109 20.5196 183 20.2652 183 20C183 19.7348 183.109 19.4804 183.302 19.2929C183.495 19.1054 183.757 19 184.03 19H188.97C189.243 19 189.505 19.1054 189.698 19.2929C189.891 19.4804 190 19.7348 190 20C190 20.2652 189.891 20.5196 189.698 20.7071C189.505 20.8946 189.243 21 188.97 21Z" fill="#6C63FF"/>
<path d="M197.953 26H184.044C183.767 25.9994 183.502 25.8938 183.306 25.7064C183.11 25.5189 183 25.2649 183 25C183 24.7351 183.11 24.4811 183.306 24.2936C183.502 24.1062 183.767 24.0006 184.044 24H197.953C198.231 24 198.497 24.1054 198.693 24.2929C198.89 24.4804 199 24.7348 199 25C199 25.2652 198.89 25.5196 198.693 25.7071C198.497 25.8946 198.231 26 197.953 26Z" fill="#6C63FF"/>
<path d="M170 45C175.523 45 180 40.7467 180 35.5C180 30.2533 175.523 26 170 26C164.477 26 160 30.2533 160 35.5C160 40.7467 164.477 45 170 45Z" fill="#3F3D56"/>
</svg>
