<svg width="69" height="71" viewBox="0 0 69 71" fill="none" xmlns="http://www.w3.org/2000/svg">
<path fill-rule="evenodd" clip-rule="evenodd" d="M68.0348 38.7806C68.6886 39.7935 69 40.9319 69 42.0568C69 44.087 67.9814 46.0725 66.1265 47.2019C64.325 48.2999 63.2485 50.2584 63.2485 52.3424C63.2485 52.5979 63.2663 52.8578 63.2975 53.1178C63.333 53.3777 63.3508 53.6377 63.3508 53.8931C63.3508 56.9452 61.0467 59.5715 57.9552 59.8673C56.7764 59.9838 55.6911 60.441 54.8059 61.1536C53.9163 61.8662 53.2312 62.8298 52.862 63.9636C52.0302 66.4914 49.695 68.0824 47.1995 68.0824C46.5145 68.0824 45.8161 67.9614 45.1356 67.7104C44.4639 67.4594 43.7655 67.3384 43.0761 67.3384C41.4881 67.3384 39.9312 67.9793 38.788 69.1714C37.6137 70.3905 36.0569 71 34.5 71C32.9431 71 31.3863 70.3905 30.212 69.1714C29.0688 67.9793 27.5119 67.3384 25.9239 67.3384C25.2345 67.3384 24.5361 67.4594 23.8644 67.7104C23.1839 67.9614 22.4855 68.0824 21.8005 68.0824C19.3051 68.0824 16.9698 66.4914 16.138 63.9636C15.7688 62.8298 15.0837 61.8662 14.1941 61.1536C13.3089 60.441 12.2236 59.9838 11.0448 59.8673C7.95333 59.5715 5.64918 56.9452 5.64918 53.8931C5.64918 53.6377 5.66697 53.3777 5.70255 53.1178C5.73369 52.8578 5.75148 52.5979 5.75148 52.3424C5.75148 50.2584 4.67503 48.2999 2.87352 47.2019C1.01863 46.0725 0 44.087 0 42.0568C0 40.9319 0.311372 39.7935 0.965253 38.7806C1.61024 37.7812 1.93495 36.6428 1.93495 35.5C1.93495 34.3572 1.61024 33.2143 0.965253 32.2194C0.311372 31.2065 0 30.0681 0 28.9432C0 26.913 1.01863 24.9275 2.87352 23.7981C4.67503 22.6956 5.75148 20.7371 5.75148 18.6576C5.75148 18.4021 5.73369 18.1422 5.70255 17.8822C5.66697 17.6223 5.64918 17.3623 5.64918 17.1024C5.64918 14.0548 7.95333 11.4285 11.0448 11.1282C12.2236 11.0162 13.3089 10.559 14.1941 9.84642C15.0837 9.13382 15.7688 8.17024 16.138 7.03636C16.9698 4.50865 19.3051 2.91762 21.8005 2.91762C22.4855 2.91762 23.1839 3.03863 23.8644 3.28961C24.5361 3.54059 25.2345 3.6616 25.9239 3.6616C27.5119 3.6616 29.0688 3.0207 30.212 1.82856C31.3863 0.609519 32.9431 0 34.5 0C36.0569 0 37.6137 0.609519 38.788 1.82856C40.4294 3.54059 42.9204 4.11425 45.1356 3.28961C45.8161 3.03863 46.5145 2.91762 47.1995 2.91762C49.695 2.91762 52.0302 4.50865 52.862 7.03636C53.2312 8.17024 53.9163 9.13382 54.8059 9.84642C55.6911 10.559 56.7764 11.0162 57.9552 11.1282C61.0467 11.4285 63.3508 14.0548 63.3508 17.1024C63.3508 17.3623 63.333 17.6223 63.2975 17.8822C63.2663 18.1422 63.2485 18.4021 63.2485 18.6576C63.2485 20.7371 64.325 22.6956 66.1265 23.7981C67.9814 24.9275 69 26.913 69 28.9432C69 30.0681 68.6886 31.2065 68.0348 32.2194C67.3898 33.2143 67.065 34.3572 67.065 35.5C67.065 36.6428 67.3898 37.7812 68.0348 38.7806Z" fill="url(#paint0_linear_10535_1143)"/>
<path d="M29.2098 51L17 39.0628L22.2388 33.9409L28.6355 40.1949L46.2476 19L52 23.5695L29.2098 51Z" fill="#FEFEFE"/>
<defs>
<linearGradient id="paint0_linear_10535_1143" x1="14.7726" y1="16.0375" x2="54.5181" y2="54.6636" gradientUnits="userSpaceOnUse">
<stop stop-color="#59BDB5"/>
<stop offset="1" stop-color="#37509C"/>
</linearGradient>
</defs>
</svg>
