<svg width="131" height="48" viewBox="0 0 131 48" fill="none" xmlns="http://www.w3.org/2000/svg">
<mask id="path-1-inside-1_5633_33" fill="white">
<path d="M0 10H131V48H6C2.68629 48 0 45.3137 0 42V10Z"/>
</mask>
<path d="M0 10H131V48H6C2.68629 48 0 45.3137 0 42V10Z" fill="#FFDF7B"/>
<path d="M0 10H131H0ZM131.2 48.2H6C2.57583 48.2 -0.2 45.4242 -0.2 42H0.2C0.2 45.2033 2.79675 47.8 6 47.8H130.8L131.2 48.2ZM6 48.2C2.57583 48.2 -0.2 45.4242 -0.2 42V10H0.2V42C0.2 45.2033 2.79675 47.8 6 47.8V48.2ZM131.2 10V48.2L130.8 47.8V10H131.2Z" fill="#DBDBDB" mask="url(#path-1-inside-1_5633_33)"/>
<path d="M26.514 30.684C27.1487 30.684 27.6107 30.5767 27.9 30.362C28.1893 30.1473 28.334 29.844 28.334 29.452C28.334 29.2187 28.2827 29.018 28.18 28.85C28.0867 28.682 27.9467 28.5327 27.76 28.402C27.5827 28.262 27.3633 28.136 27.102 28.024C26.8407 27.9027 26.542 27.786 26.206 27.674C25.87 27.5527 25.5433 27.422 25.226 27.282C24.918 27.1327 24.6427 26.9507 24.4 26.736C24.1667 26.5213 23.9753 26.2647 23.826 25.966C23.686 25.6673 23.616 25.308 23.616 24.888C23.616 24.0107 23.9193 23.3247 24.526 22.83C25.1327 22.326 25.9587 22.074 27.004 22.074C27.6107 22.074 28.1473 22.144 28.614 22.284C29.09 22.4147 29.4633 22.5593 29.734 22.718L29.188 24.146C28.8707 23.9687 28.5207 23.8333 28.138 23.74C27.7647 23.6467 27.3773 23.6 26.976 23.6C26.5 23.6 26.1267 23.698 25.856 23.894C25.5947 24.09 25.464 24.3653 25.464 24.72C25.464 24.9347 25.506 25.1213 25.59 25.28C25.6833 25.4293 25.8093 25.5647 25.968 25.686C26.136 25.8073 26.3273 25.9193 26.542 26.022C26.766 26.1247 27.0087 26.2227 27.27 26.316C27.7273 26.484 28.1333 26.6567 28.488 26.834C28.852 27.002 29.1553 27.2073 29.398 27.45C29.65 27.6833 29.8413 27.9633 29.972 28.29C30.1027 28.6073 30.168 28.9947 30.168 29.452C30.168 30.3293 29.8553 31.0107 29.23 31.496C28.614 31.972 27.7087 32.21 26.514 32.21C26.1127 32.21 25.744 32.182 25.408 32.126C25.0813 32.0793 24.7873 32.0187 24.526 31.944C24.274 31.8693 24.0547 31.7947 23.868 31.72C23.6813 31.636 23.532 31.5613 23.42 31.496L23.938 30.054C24.19 30.194 24.5307 30.334 24.96 30.474C25.3893 30.614 25.9073 30.684 26.514 30.684ZM36.4965 28.374C36.4965 27.618 36.3239 27.03 35.9785 26.61C35.6425 26.19 35.0965 25.98 34.3405 25.98C34.1819 25.98 34.0139 25.9893 33.8365 26.008C33.6685 26.0173 33.5005 26.0453 33.3325 26.092V30.278C33.4819 30.3807 33.6779 30.4787 33.9205 30.572C34.1725 30.656 34.4385 30.698 34.7185 30.698C35.3345 30.698 35.7825 30.488 36.0625 30.068C36.3519 29.648 36.4965 29.0833 36.4965 28.374ZM38.2325 28.346C38.2325 28.906 38.1579 29.4193 38.0085 29.886C37.8685 30.3527 37.6632 30.754 37.3925 31.09C37.1219 31.426 36.7812 31.6873 36.3705 31.874C35.9692 32.0607 35.5119 32.154 34.9985 32.154C34.6532 32.154 34.3359 32.112 34.0465 32.028C33.7572 31.944 33.5192 31.8507 33.3325 31.748V34.59H31.6385V24.916C31.9839 24.8227 32.4085 24.734 32.9125 24.65C33.4165 24.566 33.9485 24.524 34.5085 24.524C35.0872 24.524 35.6052 24.6127 36.0625 24.79C36.5199 24.9673 36.9072 25.224 37.2245 25.56C37.5512 25.8867 37.7985 26.288 37.9665 26.764C38.1439 27.2307 38.2325 27.758 38.2325 28.346ZM46.6004 28.332C46.6004 28.9107 46.5164 29.438 46.3484 29.914C46.1804 30.39 45.9424 30.796 45.6344 31.132C45.3264 31.468 44.9531 31.7293 44.5144 31.916C44.0851 32.1027 43.6091 32.196 43.0864 32.196C42.5637 32.196 42.0877 32.1027 41.6584 31.916C41.2291 31.7293 40.8604 31.468 40.5524 31.132C40.2444 30.796 40.0017 30.39 39.8244 29.914C39.6564 29.438 39.5724 28.9107 39.5724 28.332C39.5724 27.7533 39.6564 27.2307 39.8244 26.764C40.0017 26.288 40.2444 25.882 40.5524 25.546C40.8697 25.21 41.2431 24.9533 41.6724 24.776C42.1017 24.5893 42.5731 24.496 43.0864 24.496C43.5997 24.496 44.0711 24.5893 44.5004 24.776C44.9391 24.9533 45.3124 25.21 45.6204 25.546C45.9284 25.882 46.1664 26.288 46.3344 26.764C46.5117 27.2307 46.6004 27.7533 46.6004 28.332ZM44.8644 28.332C44.8644 27.604 44.7057 27.03 44.3884 26.61C44.0804 26.1807 43.6464 25.966 43.0864 25.966C42.5264 25.966 42.0877 26.1807 41.7704 26.61C41.4624 27.03 41.3084 27.604 41.3084 28.332C41.3084 29.0693 41.4624 29.6527 41.7704 30.082C42.0877 30.5113 42.5264 30.726 43.0864 30.726C43.6464 30.726 44.0804 30.5113 44.3884 30.082C44.7057 29.6527 44.8644 29.0693 44.8644 28.332ZM48.3456 24.916C48.6722 24.8227 49.0969 24.734 49.6196 24.65C50.1422 24.566 50.7209 24.524 51.3556 24.524C51.9529 24.524 52.4522 24.608 52.8536 24.776C53.2549 24.9347 53.5722 25.1633 53.8056 25.462C54.0482 25.7513 54.2162 26.106 54.3096 26.526C54.4122 26.9367 54.4636 27.3893 54.4636 27.884V32H52.7696V28.15C52.7696 27.758 52.7416 27.4267 52.6856 27.156C52.6389 26.876 52.5549 26.652 52.4336 26.484C52.3216 26.3067 52.1629 26.1807 51.9576 26.106C51.7616 26.022 51.5189 25.98 51.2296 25.98C51.0149 25.98 50.7909 25.994 50.5576 26.022C50.3242 26.05 50.1516 26.0733 50.0396 26.092V32H48.3456V24.916ZM58.369 30.782C58.817 30.782 59.1437 30.7307 59.349 30.628C59.5544 30.516 59.657 30.3293 59.657 30.068C59.657 29.8253 59.545 29.6247 59.321 29.466C59.1064 29.3073 58.747 29.1347 58.243 28.948C57.935 28.836 57.6504 28.7193 57.389 28.598C57.137 28.4673 56.9177 28.318 56.731 28.15C56.5444 27.982 56.395 27.7813 56.283 27.548C56.1804 27.3053 56.129 27.0113 56.129 26.666C56.129 25.994 56.3764 25.4667 56.871 25.084C57.3657 24.692 58.0377 24.496 58.887 24.496C59.3164 24.496 59.727 24.538 60.119 24.622C60.511 24.6967 60.805 24.7713 61.001 24.846L60.693 26.218C60.5064 26.134 60.2684 26.0593 59.979 25.994C59.6897 25.9193 59.3537 25.882 58.971 25.882C58.6257 25.882 58.3457 25.9427 58.131 26.064C57.9164 26.176 57.809 26.3533 57.809 26.596C57.809 26.7173 57.8277 26.8247 57.865 26.918C57.9117 27.0113 57.9864 27.1 58.089 27.184C58.1917 27.2587 58.327 27.338 58.495 27.422C58.663 27.4967 58.8684 27.576 59.111 27.66C59.5124 27.8093 59.853 27.9587 60.133 28.108C60.413 28.248 60.6417 28.4113 60.819 28.598C61.0057 28.7753 61.141 28.9807 61.225 29.214C61.309 29.4473 61.351 29.7273 61.351 30.054C61.351 30.754 61.0897 31.286 60.567 31.65C60.0537 32.0047 59.3164 32.182 58.355 32.182C57.711 32.182 57.193 32.126 56.801 32.014C56.409 31.9113 56.1337 31.8273 55.975 31.762L56.269 30.348C56.521 30.4507 56.8197 30.5487 57.165 30.642C57.5197 30.7353 57.921 30.782 58.369 30.782ZM69.5555 28.332C69.5555 28.9107 69.4715 29.438 69.3035 29.914C69.1355 30.39 68.8975 30.796 68.5895 31.132C68.2815 31.468 67.9081 31.7293 67.4695 31.916C67.0401 32.1027 66.5641 32.196 66.0415 32.196C65.5188 32.196 65.0428 32.1027 64.6135 31.916C64.1841 31.7293 63.8155 31.468 63.5075 31.132C63.1995 30.796 62.9568 30.39 62.7795 29.914C62.6115 29.438 62.5275 28.9107 62.5275 28.332C62.5275 27.7533 62.6115 27.2307 62.7795 26.764C62.9568 26.288 63.1995 25.882 63.5075 25.546C63.8248 25.21 64.1981 24.9533 64.6275 24.776C65.0568 24.5893 65.5281 24.496 66.0415 24.496C66.5548 24.496 67.0261 24.5893 67.4555 24.776C67.8941 24.9533 68.2675 25.21 68.5755 25.546C68.8835 25.882 69.1215 26.288 69.2895 26.764C69.4668 27.2307 69.5555 27.7533 69.5555 28.332ZM67.8195 28.332C67.8195 27.604 67.6608 27.03 67.3435 26.61C67.0355 26.1807 66.6015 25.966 66.0415 25.966C65.4815 25.966 65.0428 26.1807 64.7255 26.61C64.4175 27.03 64.2635 27.604 64.2635 28.332C64.2635 29.0693 64.4175 29.6527 64.7255 30.082C65.0428 30.5113 65.4815 30.726 66.0415 30.726C66.6015 30.726 67.0355 30.5113 67.3435 30.082C67.6608 29.6527 67.8195 29.0693 67.8195 28.332ZM75.4727 26.204C75.3327 26.1573 75.1367 26.1107 74.8847 26.064C74.642 26.008 74.3573 25.98 74.0307 25.98C73.844 25.98 73.6433 25.9987 73.4287 26.036C73.2233 26.0733 73.0787 26.106 72.9947 26.134V32H71.3007V25.028C71.6273 24.9067 72.0333 24.7947 72.5187 24.692C73.0133 24.58 73.5593 24.524 74.1567 24.524C74.2687 24.524 74.3993 24.5333 74.5487 24.552C74.698 24.5613 74.8473 24.58 74.9967 24.608C75.146 24.6267 75.2907 24.6547 75.4307 24.692C75.5707 24.72 75.6827 24.748 75.7667 24.776L75.4727 26.204Z" fill="black"/>
<path d="M89.229 0.0986328C86.8933 0.0986328 85 1.99196 85 4.32764V10.354H93.4572V4.34455C93.4572 4.33905 93.458 4.33356 93.458 4.32764C93.458 1.99196 91.5647 0.0986328 89.229 0.0986328Z" fill="#FFA000"/>
<path d="M126.084 0.00208344L99.9658 0.0136841L93.229 0.0166763L89 0.0185547C91.3344 0.0175178 93.2298 1.91127 93.2309 4.24568L93.2438 33.4258L111.788 43.9901L130.328 33.4094L130.315 4.22921C130.314 1.8948 128.419 0.00104659 126.084 0.00208344Z" fill="url(#paint0_linear_5633_33)"/>
<path d="M111.61 10L113.878 16.9821H121.22L115.281 21.2974L117.549 28.2795L111.61 23.9642L105.671 28.2795L107.939 21.2974L102 16.9821H109.342L111.61 10Z" fill="#FAFAFA"/>
<defs>
<linearGradient id="paint0_linear_5633_33" x1="89.0098" y1="22.0094" x2="130.323" y2="21.991" gradientUnits="userSpaceOnUse">
<stop stop-color="#FFCA28"/>
<stop offset="1" stop-color="#D8AD2B"/>
</linearGradient>
</defs>
</svg>
