<svg width="137" height="147" viewBox="0 0 137 147" fill="none" xmlns="http://www.w3.org/2000/svg">
<path d="M98.7804 33C98.7804 33 88.1193 21.3877 90.2921 0L115 4.03912C115 4.03912 113.962 22.1279 98.7804 33Z" fill="#FF3B38"/>
<path d="M104 38.8684C104 38.8684 115.612 49.9559 137 47.6962L132.961 22C132.961 22 114.872 23.0796 104 38.8684Z" fill="#FF3B38"/>
<path d="M131 81.5C131 90.1016 129.306 98.6189 126.014 106.566C122.722 114.513 117.898 121.733 111.815 127.815C105.733 133.898 98.5126 138.722 90.5658 142.014C82.6189 145.306 74.1016 147 65.5 147C56.8984 147 48.3811 145.306 40.4342 142.014C32.4874 138.722 25.2667 133.898 19.1845 127.815C13.1023 121.733 8.27757 114.513 4.98589 106.566C1.69421 98.6189 -7.51974e-07 90.1016 0 81.5L65.5 81.5H131Z" fill="url(#paint0_linear_8254_9)"/>
<path d="M131 81.5C131 72.8984 129.306 64.3811 126.014 56.4342C122.722 48.4874 117.898 41.2667 111.815 35.1845C105.733 29.1023 98.5126 24.2776 90.5658 20.9859C82.6189 17.6942 74.1016 16 65.5 16C56.8984 16 48.3811 17.6942 40.4342 20.9859C32.4874 24.2776 25.2667 29.1023 19.1845 35.1845C13.1023 41.2667 8.27757 48.4874 4.98589 56.4342C1.69421 64.3811 -7.51974e-07 72.8984 0 81.5L65.5 81.5H131Z" fill="url(#paint1_linear_8254_9)"/>
<path d="M99 79.5C99 83.8993 98.1335 88.2555 96.45 92.3199C94.7664 96.3843 92.2988 100.077 89.1881 103.188C86.0773 106.299 82.3843 108.766 78.3199 110.45C74.2555 112.133 69.8993 113 65.5 113C61.1007 113 56.7445 112.133 52.6801 110.45C48.6157 108.766 44.9227 106.299 41.8119 103.188C38.7012 100.077 36.2336 96.3843 34.55 92.3199C32.8665 88.2555 32 83.8993 32 79.5L65.5 79.5H99Z" fill="url(#paint2_linear_8254_9)"/>
<path d="M99 81.5C99 77.1007 98.1335 72.7445 96.45 68.6801C94.7664 64.6157 92.2988 60.9227 89.1881 57.8119C86.0773 54.7012 82.3843 52.2336 78.3199 50.55C74.2555 48.8665 69.8993 48 65.5 48C61.1007 48 56.7445 48.8665 52.6801 50.55C48.6157 52.2336 44.9227 54.7012 41.8119 57.8119C38.7012 60.9227 36.2336 64.6157 34.55 68.6801C32.8665 72.7445 32 77.1007 32 81.5L65.5 81.5H99Z" fill="url(#paint3_linear_8254_9)"/>
<g filter="url(#filter0_d_8254_9)">
<path d="M64.9075 65.1872C65.0297 65.1406 65.1631 65.147 65.3078 65.1503C65.4975 65.1567 65.5377 65.3303 65.557 65.4814C65.5875 65.7273 65.6357 65.9926 65.7048 66.2755C65.7241 66.3575 65.7354 66.441 65.7418 66.523C65.7627 66.8863 65.7884 67.1676 65.8897 67.4827C65.9813 67.7736 65.9829 68.0806 66.0714 68.3571C66.1212 68.5114 66.1935 68.7558 66.2144 68.9616C66.2337 69.1464 66.2787 69.3152 66.3478 69.4711C66.4459 69.6897 66.4395 69.9518 66.5295 70.1816C66.6324 70.4453 66.6774 70.7057 66.777 70.9612C66.8381 71.1236 66.8815 71.2827 66.9281 71.4451C66.9506 71.519 66.9731 71.5833 66.9989 71.6364C67.0953 71.8421 67.1532 72.0543 67.2544 72.2649C67.4216 72.6089 67.5824 73.0333 67.7881 73.4174C67.9489 73.718 68.1611 74.0974 68.3717 74.3819C68.542 74.6182 68.6481 74.8272 68.8298 75.0426C69.1063 75.3593 69.4937 75.8656 69.8634 76.2466C70.1945 76.5874 70.5482 76.8559 71.0015 77.2304C71.1895 77.3847 71.3889 77.5342 71.5994 77.6805C72.0656 78.0004 72.4739 78.2575 72.8163 78.4456C73.5637 78.8588 74.406 79.2413 75.3448 79.5885C75.3946 79.6078 75.5184 79.648 75.7113 79.7107C75.8785 79.7621 76.044 79.8345 76.2048 79.8795C76.4169 79.9374 76.5857 79.9904 76.7111 80.0418C76.8349 80.0933 76.9715 80.1319 77.1226 80.1608C77.3686 80.2058 77.6113 80.3344 77.8781 80.373C78.0228 80.3923 78.1787 80.4341 78.3523 80.5032C78.6047 80.6012 78.8539 80.598 79.1191 80.6687C79.1287 80.6704 79.2059 80.6945 79.3505 80.7395C79.5724 80.8054 79.7556 80.8295 79.9967 80.8649C80.1912 80.8938 80.4468 81.0095 80.6847 81.0481C80.704 81.0497 80.8085 81.0626 81.0014 81.0835C81.0593 81.0899 81.1188 81.0995 81.1766 81.1076C81.2248 81.114 81.2795 81.1269 81.3486 81.1478C81.5849 81.2233 81.8261 81.2732 82.0704 81.2989C82.4031 81.3326 82.5783 81.3632 82.8034 81.5577C83.0204 81.7441 83.1313 82.1412 82.7391 82.2216C82.6426 82.2441 82.4031 82.2955 82.0157 82.3791C81.8582 82.4129 81.6958 82.437 81.5222 82.4466C81.2457 82.4643 81.0802 82.4755 81.0271 82.4788C80.8744 82.4916 80.778 82.5013 80.7378 82.5077C80.442 82.5414 80.0691 82.6684 79.8649 82.6749C79.574 82.6829 79.3747 82.7006 79.2702 82.7263C78.8715 82.826 78.7076 82.8806 78.4054 82.9144C78.2173 82.9353 78.0951 82.9546 78.0372 82.9722C77.7672 83.0558 77.5952 83.1057 77.5245 83.1153C77.1805 83.178 76.9442 83.2343 76.8156 83.2825C76.6532 83.3452 76.5246 83.3629 76.3269 83.4223C76.0263 83.5124 75.6727 83.6265 75.266 83.7583C74.9975 83.8467 74.7564 83.9383 74.5394 84.0348C74.4365 84.0798 74.1986 84.1859 73.8257 84.3498C72.9753 84.7228 72.133 85.2339 71.4193 85.8609C70.8921 86.3238 70.3905 86.8366 69.9099 87.3944C69.6736 87.6677 69.426 88.0519 69.2364 88.2978C69.0885 88.4907 68.9567 88.7382 68.7975 88.9649C68.7252 89.0726 68.6673 89.1626 68.6239 89.2333C68.3523 89.7043 68.1915 89.9953 68.1417 90.1046C68.0211 90.3746 67.87 90.7138 67.6835 91.1205C67.4344 91.6654 67.2608 92.0898 67.1659 92.3936C67.1081 92.5801 67.0663 92.7055 67.0373 92.7666C66.9698 92.9193 66.9264 93.0414 66.9087 93.1363C66.875 93.3179 66.7512 93.5558 66.7062 93.7809C66.6676 93.969 66.6451 94.0895 66.5647 94.2905C66.5085 94.4287 66.4763 94.5268 66.4699 94.5862C66.4394 94.8048 66.4265 94.9527 66.3654 95.1424C66.2947 95.3482 66.2465 95.5668 66.2191 95.7983C66.1822 96.1085 66.0696 96.4043 66.0262 96.6744C65.9861 96.9299 65.9861 97.2868 65.9298 97.5633C65.8848 97.7739 65.8414 97.9346 65.8189 98.142C65.7498 98.7383 65.761 99.3041 65.7224 99.9455C65.7064 100.185 65.6163 101.006 65.1839 100.826C64.9058 100.712 64.848 100.437 64.8383 100.172C64.8351 100.044 64.8303 99.825 64.8255 99.5228C64.819 99.0727 64.6294 98.6467 64.6052 98.2063C64.5988 98.097 64.586 97.9411 64.5667 97.7369C64.5426 97.4861 64.4766 97.3174 64.414 97.0602C64.3545 96.8158 64.3722 96.4413 64.295 96.2002C64.2307 96.0009 64.1632 95.7823 64.1423 95.5122C64.1294 95.3113 64.0668 95.0412 63.9574 94.7004C63.9349 94.6249 63.9108 94.4673 63.8915 94.2262C63.8851 94.1587 63.8481 94.0189 63.7774 93.8115C63.7356 93.6845 63.7035 93.5624 63.681 93.4402C63.6472 93.2473 63.6279 93.0978 63.57 92.9467C63.4672 92.6767 63.435 92.3873 63.3434 92.098C63.2341 91.7492 63.1441 91.4646 63.0749 91.2412C62.9705 90.9004 62.8692 90.6175 62.7744 90.3941C62.5461 89.8508 62.3612 89.4409 62.2262 89.1708C61.9867 88.6966 61.7954 88.3671 61.654 88.1822C61.3582 87.7948 61.1444 87.4363 60.8567 87.1325C60.4966 86.7467 60.1558 86.4108 59.7266 86.1166C59.4919 85.9542 59.2798 85.7646 59.0033 85.5958C58.5821 85.3402 58.2205 85.1344 57.9182 84.9769C57.4408 84.7294 57.0181 84.5734 56.4088 84.3404C56.2931 84.2969 56.1838 84.2761 56.0777 84.2278C55.9443 84.1684 55.8012 84.1185 55.6485 84.0783C55.4315 84.0205 55.2884 83.9803 55.2129 83.9513C54.9074 83.842 54.6663 83.8324 54.3689 83.7231C54.221 83.6684 53.9944 83.6218 53.6874 83.5832C53.5218 83.5639 53.2309 83.4466 53.0042 83.4096C52.8049 83.3775 52.53 83.3598 52.3098 83.2955C52.1683 83.2537 52.0478 83.2183 51.9529 83.1894C51.879 83.1669 51.6989 83.1508 51.4128 83.138C51.3083 83.1331 51.1669 83.1058 50.9917 83.0544C50.6525 82.9515 50.384 82.9322 49.9774 82.9033C49.8633 82.8952 49.7588 82.8776 49.6286 82.839C49.3071 82.7409 49.0338 82.7136 48.6802 82.6815C48.5291 82.6654 48.4197 82.6461 48.3571 82.6188C48.2204 82.5593 48.0115 82.4114 48.0018 82.2507C47.9825 81.9613 48.1175 81.8038 48.4101 81.7781C48.6464 81.7588 48.8377 81.7363 48.9807 81.7073C49.217 81.6623 49.4309 81.6141 49.6253 81.5627C49.7009 81.5434 49.8616 81.5273 50.1124 81.5177C50.2683 81.5112 50.4725 81.4614 50.7248 81.3714C50.9435 81.2942 51.2296 81.3135 51.4514 81.2621C51.4996 81.2508 51.6089 81.2155 51.7825 81.1512C51.9063 81.1062 52.0719 81.074 52.2776 81.0579C52.3419 81.0547 52.5107 81.0001 52.7872 80.9004C52.9367 80.8458 53.2051 80.8393 53.3643 80.775C53.4704 80.73 53.6182 80.6641 53.7581 80.6336C53.9204 80.5982 54.0603 80.5548 54.1744 80.5082C54.4284 80.4053 54.6342 80.3635 54.8753 80.2542C54.9669 80.214 55.0585 80.1754 55.1517 80.1385C56.0166 79.7961 56.8782 79.391 57.6674 78.8959C57.8796 78.7625 58.0597 78.6709 58.2349 78.5471C58.5355 78.3365 58.8891 78.1115 59.2042 77.8591C59.4999 77.6212 59.8616 77.3849 60.0963 77.1599C60.3937 76.8753 60.7329 76.5378 61.1123 76.1552C61.4113 75.853 61.6041 75.6344 61.6909 75.501C61.7842 75.3515 61.8935 75.1972 62.0156 75.0332C62.1667 74.8371 62.2728 74.6796 62.342 74.567C62.6425 74.0543 62.8885 73.5769 63.0814 73.13C63.1152 73.056 63.1586 72.9483 63.21 72.8133C63.308 72.5545 63.3916 72.3938 63.4495 72.1558C63.48 72.0369 63.5186 71.9211 63.5652 71.8118C63.6649 71.5836 63.6729 71.3666 63.7581 71.1351C63.8417 70.9052 63.9028 70.6738 63.9366 70.4407C63.9446 70.3909 63.9751 70.2944 64.0282 70.1513C64.1407 69.8411 64.123 69.5293 64.2243 69.219C64.2468 69.1419 64.2822 69.031 64.3272 68.8831C64.3497 68.8027 64.369 68.6082 64.385 68.2995C64.3883 68.2272 64.4333 68.0697 64.5169 67.8318C64.549 67.7418 64.5731 67.5714 64.5876 67.3174C64.6165 66.8544 64.6326 66.6101 64.639 66.5844C64.6937 66.3947 64.7515 66.1793 64.774 65.9639C64.8094 65.6585 64.8319 65.427 64.8496 65.2647C64.8544 65.2277 64.8738 65.2017 64.9075 65.1872Z" fill="white"/>
</g>
<defs>
<filter id="filter0_d_8254_9" x="44" y="65.148" width="43" height="43.704" filterUnits="userSpaceOnUse" color-interpolation-filters="sRGB">
<feFlood flood-opacity="0" result="BackgroundImageFix"/>
<feColorMatrix in="SourceAlpha" type="matrix" values="0 0 0 0 0 0 0 0 0 0 0 0 0 0 0 0 0 0 127 0" result="hardAlpha"/>
<feOffset dy="4"/>
<feGaussianBlur stdDeviation="2"/>
<feComposite in2="hardAlpha" operator="out"/>
<feColorMatrix type="matrix" values="0 0 0 0 0 0 0 0 0 0 0 0 0 0 0 0 0 0 0.25 0"/>
<feBlend mode="normal" in2="BackgroundImageFix" result="effect1_dropShadow_8254_9"/>
<feBlend mode="normal" in="SourceGraphic" in2="effect1_dropShadow_8254_9" result="shape"/>
</filter>
<linearGradient id="paint0_linear_8254_9" x1="65.5" y1="16" x2="65.5" y2="147" gradientUnits="userSpaceOnUse">
<stop offset="0.3" stop-color="#FD1D1D"/>
<stop offset="0.7" stop-color="#FF6600"/>
</linearGradient>
<linearGradient id="paint1_linear_8254_9" x1="65.5" y1="16" x2="65.5" y2="147" gradientUnits="userSpaceOnUse">
<stop stop-color="#FDCC6E"/>
<stop offset="1" stop-color="#FF6600"/>
</linearGradient>
<linearGradient id="paint2_linear_8254_9" x1="65.5" y1="113" x2="65.5" y2="46" gradientUnits="userSpaceOnUse">
<stop stop-color="#FDCC6E"/>
<stop offset="1" stop-color="#FF6600"/>
</linearGradient>
<linearGradient id="paint3_linear_8254_9" x1="65.5" y1="48" x2="65.5" y2="115" gradientUnits="userSpaceOnUse">
<stop offset="0.1" stop-color="#FD1D1D"/>
<stop offset="0.9" stop-color="#FF6600"/>
</linearGradient>
</defs>
</svg>
