<svg width="32" height="32" viewBox="0 0 32 32" fill="none" xmlns="http://www.w3.org/2000/svg">
<path d="M0 24C0 26.1217 0.842855 28.1566 2.34315 29.6569C3.84344 31.1571 5.87827 32 8 32H24C26.1217 32 28.1566 31.1571 29.6569 29.6569C31.1571 28.1566 32 26.1217 32 24V8C32 5.87827 31.1571 3.84344 29.6569 2.34315C28.1566 0.842855 26.1217 0 24 0H8C5.87827 0 3.84344 0.842855 2.34315 2.34315C0.842855 3.84344 0 5.87827 0 8V24ZM20.2667 3.2H24C25.273 3.2 26.4939 3.70571 27.3941 4.60589C28.2943 5.50606 28.8 6.72696 28.8 8V24C28.8 25.273 28.2943 26.4939 27.3941 27.3941C26.4939 28.2943 25.273 28.8 24 28.8H20.2667V3.2ZM3.2 8C3.2 6.72696 3.70571 5.50606 4.60589 4.60589C5.50606 3.70571 6.72696 3.2 8 3.2H17.0667V11.7333H3.2V8ZM3.2 14.9333H17.0667V28.8H8C6.72696 28.8 5.50606 28.2943 4.60589 27.3941C3.70571 26.4939 3.2 25.273 3.2 24V14.9333Z" fill="white"/>
</svg>
