<svg width="361" height="361" viewBox="0 0 361 361" fill="none" xmlns="http://www.w3.org/2000/svg">
<path d="M94.439 71.1171C88.1289 77.4699 98.8305 87.3189 91.7529 91.7957C97.5514 94.6949 117.761 98.4043 122.963 86.9778C119.168 84.0359 121.811 76.7451 118.273 69.7528C113.071 59.3496 88.1289 63.9543 94.439 71.1171Z" fill="#202D34"/>
<path d="M94.9933 70.9892C93.032 70.6481 86.4234 73.9311 91.3692 82.7994C95.3343 89.9196 92.0087 90.4313 92.0087 90.4313C92.0087 90.4313 95.9312 90.5592 93.5863 85.2297C91.1134 79.5591 89.9196 73.6753 94.9933 70.9892Z" fill="#202D34"/>
<path d="M141.424 127.141C140.912 126.203 139.761 125.862 138.823 126.331L138.354 126.587C138.226 126.672 137.928 126.843 137.715 126.971C137.501 127.099 137.246 127.269 136.99 127.397C136.478 127.653 135.967 127.866 135.455 128.037C134.432 128.378 133.408 128.591 132.47 128.591C131.49 128.633 130.552 128.42 129.699 128.164C129.145 127.951 128.591 127.695 128.036 127.397C127.397 125.905 126.757 124.412 126.203 122.878C125.521 121.044 124.924 119.211 124.412 117.335C123.901 115.459 123.474 113.583 123.09 111.707C122.877 110.726 122.707 109.788 122.579 108.85L122.366 107.443C122.28 106.974 122.238 106.463 122.195 106.122L122.152 105.951C121.897 103.862 120.063 102.37 117.974 102.54C115.842 102.711 114.222 104.587 114.393 106.718C114.435 107.401 114.478 107.912 114.563 108.467C114.606 109.021 114.734 109.532 114.776 110.087C114.947 111.153 115.16 112.219 115.373 113.284C115.8 115.374 116.354 117.463 116.993 119.552C117.335 120.575 117.718 121.598 118.059 122.622C118.443 123.602 118.827 124.626 119.253 125.606C120.106 127.61 121.129 129.571 122.152 131.447L122.28 131.618C122.536 132.13 122.963 132.556 123.474 132.854C124.924 133.622 126.501 134.219 128.207 134.517C129.87 134.816 131.66 134.773 133.323 134.389C134.986 134.006 136.478 133.323 137.8 132.471C138.482 132.002 139.079 131.49 139.633 130.978C139.932 130.723 140.188 130.424 140.443 130.168C140.742 129.827 140.955 129.571 141.253 129.188C141.68 128.591 141.765 127.823 141.424 127.141Z" fill="#FF8B7B"/>
<path d="M146.625 119.85H146.369C144.877 119.807 143.428 120.49 142.49 121.641L138.695 126.373L138.652 129.614C141.68 130.808 145.559 127.567 145.559 127.567L147.478 127.098C148.842 126.757 149.695 125.435 149.525 124.071L149.226 122.152C149.056 120.831 147.947 119.85 146.625 119.85Z" fill="#FF8B7B"/>
<path d="M122.067 101.602C124.583 104.16 124.753 111.92 124.753 111.92L114.648 120.021C114.648 120.021 110.513 108.552 112.815 104.501C114.776 101.048 118.869 98.2765 122.067 101.602Z" fill="#067CFF"/>
<path d="M122.067 101.602C124.583 104.16 124.753 111.92 124.753 111.92L114.648 120.021C114.648 120.021 110.513 108.552 112.815 104.501C114.776 101.048 118.869 98.2765 122.067 101.602Z" fill="white" fill-opacity="0.2"/>
<path d="M105.396 275.515L110.982 276.154L111.707 261.018L106.164 260.379L105.396 275.515Z" fill="#FF8B7B"/>
<path d="M111.877 272.488H105.311C105.055 272.488 104.842 272.701 104.8 272.999L104.373 279.182C104.331 279.821 104.928 280.418 105.567 280.418C108.338 280.461 108.381 280.418 111.792 280.418C113.924 280.418 118.187 280.418 121.129 280.418C123.986 280.418 123.986 277.519 122.749 277.263C117.207 276.112 115.032 274.492 113.071 272.914C112.73 272.658 112.304 272.488 111.877 272.488Z" fill="#202D34"/>
<path d="M111.706 261.018L111.323 268.821H105.737L106.164 260.379L111.706 261.018Z" fill="black" fill-opacity="0.2"/>
<path d="M114.734 140.145C114.734 140.145 119.552 180.522 119.552 198.514C115.757 223.499 112.517 267.329 112.517 267.329L104.8 267.116C104.8 267.116 101.303 219.363 104.544 198.77C100.408 180.266 95.249 137.63 95.249 137.63L114.734 140.145Z" fill="#202D34"/>
<path d="M99.8539 151.401C98.8733 151.828 98.0205 152.297 97.2104 152.766C98.2764 160.739 99.6407 170.801 101.133 180.053C103.649 172.421 102.284 155.665 99.8539 151.401Z" fill="black" fill-opacity="0.2"/>
<path d="M45.0234 261.488L49.6281 264.685L57.5585 251.767L52.9538 248.526L45.0234 261.488Z" fill="#FF8B7B"/>
<path d="M50.7795 262.98L46.857 257.736C46.6865 257.523 46.388 257.437 46.1748 257.608L40.9306 260.976C40.419 261.317 40.291 262.127 40.6748 262.682C42.2949 264.899 42.3376 264.899 44.3841 267.67C45.6632 269.375 48.1787 272.786 49.9268 275.131C51.6749 277.434 53.9772 275.686 53.4656 274.534C51.078 269.418 51.078 266.689 51.1633 264.216C51.1633 263.747 51.0354 263.321 50.7795 262.98Z" fill="#202D34"/>
<path d="M57.5589 251.767L53.4658 258.418L48.52 255.732L52.9542 248.526L57.5589 251.767Z" fill="black" fill-opacity="0.2"/>
<path d="M73.2487 266.902C69.2409 266.902 60.9269 266.902 60.799 261.019C60.6711 256.414 66.3843 254.495 71.2875 254.282C73.5898 254.154 75.5511 255.945 75.6364 258.205C75.6364 258.333 75.6364 258.418 75.6364 258.546C81.2217 258.29 84.8458 257.054 86.1675 254.964C89.1094 250.274 83.4388 238.208 77.9387 226.483C71.458 212.755 64.082 197.192 63.9541 182.27C63.9541 179.967 65.7874 178.091 68.0898 178.049C68.0898 178.049 68.0898 178.049 68.1324 178.049C70.3921 178.049 72.2255 179.882 72.2681 182.185C72.396 195.274 79.3031 209.983 85.4427 222.945C92.4776 237.953 98.5746 250.871 93.1598 259.441C89.9621 264.472 83.4388 266.902 73.2487 266.902Z" fill="#067CFF"/>
<path d="M108.552 139.335C108.552 139.335 95.2491 185.51 88.7257 202.266C76.1481 224.181 55.2137 257.693 55.2137 257.693L48.5625 253.813C48.5625 253.813 64.1673 215.1 74.6558 197.064C77.4698 178.347 88.1288 136.734 88.1288 136.734L108.552 139.335Z" fill="#202D34"/>
<path d="M51.9733 266.775C52.357 267.244 52.7407 267.627 53.1245 267.713C53.4229 267.755 53.6787 267.67 53.8919 267.457C54.0625 267.286 54.0625 267.116 54.0625 266.988C53.9772 266.05 51.5469 264.813 51.0779 264.6C50.9927 264.558 50.95 264.558 50.9074 264.643C50.8647 264.686 50.8647 264.771 50.8647 264.856C51.1206 265.368 51.5469 266.135 51.9733 266.775ZM53.6361 266.732C53.7214 266.817 53.764 266.945 53.764 267.031C53.8066 267.073 53.764 267.116 53.7214 267.201C53.5508 267.329 53.3803 267.414 53.2097 267.372C52.6981 267.244 52.0159 266.434 51.3337 265.112C52.1865 265.581 53.2524 266.22 53.6361 266.732Z" fill="#067CFF"/>
<path d="M50.9074 264.856C50.9074 264.899 50.9074 264.899 50.95 264.899C51.7175 265.325 53.764 265.666 54.1904 265.026C54.2756 264.899 54.3609 264.643 54.1477 264.302C53.3376 262.895 51.0353 264.515 50.95 264.6C50.9074 264.643 50.8647 264.685 50.8647 264.771C50.8647 264.813 50.8647 264.856 50.9074 264.856ZM53.8493 264.43C53.8919 264.43 53.8919 264.472 53.9345 264.515C54.0198 264.643 54.0198 264.771 53.9772 264.813C53.7214 265.197 52.2291 265.069 51.3337 264.728C51.9306 264.344 53.295 263.662 53.8493 264.43Z" fill="#067CFF"/>
<path d="M115.629 273.809C116.226 273.809 116.78 273.724 117.079 273.426C117.292 273.255 117.377 272.999 117.335 272.701C117.292 272.445 117.122 272.317 117.036 272.274C116.226 271.763 113.796 272.999 113.327 273.212C113.284 273.255 113.242 273.34 113.284 273.383C113.284 273.468 113.37 273.511 113.412 273.511C114.009 273.639 114.862 273.809 115.629 273.809ZM116.567 272.445C116.738 272.445 116.823 272.488 116.908 272.53C116.951 272.53 116.994 272.573 116.994 272.658C117.036 272.871 116.994 273.042 116.823 273.17C116.439 273.511 115.373 273.596 113.924 273.298C114.777 272.914 115.97 272.445 116.567 272.445Z" fill="#067CFF"/>
<path d="M113.454 273.511H113.497C114.307 273.17 115.799 271.72 115.544 270.995C115.501 270.825 115.373 270.612 114.947 270.569C113.326 270.398 113.284 273.212 113.241 273.34C113.241 273.383 113.284 273.468 113.326 273.511C113.369 273.511 113.412 273.511 113.454 273.511ZM114.861 270.867C114.904 270.867 114.947 270.867 114.947 270.867C115.117 270.91 115.245 270.953 115.245 271.038C115.416 271.464 114.392 272.573 113.582 273.085C113.668 272.402 113.923 270.867 114.861 270.867Z" fill="#067CFF"/>
<path d="M88.1289 136.734C93.2879 137.373 104.203 138.78 114.734 140.145C120.746 119.935 122.707 110.214 123.261 105.482C123.517 103.051 122.067 100.749 119.722 100.024C118.102 99.5126 116.141 98.9584 114.137 98.4467C113.455 98.2335 112.773 98.1056 112.09 97.9351C108.168 97.0824 104.501 96.7413 100.024 96.4002C99.4275 96.3149 98.8306 96.3149 98.2337 96.2723C97.0399 96.2296 95.8887 96.187 94.8228 96.187C91.4545 96.187 88.8111 99.0863 89.1095 102.412C89.2801 104.8 89.4506 106.931 89.5785 108.935C89.877 113.625 89.9623 117.377 89.9196 120.66C89.7491 126.757 89.0669 131.234 88.1289 136.734Z" fill="#067CFF"/>
<path d="M88.1289 136.734C93.2879 137.373 104.203 138.78 114.734 140.145C120.746 119.935 122.707 110.214 123.261 105.482C123.517 103.051 122.067 100.749 119.722 100.024C118.102 99.5126 116.141 98.9584 114.137 98.4467C113.455 98.2335 112.773 98.1056 112.09 97.9351C108.168 97.0824 104.501 96.7413 100.024 96.4002C99.4275 96.3149 98.8306 96.3149 98.2337 96.2723C97.0399 96.2296 95.8887 96.187 94.8228 96.187C91.4545 96.187 88.8111 99.0863 89.1095 102.412C89.2801 104.8 89.4506 106.931 89.5785 108.935C89.877 113.625 89.9623 117.377 89.9196 120.66C89.7491 126.757 89.0669 131.234 88.1289 136.734Z" fill="white" fill-opacity="0.301961"/>
<path d="M89.9197 120.66C93.4159 116.141 94.6949 110.939 93.5438 108.04L89.5786 108.935C89.8771 113.625 89.9623 117.377 89.9197 120.66Z" fill="#067CFF" fill-opacity="0.301961"/>
<path d="M114.137 98.4471C113.454 98.2339 112.772 98.106 112.09 97.9354C108.168 97.0827 104.501 96.7416 100.024 96.3579C99.3846 96.3153 98.8303 96.3153 98.2334 96.2726C97.8497 96.2726 97.5086 96.23 97.1675 96.23L97.9776 97.5943C98.1055 97.7649 100.749 102.114 107.4 106.804L108.807 107.784L110.171 106.718C113.966 103.819 114.435 100.195 114.435 98.4897C114.35 98.4897 114.222 98.4471 114.137 98.4471Z" fill="white"/>
<path d="M102.923 88.3421C102.668 91.6251 101.9 94.9933 99.9814 96.4003C99.9814 96.4003 102.454 100.451 108.764 104.885C112.687 101.858 112.09 97.9352 112.09 97.9352C107.869 96.3577 108.168 93.4584 109.958 88.8111L106.675 87.063C105.396 85.656 103.094 86.4661 102.923 88.3421Z" fill="#FF8B7B"/>
<path d="M106.676 87.0631C105.482 85.7414 103.307 86.381 102.966 88.0438C104.331 90.5167 106.036 92.5632 108.722 93.9276C108.68 92.5206 109.149 90.8151 109.959 88.8112L106.676 87.0631Z" fill="black" fill-opacity="0.2"/>
<path d="M97.8499 78.0243C99.47 84.3771 100.024 87.1058 103.904 89.7919C109.745 93.7997 117.164 90.3888 117.462 83.6949C117.718 77.6832 115.032 68.3033 108.253 66.9389C101.559 65.6172 96.1871 71.6715 97.8499 78.0243Z" fill="#FF8B7B"/>
<path d="M113.966 68.2177C107.485 73.9736 100.749 75.5511 100.749 75.5511C100.749 75.5511 105.567 85.869 96.528 83.2682C93.8846 74.4852 96.528 69.9231 98.8304 67.7913C106.036 65.4463 111.11 64.6363 113.966 68.2177Z" fill="#202D34"/>
<path d="M97.5087 84.2918C98.063 85.5282 99.1715 86.3809 100.195 86.7647C101.772 87.3189 102.71 85.9546 102.369 84.4197C102.071 83.0127 100.877 81.0088 99.2568 81.1367C97.6366 81.222 96.8692 82.8848 97.5087 84.2918Z" fill="#FF8B7B"/>
<path d="M87.9582 135.114L86.4233 137.331C86.338 137.544 86.5086 137.757 86.807 137.8L114.734 141.339C114.947 141.381 115.16 141.296 115.203 141.126L115.757 138.781C115.8 138.653 115.586 138.482 115.331 138.439L88.3846 134.986C88.214 134.943 88.0009 135.029 87.9582 135.114Z" fill="#067CFF"/>
<path d="M91.1558 138.61L90.4736 138.525C90.303 138.482 90.2178 138.397 90.2178 138.311L90.9852 135.242C90.9852 135.156 91.1131 135.114 91.2837 135.114L91.9659 135.242C92.1364 135.242 92.2217 135.327 92.2217 135.412L91.4542 138.482C91.4542 138.567 91.3263 138.61 91.1558 138.61Z" fill="#202D34"/>
<path d="M112.645 141.339L111.92 141.254C111.792 141.254 111.707 141.168 111.707 141.083L112.431 138.013C112.474 137.928 112.602 137.885 112.73 137.885L113.455 137.971C113.625 138.013 113.71 138.098 113.668 138.184L112.943 141.211C112.943 141.296 112.815 141.381 112.645 141.339Z" fill="#202D34"/>
<path d="M101.9 139.975L101.176 139.889C101.048 139.847 100.962 139.761 100.962 139.676L101.687 136.649C101.73 136.564 101.858 136.478 101.986 136.521L102.71 136.606C102.881 136.606 102.966 136.692 102.966 136.82L102.199 139.847C102.199 139.932 102.071 139.975 101.9 139.975Z" fill="#202D34"/>
<path d="M108.722 77.7682C108.807 78.2799 109.148 78.6636 109.49 78.5783C109.831 78.5357 110.044 78.0667 109.959 77.5124C109.831 77.0008 109.49 76.6171 109.148 76.7023C108.807 76.745 108.594 77.2566 108.722 77.7682Z" fill="#202D34"/>
<path d="M114.606 76.6173C114.734 77.1716 115.075 77.5127 115.416 77.4701C115.757 77.3848 115.97 76.9158 115.842 76.4042C115.757 75.8499 115.373 75.5088 115.032 75.5514C114.691 75.6367 114.52 76.1057 114.606 76.6173Z" fill="#202D34"/>
<path d="M114.904 75.6366L116.098 74.9971C116.098 74.9971 115.629 76.1056 114.904 75.6366Z" fill="#202D34"/>
<path d="M113.071 77.811C113.071 77.811 114.393 79.9002 115.544 80.7956C114.989 81.563 113.753 81.4777 113.753 81.4777L113.071 77.811Z" fill="#FF5551"/>
<path d="M109.361 83.6094C109.319 83.652 109.319 83.6947 109.319 83.7799C109.361 83.8652 109.489 83.8652 109.532 83.8226C111.664 82.8419 113.327 83.8226 113.369 83.8226C113.455 83.8652 113.54 83.8652 113.582 83.7799C113.625 83.6947 113.582 83.6094 113.54 83.5667C113.455 83.5241 111.664 82.4582 109.404 83.5667C109.404 83.5667 109.361 83.5667 109.361 83.6094Z" fill="#202D34"/>
<path d="M106.675 76.1484C106.718 76.1057 106.761 76.1057 106.761 76.0205C107.4 74.784 108.551 74.6135 108.551 74.6135C108.722 74.6135 108.85 74.4429 108.807 74.2724C108.807 74.1018 108.637 73.9739 108.466 74.0166C108.423 74.0166 106.974 74.1871 106.206 75.7646C106.121 75.8926 106.206 76.1057 106.377 76.191C106.462 76.2336 106.59 76.2336 106.675 76.1484Z" fill="#202D34"/>
<path d="M116.354 72.1832C116.397 72.1832 116.397 72.1832 116.397 72.1406C116.525 72.0127 116.482 71.7995 116.311 71.7143C114.904 70.7336 113.54 71.2879 113.497 71.2879C113.327 71.3732 113.284 71.5437 113.327 71.7143C113.412 71.8848 113.583 71.9274 113.753 71.8848C113.796 71.8422 114.819 71.4584 115.97 72.2259C116.098 72.3112 116.269 72.3112 116.354 72.1832Z" fill="#202D34"/>
<path d="M108.978 76.7453L110.172 76.1484C110.172 76.1484 109.745 77.257 108.978 76.7453Z" fill="#202D34"/>
<path d="M68.0898 186.363C65.8301 186.363 63.9967 184.529 63.9541 182.269C63.8688 171.184 67.5355 161.804 74.6558 155.196C83.3962 147.052 96.9971 143.257 113.028 144.536C124.242 145.389 131.447 142.661 139.804 139.505C141.168 138.994 142.575 138.44 143.982 137.928C146.157 137.16 148.544 138.269 149.312 140.401C150.079 142.575 148.971 144.963 146.839 145.73C145.432 146.242 144.11 146.754 142.746 147.265C134.261 150.506 125.478 153.831 112.389 152.808C98.7025 151.699 87.3187 154.727 80.3264 161.25C74.8689 166.324 72.1829 173.359 72.2681 182.184C72.2681 184.487 70.4348 186.363 68.1324 186.363C68.1324 186.363 68.1324 186.363 68.0898 186.363Z" fill="#067CFF"/>
<path d="M147.478 157.711L164.192 151.614L153.447 122.238L136.734 128.377C133.835 129.443 132.342 132.684 133.366 135.54L140.273 154.385C141.339 157.285 144.579 158.777 147.478 157.711Z" fill="#067CFF"/>
<path d="M147.478 157.711L164.192 151.614L153.447 122.238L136.734 128.377C133.835 129.443 132.342 132.684 133.366 135.54L140.273 154.385C141.339 157.285 144.579 158.777 147.478 157.711Z" fill="white" fill-opacity="0.701961"/>
<path d="M145.986 124.967L153.447 122.238L164.192 151.614L156.73 154.343C156.219 153.874 155.878 153.277 155.622 152.595L146.242 127.013C145.986 126.331 145.901 125.649 145.986 124.967Z" fill="#067CFF" fill-opacity="0.2"/>
<path d="M171.227 134.73L169.436 129.87L170.161 129.571L171.952 134.474L171.227 134.73Z" fill="#067CFF"/>
<path d="M168.327 126.8L165.684 119.594C164.788 117.079 162.358 115.416 159.715 115.416C158.99 115.416 158.265 115.544 157.54 115.8L152.808 117.548L152.509 116.823L157.285 115.075C158.052 114.776 158.905 114.648 159.715 114.648C162.699 114.648 165.385 116.524 166.409 119.338L169.052 126.501L168.327 126.8Z" fill="#067CFF"/>
<path d="M163.851 154.556L170.8 152.04C173.06 151.188 174.254 148.672 173.444 146.37L163.851 120.277C163.04 117.974 160.482 116.823 158.223 117.633L151.273 120.191C149.013 121.044 147.819 123.56 148.629 125.819L158.223 151.955C159.033 154.215 161.591 155.409 163.851 154.556Z" fill="#067CFF"/>
<path d="M160.312 127.354C160.781 128.548 160.141 129.912 158.947 130.339C157.711 130.808 156.346 130.168 155.92 128.974C155.494 127.738 156.091 126.373 157.327 125.947C158.521 125.521 159.885 126.118 160.312 127.354Z" fill="#202D34"/>
<path d="M166.153 143.257C166.579 144.494 165.982 145.815 164.746 146.284C163.552 146.711 162.188 146.071 161.761 144.877C161.292 143.641 161.932 142.319 163.126 141.85C164.362 141.424 165.727 142.063 166.153 143.257Z" fill="#202D34"/>
<path d="M97.722 141.381L97.6367 141.296C96.4429 140.102 95.1639 138.781 93.97 137.416C92.8189 136.095 91.6677 134.688 90.6444 133.323C89.6212 131.916 88.6832 130.467 87.8731 129.017C87.2762 127.908 86.7645 126.757 86.3808 125.649C86.8498 124.114 87.3188 122.579 87.9157 121.044C88.5979 119.253 89.3653 117.463 90.2181 115.715C91.0281 113.966 91.9235 112.261 92.9041 110.556C93.3731 109.745 93.8421 108.893 94.3538 108.083L95.1212 106.889C95.377 106.463 95.6755 106.036 95.846 105.738L95.9313 105.61C97.1251 103.904 96.7414 101.559 95.0359 100.28C93.2879 99.0012 90.8576 99.3849 89.5785 101.133C89.1948 101.645 88.8963 102.071 88.5979 102.54C88.2568 103.009 88.001 103.478 87.7025 103.904C87.1056 104.842 86.5514 105.78 86.0397 106.718C84.9738 108.594 84.0358 110.556 83.1831 112.517C82.7141 113.497 82.3304 114.521 81.9467 115.501C81.6056 116.525 81.2218 117.548 80.8808 118.614C80.1986 120.66 79.6869 122.792 79.2606 124.924L79.2179 125.094C79.09 125.649 79.1327 126.246 79.3459 126.8C80.1133 128.889 81.1792 130.765 82.3304 132.471C83.4816 134.176 84.8033 135.668 86.1676 137.118C87.5746 138.525 89.0243 139.847 90.5592 141.083C92.0941 142.277 93.629 143.385 95.377 144.409C96.1018 144.878 97.0825 144.75 97.722 144.11C98.4895 143.385 98.4895 142.149 97.722 141.381Z" fill="#FF8B7B"/>
<path d="M106.761 145.261L106.676 145.048C105.993 143.684 104.757 142.703 103.265 142.405L97.3382 141.211L94.439 142.661C94.7374 145.901 99.3848 147.82 99.3848 147.82L100.706 149.354C101.602 150.378 103.179 150.591 104.331 149.781L105.908 148.672C106.974 147.905 107.358 146.455 106.761 145.261Z" fill="#FF8B7B"/>
<path d="M92.3924 96.7413C89.1094 98.2336 85.6133 103.435 85.6133 103.435L92.6482 116.61C92.6482 116.61 100.664 107.4 99.9817 102.796C99.3847 98.8731 96.5708 94.7801 92.3924 96.7413Z" fill="#067CFF"/>
<path d="M92.3924 96.7413C89.1094 98.2336 85.6133 103.435 85.6133 103.435L92.6482 116.61C92.6482 116.61 100.664 107.4 99.9817 102.796C99.3847 98.8731 96.5708 94.7801 92.3924 96.7413Z" fill="white" fill-opacity="0.301961"/>
<path d="M317.34 269.119C310.433 269.119 303.697 267.669 300.414 263.406C284.894 243.154 285.022 202.266 285.15 162.742C285.235 141.467 286.898 121.385 284.553 105.78C283.146 96.5707 278.328 90.2606 273.382 86.9776C266.134 82.2023 256.115 84.7605 251.851 85.8691C249.634 86.466 247.374 85.1016 246.778 82.8845C246.223 80.6674 247.545 78.4077 249.762 77.8108C255.134 76.4465 267.627 73.2061 277.987 80.0705C284.98 84.6752 290.991 92.904 292.782 104.544C295.212 120.788 293.549 141.168 293.464 162.785C293.336 200.901 293.208 240.34 307.022 258.375C308.131 259.824 312.48 261.104 319.685 260.762C320.325 260.72 320.964 260.677 321.561 260.635C321.305 260.08 321.135 259.441 321.135 258.801C321.135 256.499 323.011 254.665 325.313 254.665C334.395 254.665 339.17 255.39 340.108 259.569C340.364 260.762 340.492 263.79 336.1 265.836C332.817 267.328 325.015 269.119 317.34 269.119Z" fill="#067CFF"/>
<path d="M226.44 272.701L217.956 269.375L222.432 254.666L230.917 257.991L226.44 272.701Z" fill="#FFC5BD"/>
<path d="M217.743 268.437L227.293 272.189C227.549 272.317 227.719 272.572 227.677 272.828L226.739 278.797C226.611 279.394 225.971 279.735 225.374 279.522C222.987 278.542 219.235 276.879 216.208 275.685C214.332 274.96 210.793 273.809 208.192 272.786C205.677 271.762 206.273 269.076 207.425 269.247C212.584 270.1 214.545 269.204 216.591 268.437C216.975 268.309 217.402 268.309 217.743 268.437Z" fill="#202D34"/>
<path d="M230.917 257.991L222.433 254.666L220.13 262.255L228.615 265.58L230.917 257.991Z" fill="black" fill-opacity="0.2"/>
<path d="M241.491 144.323C241.491 144.323 233.816 182.227 230.917 200.901C227.591 221.836 218.894 260.123 218.894 260.123L230.149 264.557C230.149 264.557 246.266 225.374 248.483 206.401C255.262 190.967 268.693 145.602 268.693 145.602L241.491 144.323Z" fill="#067CFF" fill-opacity="0.2"/>
<path d="M218.339 260.208L230.704 265.069L232.836 261.317L219.022 255.561L218.339 260.208Z" fill="#202D34" fill-opacity="0.2"/>
<path d="M215.312 268.607C214.843 268.437 214.46 268.181 214.246 267.84C214.118 267.584 214.118 267.286 214.246 266.945C214.374 266.731 214.545 266.646 214.673 266.646C215.483 266.561 217.018 268.565 217.188 268.778C217.188 268.821 217.231 268.906 217.188 268.949C217.146 268.991 217.103 269.034 217.018 269.034C216.549 268.949 215.909 268.821 215.312 268.607ZM214.928 266.987C214.843 266.945 214.758 266.945 214.715 266.945C214.673 266.945 214.587 266.987 214.545 267.073C214.46 267.328 214.46 267.499 214.545 267.669C214.758 268.096 215.568 268.437 216.677 268.65C216.165 267.968 215.397 267.158 214.928 266.987Z" fill="#067CFF" fill-opacity="0.2"/>
<path d="M216.975 269.034C216.975 268.991 216.933 268.991 216.933 268.991C216.421 268.395 215.739 266.561 216.123 265.922C216.208 265.794 216.378 265.623 216.719 265.708C216.975 265.794 217.146 265.922 217.274 266.135C217.785 267.03 217.231 268.864 217.188 268.906C217.188 268.991 217.146 269.034 217.061 269.034C217.061 269.034 217.018 269.034 216.975 269.034ZM216.719 266.05L216.677 266.007C216.464 265.964 216.421 266.05 216.378 266.092C216.165 266.433 216.549 267.798 216.975 268.522C217.103 267.968 217.316 266.86 217.018 266.305C216.933 266.177 216.847 266.092 216.719 266.05Z" fill="#067CFF" fill-opacity="0.2"/>
<path d="M258.034 167.304C253.77 172.548 252.107 185.979 252.107 197.149C254.964 189.262 258.247 179.242 261.146 170.118L258.034 167.304Z" fill="black" fill-opacity="0.2"/>
<path d="M277.391 274.107H268.309L267.115 258.801H276.197L277.391 274.107Z" fill="#FFC5BD"/>
<path d="M267.797 273.34H278.03C278.328 273.34 278.542 273.51 278.627 273.766L279.906 279.65C280.034 280.29 279.565 280.844 278.925 280.844C276.367 280.801 272.274 280.631 268.991 280.631C266.987 280.631 263.278 280.844 260.464 280.844C257.778 280.844 257.351 278.115 258.503 277.859C263.576 276.751 265.069 275.216 266.731 273.724C267.03 273.468 267.414 273.34 267.797 273.34Z" fill="#202D34"/>
<path d="M276.197 258.801H267.115L267.712 266.688H276.836L276.197 258.801Z" fill="black" fill-opacity="0.2"/>
<path d="M252.534 144.792C252.534 144.792 257.565 187.044 258.631 202.223C260.123 223.37 265.794 265.154 265.794 265.154H277.902C277.902 265.154 279.224 222.518 277.007 203.502C280.034 186.959 279.096 146.071 279.096 146.071L252.534 144.792Z" fill="#067CFF" fill-opacity="0.2"/>
<path d="M265.325 265.41H278.627L279.224 261.146L264.259 260.89L265.325 265.41Z" fill="#202D34" fill-opacity="0.2"/>
<path d="M265.58 274.363C265.069 274.363 264.6 274.278 264.301 274.022C264.088 273.852 263.96 273.553 264.003 273.212C264.003 272.956 264.131 272.828 264.259 272.786C264.983 272.402 267.115 273.681 267.371 273.852C267.414 273.894 267.456 273.937 267.456 274.022C267.414 274.065 267.371 274.108 267.328 274.15C266.859 274.235 266.22 274.363 265.58 274.363ZM264.6 272.999C264.514 272.999 264.472 272.999 264.387 273.042C264.344 273.084 264.301 273.127 264.301 273.212C264.301 273.468 264.344 273.681 264.514 273.809C264.898 274.108 265.751 274.15 266.859 273.937C266.135 273.468 265.111 272.999 264.6 272.999Z" fill="#067CFF" fill-opacity="0.2"/>
<path d="M267.286 274.15C267.243 274.15 267.243 274.15 267.201 274.107C266.518 273.766 265.197 272.317 265.325 271.549C265.367 271.421 265.452 271.208 265.836 271.165C266.092 271.123 266.305 271.208 266.518 271.336C267.286 271.975 267.414 273.894 267.456 273.979C267.456 274.022 267.414 274.065 267.371 274.107C267.328 274.15 267.328 274.15 267.286 274.15ZM265.964 271.464C265.921 271.464 265.921 271.464 265.879 271.464C265.666 271.506 265.666 271.592 265.666 271.634C265.58 272.061 266.39 273.169 267.073 273.681C267.03 273.127 266.817 272.018 266.305 271.592C266.177 271.506 266.092 271.464 265.964 271.464Z" fill="#067CFF" fill-opacity="0.2"/>
<path d="M256.712 86.5511H256.669L249.379 86.4658C246.906 86.4232 244.476 86.3806 242.088 86.3379C241.363 86.3379 240.638 86.2953 239.913 86.2526C239.956 86.21 239.956 86.1674 239.999 86.1247C240.51 85.6131 241.022 85.0162 241.576 84.5046C241.832 84.2061 242.088 83.9503 242.386 83.6945C242.6 83.396 242.941 83.0976 243.111 82.8844L243.751 82.0743C244.518 81.0937 244.817 79.772 244.476 78.5355C243.879 76.3611 241.662 75.082 239.53 75.6789L238.08 76.0626C237.611 76.1905 237.185 76.3184 236.758 76.489C235.863 76.7874 235.01 77.1285 234.158 77.5122C232.452 78.2371 230.832 79.1324 229.212 80.1557C227.592 81.1789 226.057 82.3301 224.564 83.6518C223.072 85.0162 221.665 86.5511 220.429 88.2992C220.13 88.6829 219.832 89.1519 219.619 89.6209C218.126 93.0744 219.704 97.1249 223.157 98.6171L223.882 98.9582C225.844 99.8109 227.336 100.195 228.828 100.578C230.32 100.962 231.727 101.218 233.092 101.431C234.499 101.687 235.863 101.857 237.185 102.028C238.506 102.199 239.871 102.326 241.193 102.454C243.836 102.668 246.437 102.795 249.08 102.881C251.681 102.923 254.239 102.923 256.968 102.838C261.232 102.625 264.685 99.1288 264.728 94.7799C264.77 90.3031 261.189 86.5937 256.712 86.5511Z" fill="#FFC5BD" fill-opacity="0.878431"/>
<path d="M260.933 100.792C254.665 107.997 239.487 105.311 239.487 105.311L240.297 87.4042C240.297 87.4042 247.971 85.6134 256.158 85.5708C265.026 85.5708 266.006 95.036 260.933 100.792Z" fill="#202D34" fill-opacity="0.2"/>
<path d="M244.134 95.2914C243.75 98.1907 243.367 102.071 243.111 107.315C239.828 123.943 238.592 135.71 241.491 144.323C243.793 147.137 273.724 146.583 279.096 146.071C282.208 138.311 282.549 116.14 282.89 97.5085C283.018 92.179 279.181 87.6169 273.979 86.6789C267.243 85.5277 260.421 85.2293 253.557 85.9967C248.654 86.551 244.774 90.3882 244.134 95.2914Z" fill="#202D34" fill-opacity="0.929412"/>
<path d="M273.169 106.633C273.255 112.346 277.39 121.428 281.995 126.032C282.294 121.214 282.464 116.013 282.635 110.769L273.169 106.633Z" fill="black" fill-opacity="0.2"/>
<path d="M299.22 117.718L298.964 117.079C297.813 114.35 296.534 111.877 295.127 109.532C293.72 107.187 292.228 104.97 290.693 102.838C289.115 100.707 287.495 98.66 285.79 96.6987C284.937 95.7181 284.084 94.7375 283.189 93.7568L281.825 92.3498L280.375 90.9002C277.348 87.9157 272.445 87.7451 269.204 90.6444C265.879 93.6289 265.623 98.7879 268.607 102.114L268.821 102.369L273.425 107.486C274.96 109.191 276.495 110.982 277.945 112.73C278.67 113.625 279.437 114.478 280.077 115.373C280.801 116.269 281.484 117.164 282.166 118.059C283.104 119.381 284.042 120.745 284.894 122.067C284.767 122.664 284.596 123.346 284.383 124.028C283.871 125.777 283.232 127.695 282.422 129.614C281.654 131.532 280.801 133.494 279.949 135.455C279.096 137.416 278.158 139.42 277.348 141.381L277.263 141.552C276.666 143.002 276.922 144.707 278.03 145.901C279.565 147.564 282.166 147.692 283.829 146.157C285.619 144.536 287.197 142.874 288.732 141.126C290.267 139.335 291.716 137.501 293.123 135.583C293.848 134.602 294.488 133.579 295.127 132.513C295.809 131.49 296.449 130.381 297.003 129.187C297.6 128.036 298.154 126.8 298.666 125.35C299.135 123.901 299.561 122.323 299.647 120.106C299.689 119.339 299.519 118.486 299.22 117.718Z" fill="#FFC5BD"/>
<path d="M274.492 86.8069C285.023 88.5977 291.887 102.838 291.887 102.838L279.182 116.482C279.182 116.482 271.891 109.02 267.499 102.113C262.724 94.6094 266.945 85.5279 274.492 86.8069Z" fill="#202D34"/>
<path d="M255.262 64.2952C253.472 61.3533 252.917 57.2602 256.158 53.1671C254.026 53.4656 252.917 51.6322 252.917 51.6322C252.917 51.6322 257.607 47.2407 265.495 47.2407C274.96 47.2407 275.643 50.8648 275.344 53.3803C281.782 53.8067 286.515 70.6053 270.1 73.5898C260.72 63.6556 255.262 64.2952 255.262 64.2952Z" fill="#202D34"/>
<path d="M274.704 53.6364C274.704 53.6364 277.348 50.9503 274.065 47.71C275.344 48.0937 276.751 49.0743 277.177 50.7798C277.646 52.6558 276.367 54.1907 274.704 53.6364Z" fill="#202D34"/>
<path d="M271.08 71.5005C270.867 76.6595 270.398 82.5432 271.251 86.6789C269.929 88.8108 266.476 91.241 260.336 91.7953C258.119 90.5588 255.22 87.5317 256.243 85.9541C258.844 84.2487 259.952 79.175 259.228 75.3804L271.08 71.5005Z" fill="#FFC5BD"/>
<path d="M268.096 72.4814L259.228 75.3807C259.526 76.9156 259.526 78.6637 259.27 80.2839C261.914 80.1986 265.58 78.1947 266.987 76.3187C268.138 74.7412 268.266 73.4621 268.096 72.4814Z" fill="black" fill-opacity="0.2"/>
<path d="M273.681 63.2719C272.061 69.6246 271.422 73.4619 267.542 76.1053C261.658 80.1131 254.325 75.6363 254.026 68.8998C253.77 62.8881 256.499 53.5082 263.321 52.1865C269.972 50.8647 275.344 56.9617 273.681 63.2719Z" fill="#FFC5BD"/>
<path d="M272.402 54.1904C269.588 56.1943 266.135 64.5936 273.212 67.9619C279.48 62.4192 277.86 54.1904 272.402 54.1904Z" fill="#202D34"/>
<path d="M273.98 55.2136C275.174 49.6709 261.232 46.8143 256.797 53.295C255.305 57.1322 273.17 60.6284 273.98 55.2136Z" fill="#202D34"/>
<path d="M263.576 70.0512C261.189 68.9853 259.228 68.9001 258.972 68.8574C258.886 68.8574 258.801 68.9427 258.844 69.028C258.844 69.1559 258.929 69.2411 259.014 69.2411C259.185 69.2411 261.104 69.3264 263.449 70.3497C263.534 70.3923 263.619 70.3497 263.662 70.2644C263.704 70.1791 263.662 70.0512 263.576 70.0512Z" fill="#202D34"/>
<path d="M275.216 70.2217C274.023 71.5434 272.317 72.1403 270.867 72.1829C268.693 72.2256 268.139 70.179 269.205 68.3883C270.143 66.7682 272.445 64.8069 274.406 65.617C276.368 66.3844 276.581 68.7294 275.216 70.2217Z" fill="#FFC5BD"/>
<path d="M263.619 63.1867C263.491 63.6983 263.15 64.082 262.809 63.9968C262.468 63.9541 262.255 63.4851 262.383 62.9309C262.468 62.4192 262.809 62.0355 263.15 62.1208C263.491 62.2061 263.704 62.6751 263.619 63.1867Z" fill="#202D34"/>
<path d="M257.693 62.0353C257.565 62.547 257.224 62.9307 256.883 62.8454C256.542 62.8028 256.329 62.3338 256.456 61.7795C256.542 61.2679 256.925 60.8841 257.267 60.9694C257.608 61.0547 257.778 61.5237 257.693 62.0353Z" fill="#202D34"/>
<path d="M259.526 62.6748C259.526 62.6748 257.735 65.4462 256.158 66.64C256.883 67.7059 258.631 67.4927 258.631 67.4927L259.526 62.6748Z" fill="#FF847F"/>
<path d="M262.766 60.1593C262.852 60.1167 262.98 60.1593 263.065 60.2446C264.003 61.3105 265.111 61.1399 265.154 61.1399C265.324 61.0973 265.452 61.2252 265.495 61.3958C265.538 61.5663 265.41 61.7368 265.239 61.7795C265.154 61.7795 263.747 61.95 262.596 60.6709C262.468 60.543 262.511 60.3298 262.638 60.2019C262.681 60.2019 262.724 60.1593 262.766 60.1593Z" fill="#202D34"/>
<path d="M255.859 58.4112C255.817 58.4112 255.731 58.3685 255.689 58.3259C255.604 58.1553 255.604 57.9848 255.731 57.8569C257.096 56.791 258.503 57.26 258.545 57.26C258.716 57.3026 258.801 57.5158 258.759 57.6437C258.673 57.8143 258.503 57.8995 258.332 57.8569C258.29 57.8569 257.224 57.5158 256.158 58.3685C256.073 58.4112 255.945 58.4538 255.859 58.4112Z" fill="#202D34"/>
<path d="M281.057 141.168L274.363 141.125L277.817 148.8C277.817 148.8 283.53 147.564 283.232 144.494L281.057 141.168Z" fill="#FFC5BD"/>
<path d="M270.953 146.412L272.061 148.544C272.658 149.781 274.108 150.292 275.344 149.781L277.817 148.8L274.364 141.125L271.677 143.129C270.697 143.897 270.398 145.261 270.953 146.412Z" fill="#FFC5BD"/>
<path d="M230.022 135.497C228.956 135.497 227.932 135.114 227.122 134.304C225.46 132.726 225.417 130.083 227.037 128.42C230.022 125.35 232.708 123.005 235.095 120.873C240.809 115.842 242.812 113.881 242.599 110.086C242.514 108.338 241.832 105.823 241.107 103.179C239.402 96.9117 237.483 89.7915 240.809 84.0783C242.557 81.0085 245.584 78.9193 249.762 77.8108C251.979 77.2565 254.282 78.5782 254.836 80.7953C255.39 83.055 254.068 85.3147 251.851 85.869C248.909 86.6364 248.227 87.8729 247.971 88.2566C246.394 90.9427 247.929 96.528 249.123 101.005C249.975 104.075 250.785 107.016 250.913 109.66C251.297 117.676 246.564 121.854 240.595 127.098C238.336 129.102 235.777 131.362 233.006 134.218C232.196 135.071 231.088 135.497 230.022 135.497Z" fill="#067CFF"/>
<path d="M239.103 75.8493L245.627 74.1865L244.092 82.4579C244.092 82.4579 238.251 82.6711 237.824 79.5587L239.103 75.8493Z" fill="#FFC5BD"/>
<path d="M250.189 78.578L249.677 80.7525C249.379 82.1168 248.057 83.0122 246.65 82.8417L244.092 82.4579L245.627 74.1865L248.611 75.4656C249.805 75.9772 250.487 77.299 250.189 78.578Z" fill="#FFC5BD"/>
<path d="M201.796 147.734L201.626 147.521C200.858 146.753 200.858 145.474 201.626 144.664L224.649 121.641C225.459 120.873 226.739 120.873 227.506 121.641L227.719 121.854C228.487 122.621 228.487 123.9 227.719 124.71L204.653 147.734C203.886 148.501 202.607 148.501 201.796 147.734Z" fill="#202D34"/>
<path d="M213.82 159.715L213.607 159.544C212.839 158.734 212.839 157.455 213.607 156.688L236.673 133.621C237.44 132.854 238.72 132.854 239.53 133.621L239.7 133.835C240.468 134.602 240.468 135.881 239.7 136.691L216.677 159.715C215.867 160.482 214.587 160.482 213.82 159.715Z" fill="#202D34"/>
<path d="M247.204 136.265L230.96 152.467L208.874 130.381L225.118 114.137C227.293 111.962 230.832 111.962 233.006 114.137L247.204 128.335C249.378 130.509 249.378 134.048 247.204 136.265Z" fill="#067CFF"/>
<path d="M247.204 136.265L230.96 152.467L208.874 130.381L225.118 114.137C227.293 111.962 230.832 111.962 233.006 114.137L247.204 128.335C249.378 130.509 249.378 134.048 247.204 136.265Z" fill="white" fill-opacity="0.701961"/>
<path d="M214.502 124.753L208.874 130.381L230.96 152.466L236.588 146.838C236.374 146.199 235.991 145.645 235.479 145.133L216.207 125.861C215.696 125.35 215.142 124.966 214.502 124.753Z" fill="#067CFF" fill-opacity="0.2"/>
<path d="M233.816 153.404L233.39 153.831C231.684 155.536 228.913 155.536 227.207 153.831L207.51 134.133C205.804 132.427 205.804 129.656 207.51 127.951L207.936 127.524C209.641 125.819 212.413 125.819 214.118 127.524L233.816 147.222C235.521 148.928 235.521 151.699 233.816 153.404Z" fill="#067CFF"/>
</svg>
