<?xml version="1.0" encoding="UTF-8"?>
<!DOCTYPE svg PUBLIC "-//W3C//DTD SVG 1.1//EN" "http://www.w3.org/Graphics/SVG/1.1/DTD/svg11.dtd">
<svg xmlns="http://www.w3.org/2000/svg" version="1.1" width="834px" height="769px" style="shape-rendering:geometricPrecision; text-rendering:geometricPrecision; image-rendering:optimizeQuality; fill-rule:evenodd; clip-rule:evenodd" xmlns:xlink="http://www.w3.org/1999/xlink">
<g><path style="opacity:1" fill="#fefefe" d="M 354.5,1.5 C 372.331,8.16829 389.998,15.335 407.5,23C 408.517,24.0495 408.684,25.2161 408,26.5C 393.758,60.6461 379.258,94.6461 364.5,128.5C 348.233,121.865 332.233,114.865 316.5,107.5C 307.234,103.181 297.901,98.8479 288.5,94.5C 299.609,68.6147 310.443,42.6147 321,16.5C 321.71,15.0267 322.876,14.3601 324.5,14.5C 330.354,17.1337 336.354,19.4671 342.5,21.5C 345.771,15.2923 348.771,8.95893 351.5,2.5C 352.391,1.89022 353.391,1.55688 354.5,1.5 Z"/></g>
<g><path style="opacity:1" fill="#f8e9d9" d="M 351.5,2.5 C 348.771,8.95893 345.771,15.2923 342.5,21.5C 336.354,19.4671 330.354,17.1337 324.5,14.5C 324.389,13.8826 324.056,13.3826 323.5,13C 333.061,9.00747 342.394,5.50747 351.5,2.5 Z"/></g>
<g><path style="opacity:0.978" fill="#e5e4e4" d="M 351.5,-0.5 C 352.167,-0.5 352.833,-0.5 353.5,-0.5C 353.833,0.166667 354.167,0.833333 354.5,1.5C 353.391,1.55688 352.391,1.89022 351.5,2.5C 342.394,5.50747 333.061,9.00747 323.5,13C 324.056,13.3826 324.389,13.8826 324.5,14.5C 322.876,14.3601 321.71,15.0267 321,16.5C 310.443,42.6147 299.609,68.6147 288.5,94.5C 297.901,98.8479 307.234,103.181 316.5,107.5C 306.298,104.068 296.298,100.068 286.5,95.5C 298.276,68.2818 309.776,40.9485 321,13.5C 331.271,8.9461 341.438,4.27943 351.5,-0.5 Z"/></g>
<g><path style="opacity:0.904" fill="#fcfcfc" d="M 649.5,10.5 C 664.066,8.90733 670.9,15.2407 670,29.5C 667.333,34.1667 664.667,38.8333 662,43.5C 662.198,46.2348 662.031,48.9015 661.5,51.5C 659.298,52.7797 657.132,52.7797 655,51.5C 653.306,42.8877 655.639,35.5544 662,29.5C 662.766,18.6156 657.933,15.1156 647.5,19C 644.034,22.0403 642.7,25.8736 643.5,30.5C 640.794,30.5751 638.127,30.9084 635.5,31.5C 633.968,20.204 638.634,13.204 649.5,10.5 Z"/></g>
<g><path style="opacity:0.887" fill="#f8f8f8" d="M 700.5,26.5 C 709.565,25.9513 716.732,29.2846 722,36.5C 724.769,43.1379 723.269,48.6379 717.5,53C 712.42,54.8043 707.42,56.8043 702.5,59C 701.458,60.918 700.292,62.7513 699,64.5C 697.416,63.1387 695.582,62.472 693.5,62.5C 693.441,58.452 695.108,55.2854 698.5,53C 703.447,50.8476 708.447,48.8476 713.5,47C 716.827,39.1658 714.161,34.3325 705.5,32.5C 701.943,33.8916 698.777,35.8916 696,38.5C 694.343,37.5159 692.677,36.5159 691,35.5C 692.631,31.039 695.798,28.039 700.5,26.5 Z"/></g>
<g><path style="opacity:0.896" fill="#fafafa" d="M 615.5,41.5 C 622.561,40.4562 628.061,42.7895 632,48.5C 632.722,54.1104 632.222,59.6104 630.5,65C 630.557,67.7281 631.557,70.0614 633.5,72C 631.679,73.7433 629.679,75.2433 627.5,76.5C 622.954,72.8824 621.454,68.2158 623,62.5C 626.362,57.3223 625.862,52.8223 621.5,49C 613.072,47.0449 607.405,50.0449 604.5,58C 606.05,60.095 606.383,62.2617 605.5,64.5C 603.587,65.373 601.753,66.373 600,67.5C 595.014,58.7633 596.847,51.5966 605.5,46C 608.815,44.1702 612.149,42.6702 615.5,41.5 Z"/></g>
<g><path style="opacity:0.855" fill="#f5f5f5" d="M 659.5,56.5 C 661.167,56.5 662.833,56.5 664.5,56.5C 664.833,59.1667 665.167,61.8333 665.5,64.5C 662.882,64.7792 660.382,65.4459 658,66.5C 656.396,63.753 655.562,60.753 655.5,57.5C 657.099,57.7678 658.432,57.4345 659.5,56.5 Z"/></g>
<g><path style="opacity:0.808" fill="#efefef" d="M 689.5,64.5 C 692.419,65.2927 695.085,66.6261 697.5,68.5C 695.741,75.5445 692.407,76.3778 687.5,71C 688.609,68.9534 689.276,66.7867 689.5,64.5 Z"/></g>
<g><path style="opacity:0.841" fill="#e7e7e7" d="M 634.5,75.5 C 635.552,75.3505 636.552,75.5172 637.5,76C 638.453,77.9552 639.787,79.6218 641.5,81C 639.252,82.9137 636.752,84.4137 634,85.5C 632.056,84.3125 630.556,82.6458 629.5,80.5C 631.006,78.5986 632.673,76.9319 634.5,75.5 Z"/></g>
<g><path style="opacity:0.985" fill="#e2e9ee" d="M 716.5,220.5 C 715.051,211.578 713.217,202.578 711,193.5C 704.773,187.303 697.273,183.637 688.5,182.5C 688.167,182.5 687.833,182.5 687.5,182.5C 686.5,182.5 685.5,182.5 684.5,182.5C 682.972,181.691 681.306,181.024 679.5,180.5C 677.738,179.738 676.738,178.404 676.5,176.5C 679.228,173.105 682.228,170.105 685.5,167.5C 693.281,163.877 698.448,157.877 701,149.5C 709.843,154.934 718.343,154.268 726.5,147.5C 723.474,144.088 721.64,140.088 721,135.5C 721.708,122.099 717.208,110.932 707.5,102C 700.52,99.4351 693.52,98.9351 686.5,100.5C 684.486,100.392 682.82,101.058 681.5,102.5C 661.283,96.2944 644.783,101.628 632,118.5C 626.329,127.531 624.996,137.198 628,147.5C 628.741,153.132 630.407,158.465 633,163.5C 635.279,166.381 638.112,168.381 641.5,169.5C 643.68,171.848 645.68,174.348 647.5,177C 646.045,180.547 643.378,182.381 639.5,182.5C 626.374,184.702 617.041,191.702 611.5,203.5C 610.32,200.46 608.653,197.794 606.5,195.5C 606.672,194.508 606.338,193.842 605.5,193.5C 603.636,188.574 601.969,183.574 600.5,178.5C 593.374,140.677 606.374,112.177 639.5,93C 676.15,78.2593 707.317,85.7593 733,115.5C 753.109,147.198 752.109,178.198 730,208.5C 725.926,213.079 721.426,217.079 716.5,220.5 Z"/></g>
<g><path style="opacity:1" fill="#6c273d" d="M 681.5,102.5 C 691.749,109.983 698.249,119.983 701,132.5C 701.841,119.186 697.007,108.52 686.5,100.5C 693.52,98.9351 700.52,99.4351 707.5,102C 717.208,110.932 721.708,122.099 721,135.5C 721.64,140.088 723.474,144.088 726.5,147.5C 718.343,154.268 709.843,154.934 701,149.5C 698.448,157.877 693.281,163.877 685.5,167.5C 684.957,167.44 684.624,167.107 684.5,166.5C 686.632,163.104 687.965,159.437 688.5,155.5C 696.002,154.839 699.169,150.839 698,143.5C 696.833,142.333 695.667,141.167 694.5,140C 690.843,139.95 687.51,139.117 684.5,137.5C 683.375,135.871 682.041,134.371 680.5,133C 672.522,131.434 666.355,127.267 662,120.5C 661.535,121.931 660.701,123.097 659.5,124C 654.458,127.521 649.125,130.521 643.5,133C 642.206,135.087 641.039,137.254 640,139.5C 637.156,141.159 634.656,143.159 632.5,145.5C 633.545,154.309 636.545,162.309 641.5,169.5C 638.112,168.381 635.279,166.381 633,163.5C 630.407,158.465 628.741,153.132 628,147.5C 624.996,137.198 626.329,127.531 632,118.5C 644.783,101.628 661.283,96.2944 681.5,102.5 Z"/></g>
<g><path style="opacity:1" fill="#312f48" d="M 686.5,100.5 C 697.007,108.52 701.841,119.186 701,132.5C 698.249,119.983 691.749,109.983 681.5,102.5C 682.82,101.058 684.486,100.392 686.5,100.5 Z"/></g>
<g><path style="opacity:1" fill="#cc4e50" d="M 684.5,137.5 C 678.871,134.188 672.871,131.688 666.5,130C 664.983,128.315 663.316,126.815 661.5,125.5C 655.792,129.557 650.125,133.557 644.5,137.5C 642.273,138.401 641.273,140.067 641.5,142.5C 638.634,143.759 635.634,144.759 632.5,145.5C 634.656,143.159 637.156,141.159 640,139.5C 641.039,137.254 642.206,135.087 643.5,133C 649.125,130.521 654.458,127.521 659.5,124C 660.701,123.097 661.535,121.931 662,120.5C 666.355,127.267 672.522,131.434 680.5,133C 682.041,134.371 683.375,135.871 684.5,137.5 Z"/></g>
<g><path style="opacity:1" fill="#ef867a" d="M 684.5,137.5 C 687.51,139.117 690.843,139.95 694.5,140C 695.667,141.167 696.833,142.333 698,143.5C 699.169,150.839 696.002,154.839 688.5,155.5C 687.965,159.437 686.632,163.104 684.5,166.5C 684.624,167.107 684.957,167.44 685.5,167.5C 682.228,170.105 679.228,173.105 676.5,176.5C 673.484,177.562 670.484,178.729 667.5,180C 663.118,180.457 658.784,180.457 654.5,180C 658.765,181.96 663.265,182.793 668,182.5C 672.133,182.714 675.966,182.048 679.5,180.5C 681.306,181.024 682.972,181.691 684.5,182.5C 680.178,190.254 673.678,195.254 665,197.5C 663.457,201.965 661.623,206.299 659.5,210.5C 658.179,206.216 657.012,201.883 656,197.5C 648.429,194.762 642.929,189.762 639.5,182.5C 643.378,182.381 646.045,180.547 647.5,177C 645.68,174.348 643.68,171.848 641.5,169.5C 636.545,162.309 633.545,154.309 632.5,145.5C 635.634,144.759 638.634,143.759 641.5,142.5C 643.315,141.37 645.315,140.704 647.5,140.5C 647.5,139.5 647.5,138.5 647.5,137.5C 646.5,137.5 645.5,137.5 644.5,137.5C 650.125,133.557 655.792,129.557 661.5,125.5C 663.316,126.815 664.983,128.315 666.5,130C 672.871,131.688 678.871,134.188 684.5,137.5 Z"/></g>
<g><path style="opacity:0.983" fill="#28304a" d="M 600.5,178.5 C 601.969,183.574 603.636,188.574 605.5,193.5C 605.328,194.492 605.662,195.158 606.5,195.5C 607.249,201.155 607.915,206.822 608.5,212.5C 607.648,219.784 606.314,226.951 604.5,234C 605.448,234.483 606.448,234.649 607.5,234.5C 607.5,235.167 607.5,235.833 607.5,236.5C 606.603,235.402 605.77,235.402 605,236.5C 603.177,242.313 600.677,247.813 597.5,253C 598.373,254.045 599.373,254.878 600.5,255.5C 604.167,261.167 608.833,265.833 614.5,269.5C 619.167,274.833 624.167,279.833 629.5,284.5C 634.425,290.092 639.758,295.425 645.5,300.5C 645.389,301.117 645.056,301.617 644.5,302C 639.416,302.173 634.416,302.839 629.5,304C 627.606,305.079 627.273,306.413 628.5,308C 631.553,308.179 634.553,308.679 637.5,309.5C 634.881,315.125 630.548,318.459 624.5,319.5C 623.609,318.89 622.609,318.557 621.5,318.5C 614.167,312.5 606.833,306.5 599.5,300.5C 601.097,296.537 602.764,292.537 604.5,288.5C 603.43,281.717 599.597,277.383 593,275.5C 589.97,277.861 587.636,280.861 586,284.5C 584.974,276.905 582.807,276.572 579.5,283.5C 577.372,281.597 575.039,279.931 572.5,278.5C 556.152,288.336 538.486,291.836 519.5,289C 479.846,279.677 458.513,254.677 455.5,214C 458.368,171.467 480.702,146.134 522.5,138C 557.072,135.449 583.072,148.949 600.5,178.5 Z"/></g>
<g><path style="opacity:1" fill="#742b3f" d="M 644.5,137.5 C 645.5,137.5 646.5,137.5 647.5,137.5C 647.5,138.5 647.5,139.5 647.5,140.5C 645.315,140.704 643.315,141.37 641.5,142.5C 641.273,140.067 642.273,138.401 644.5,137.5 Z"/></g>
<g><path style="opacity:1" fill="#7d3243" d="M 664.5,137.5 C 668.971,136.843 670.638,138.51 669.5,142.5C 668.15,141.05 666.484,140.383 664.5,140.5C 664.5,139.5 664.5,138.5 664.5,137.5 Z"/></g>
<g><path style="opacity:1" fill="#3d3a50" d="M 646.5,147.5 C 648.818,147.818 650.152,149.152 650.5,151.5C 649.875,154.986 648.042,155.986 645,154.5C 644.833,153.667 644.667,152.833 644.5,152C 645.074,150.393 645.74,148.893 646.5,147.5 Z"/></g>
<g><path style="opacity:1" fill="#35354d" d="M 666.5,148.5 C 667.496,148.414 668.329,148.748 669,149.5C 670.584,154.362 669.084,156.028 664.5,154.5C 663.754,153.264 663.421,151.93 663.5,150.5C 665.179,150.715 666.179,150.048 666.5,148.5 Z"/></g>
<g><path style="opacity:1" fill="#d35454" d="M 690.5,141.5 C 692.346,141.222 693.68,141.889 694.5,143.5C 693.726,144.711 692.893,144.711 692,143.5C 691.833,144 691.667,144.5 691.5,145C 694.635,147.032 695.135,149.532 693,152.5C 692.517,151.552 692.351,150.552 692.5,149.5C 691.5,149.5 690.5,149.5 689.5,149.5C 689.279,146.721 689.612,144.054 690.5,141.5 Z"/></g>
<g><path style="opacity:1" fill="#aed0e7" d="M 522.5,156.5 C 555.989,154.858 577.822,169.858 588,201.5C 591.966,237.776 576.466,260.609 541.5,270C 516.447,273.22 496.947,264.387 483,243.5C 467.558,211.097 474.391,184.597 503.5,164C 509.718,160.879 516.051,158.379 522.5,156.5 Z"/></g>
<g><path style="opacity:1" fill="#fbfdfe" d="M 529.5,164.5 C 534.765,163.571 539.265,164.904 543,168.5C 543.989,173.681 541.822,176.348 536.5,176.5C 533.774,176.318 531.107,175.818 528.5,175C 524.514,171.105 524.847,167.605 529.5,164.5 Z"/></g>
<g><path style="opacity:1" fill="#fcfdfe" d="M 512.5,167.5 C 519.142,167.64 521.976,170.973 521,177.5C 511.624,182.206 504.124,189.039 498.5,198C 492.787,201.059 489.453,199.393 488.5,193C 490.468,185.035 494.801,178.701 501.5,174C 505.096,171.539 508.763,169.373 512.5,167.5 Z"/></g>
<g><path style="opacity:0.951" fill="#cacaca" d="M 92.5,170.5 C 98.1894,170.673 103.523,172.173 108.5,175C 110.686,178.125 111.019,181.458 109.5,185C 109.759,186.261 110.426,187.261 111.5,188C 115.372,187.37 119.205,187.536 123,188.5C 125.397,192.623 127.23,196.956 128.5,201.5C 128.526,205.612 126.526,208.112 122.5,209C 121.167,210.667 121.167,212.333 122.5,214C 126.153,214.987 128.487,217.32 129.5,221C 128.197,225.243 126.697,229.41 125,233.5C 121.581,236.867 117.915,237.2 114,234.5C 112.833,235.667 111.667,236.833 110.5,238C 114.298,245.076 112.298,249.743 104.5,252C 98.5117,255.562 93.845,254.228 90.5,248C 88.7412,247.202 87.0745,247.369 85.5,248.5C 83.9095,253.604 80.5762,255.437 75.5,254C 71.7367,253.08 68.2367,251.58 65,249.5C 63.2381,246.424 63.0714,243.258 64.5,240C 64.2409,238.739 63.5742,237.739 62.5,237C 60.0687,236.748 57.7354,237.248 55.5,238.5C 53.9411,237.926 52.4411,237.26 51,236.5C 47.5465,231.626 45.8799,226.292 46,220.5C 47.5707,218.077 49.7374,216.744 52.5,216.5C 53.3629,212.838 52.0296,210.672 48.5,210C 46.4376,208.468 45.1043,206.468 44.5,204C 45.7945,199.785 47.2945,195.618 49,191.5C 50.5522,190.034 52.3855,189.034 54.5,188.5C 56.4559,189.548 58.4559,190.048 60.5,190C 63.3562,188.571 63.8562,186.737 62,184.5C 60.5501,179.232 62.3835,175.732 67.5,174C 71.2616,171.844 75.2616,171.177 79.5,172C 81.3028,173.262 82.6361,174.929 83.5,177C 85.2588,177.798 86.9255,177.631 88.5,176.5C 89.4671,174.21 90.8004,172.21 92.5,170.5 Z M 81.5,191.5 C 97.069,190.112 106.069,197.112 108.5,212.5C 104.796,230.704 94.129,236.87 76.5,231C 63.7225,221.003 62.3891,209.67 72.5,197C 75.2984,194.696 78.2984,192.862 81.5,191.5 Z"/></g>
<g><path style="opacity:1" fill="#d04f51" d="M 676.5,176.5 C 676.738,178.404 677.738,179.738 679.5,180.5C 675.966,182.048 672.133,182.714 668,182.5C 663.265,182.793 658.765,181.96 654.5,180C 658.784,180.457 663.118,180.457 667.5,180C 670.484,178.729 673.484,177.562 676.5,176.5 Z"/></g>
<g><path style="opacity:0.998" fill="#5e79b8" d="M 639.5,182.5 C 642.929,189.762 648.429,194.762 656,197.5C 657.012,201.883 658.179,206.216 659.5,210.5C 661.623,206.299 663.457,201.965 665,197.5C 673.678,195.254 680.178,190.254 684.5,182.5C 685.5,182.5 686.5,182.5 687.5,182.5C 684.7,193.132 677.866,199.465 667,201.5C 665.136,207.56 662.47,213.226 659,218.5C 657.025,212.6 655.358,206.6 654,200.5C 646.462,197.291 640.462,192.291 636,185.5C 638.381,193.706 643.881,198.706 652.5,200.5C 653.28,207.962 655.447,214.962 659,221.5C 663.017,215.631 666.184,209.298 668.5,202.5C 679.603,200.064 686.27,193.397 688.5,182.5C 697.273,183.637 704.773,187.303 711,193.5C 713.217,202.578 715.051,211.578 716.5,220.5C 716.533,232.147 716.033,243.814 715,255.5C 713.989,256.337 712.822,256.67 711.5,256.5C 711.719,255.325 711.386,254.325 710.5,253.5C 703.753,249.314 696.42,247.647 688.5,248.5C 687.957,248.44 687.624,248.107 687.5,247.5C 690.212,238.348 691.379,229.014 691,219.5C 689.825,229.367 687.991,239.201 685.5,249C 685.639,250.301 686.305,251.134 687.5,251.5C 686.572,255.362 685.072,259.029 683,262.5C 670.994,275.672 658.494,288.339 645.5,300.5C 639.758,295.425 634.425,290.092 629.5,284.5C 630.542,276.383 630.375,268.383 629,260.5C 628.428,256.837 627.262,253.503 625.5,250.5C 626.46,247.235 626.46,243.902 625.5,240.5C 625.5,239.167 625.5,237.833 625.5,236.5C 626.556,227.726 628.056,219.059 630,210.5C 626.444,218.445 624.611,226.778 624.5,235.5C 619.187,234.902 613.854,234.569 608.5,234.5C 608.167,234.5 607.833,234.5 607.5,234.5C 606.448,234.649 605.448,234.483 604.5,234C 606.314,226.951 607.648,219.784 608.5,212.5C 609.946,209.746 610.946,206.746 611.5,203.5C 617.041,191.702 626.374,184.702 639.5,182.5 Z"/></g>
<g><path style="opacity:0.916" fill="#e5e5e5" d="M 161.5,66.5 C 161.577,65.2502 162.244,64.4169 163.5,64C 185.17,56.5553 206.67,48.7219 228,40.5C 243.411,81.9837 258.245,123.65 272.5,165.5C 242.422,175.693 212.422,186.193 182.5,197C 181.365,197.749 180.365,197.583 179.5,196.5C 168.03,164.09 156.364,131.757 144.5,99.5C 149.941,88.2821 155.608,77.2821 161.5,66.5 Z"/></g>
<g><path style="opacity:1" fill="#f8e9d9" d="M 161.5,66.5 C 161.833,66.5 162.167,66.5 162.5,66.5C 165.002,74.6496 168.002,82.6496 171.5,90.5C 164.003,92.9962 156.67,95.6629 149.5,98.5C 148.624,98.6309 147.957,98.2975 147.5,97.5C 152.453,87.2637 157.119,76.9304 161.5,66.5 Z"/></g>
<g><path style="opacity:1" fill="#fefefe" d="M 149.5,98.5 C 156.67,95.6629 164.003,92.9962 171.5,90.5C 168.002,82.6496 165.002,74.6496 162.5,66.5C 183.802,58.2293 205.302,50.2293 227,42.5C 241.787,82.3576 256.287,122.358 270.5,162.5C 270.182,163.647 269.516,164.481 268.5,165C 239.866,175.267 211.199,185.434 182.5,195.5C 181.833,195.167 181.167,194.833 180.5,194.5C 168.97,163.243 157.636,131.91 146.5,100.5C 147.602,99.8243 148.602,99.1577 149.5,98.5 Z"/></g>
<g><path style="opacity:0.989" fill="#f8e8d8" d="M 401.5,241.5 C 333.331,241.167 265.331,241.501 197.5,242.5C 178.5,262.167 159.167,281.5 139.5,300.5C 138.502,334.329 138.168,368.329 138.5,402.5C 129.833,402.5 121.167,402.5 112.5,402.5C 103.472,324.739 131.472,264.572 196.5,222C 257.558,189.011 318.224,189.677 378.5,224C 386.92,228.93 394.586,234.763 401.5,241.5 Z"/></g>
<g><path style="opacity:1" fill="#313c5d" d="M 687.5,182.5 C 687.833,182.5 688.167,182.5 688.5,182.5C 686.27,193.397 679.603,200.064 668.5,202.5C 666.184,209.298 663.017,215.631 659,221.5C 655.447,214.962 653.28,207.962 652.5,200.5C 643.881,198.706 638.381,193.706 636,185.5C 640.462,192.291 646.462,197.291 654,200.5C 655.358,206.6 657.025,212.6 659,218.5C 662.47,213.226 665.136,207.56 667,201.5C 677.866,199.465 684.7,193.132 687.5,182.5 Z"/></g>
<g><path style="opacity:1" fill="#374366" d="M 625.5,236.5 C 624.833,236.5 624.5,236.167 624.5,235.5C 624.611,226.778 626.444,218.445 630,210.5C 628.056,219.059 626.556,227.726 625.5,236.5 Z"/></g>
<g><path style="opacity:0.973" fill="#ed8679" d="M 607.5,234.5 C 607.833,234.5 608.167,234.5 608.5,234.5C 613.941,236.871 619.608,238.871 625.5,240.5C 626.46,243.902 626.46,247.235 625.5,250.5C 623.611,257.956 619.944,264.289 614.5,269.5C 608.833,265.833 604.167,261.167 600.5,255.5C 604.506,249.828 606.839,243.495 607.5,236.5C 607.5,235.833 607.5,235.167 607.5,234.5 Z"/></g>
<g><path style="opacity:1" fill="#ca5157" d="M 608.5,234.5 C 613.854,234.569 619.187,234.902 624.5,235.5C 624.5,236.167 624.833,236.5 625.5,236.5C 625.5,237.833 625.5,239.167 625.5,240.5C 619.608,238.871 613.941,236.871 608.5,234.5 Z"/></g>
<g><path style="opacity:0.935" fill="#cacaca" d="M -0.5,274.5 C -0.5,270.5 -0.5,266.5 -0.5,262.5C 2.4048,261.42 5.07147,259.92 7.5,258C 4.71037,255.79 3.87703,252.956 5,249.5C 6.83333,247.667 8.66667,245.833 10.5,244C 13.9563,242.877 16.7897,243.71 19,246.5C 20.858,244.225 22.358,241.725 23.5,239C 27.5,238.333 31.5,238.333 35.5,239C 36.642,241.725 38.142,244.225 40,246.5C 42.2103,243.71 45.0437,242.877 48.5,244C 50.3333,245.833 52.1667,247.667 54,249.5C 54.5746,253.376 54.0746,257.042 52.5,260.5C 58.1595,260.159 60.8262,262.826 60.5,268.5C 61.0915,274.075 58.5915,277.075 53,277.5C 54.178,280.617 54.5114,283.95 54,287.5C 52.1667,289.333 50.3333,291.167 48.5,293C 44.9503,293.511 41.6169,293.178 38.5,292C 38.0408,294.874 36.7075,297.208 34.5,299C 31.1667,299.667 27.8333,299.667 24.5,299C 21.9586,297.152 20.9586,294.652 21.5,291.5C 18.0422,293.075 14.3755,293.575 10.5,293C 8.66667,291.167 6.83333,289.333 5,287.5C 4.42541,283.624 4.92541,279.958 6.5,276.5C 3.81198,276.834 1.47865,276.168 -0.5,274.5 Z M 26.5,253.5 C 42.7277,255.293 47.561,263.626 41,278.5C 29.4389,286.889 20.7722,284.555 15,271.5C 14.1866,262.488 18.02,256.488 26.5,253.5 Z"/></g>
<g><path style="opacity:1" fill="#fefefe" d="M 197.5,242.5 C 265.331,241.501 333.331,241.167 401.5,241.5C 411.833,241.5 422.167,241.5 432.5,241.5C 432.5,253.5 432.5,265.5 432.5,277.5C 432.5,329.5 432.5,381.5 432.5,433.5C 432.5,445.833 432.5,458.167 432.5,470.5C 334.5,470.5 236.5,470.5 138.5,470.5C 138.5,447.833 138.5,425.167 138.5,402.5C 138.168,368.329 138.502,334.329 139.5,300.5C 158.993,301.497 178.66,301.83 198.5,301.5C 198.83,281.66 198.497,261.993 197.5,242.5 Z"/></g>
<g><path style="opacity:1" fill="#afd1e8" d="M 197.5,242.5 C 198.497,261.993 198.83,281.66 198.5,301.5C 178.66,301.83 158.993,301.497 139.5,300.5C 159.167,281.5 178.5,262.167 197.5,242.5 Z"/></g>
<g><path style="opacity:1" fill="#fdfefe" d="M 550.5,246.5 C 558.16,244.996 561.327,247.996 560,255.5C 559.167,257.667 557.667,259.167 555.5,260C 550.531,262.482 546.031,261.982 542,258.5C 541.333,256.833 541.333,255.167 542,253.5C 544.996,251.267 547.829,248.934 550.5,246.5 Z"/></g>
<g><path style="opacity:1" fill="#364265" d="M 688.5,248.5 C 688.5,249.167 688.5,249.833 688.5,250.5C 688.5,251.167 688.167,251.5 687.5,251.5C 686.305,251.134 685.639,250.301 685.5,249C 687.991,239.201 689.825,229.367 691,219.5C 691.379,229.014 690.212,238.348 687.5,247.5C 687.624,248.107 687.957,248.44 688.5,248.5 Z"/></g>
<g><path style="opacity:1" fill="#cf5052" d="M 688.5,248.5 C 696.42,247.647 703.753,249.314 710.5,253.5C 711.386,254.325 711.719,255.325 711.5,256.5C 711.167,257.167 710.833,257.833 710.5,258.5C 703.854,254.061 696.521,251.395 688.5,250.5C 688.5,249.833 688.5,249.167 688.5,248.5 Z"/></g>
<g><path style="opacity:0.999" fill="#ee867a" d="M 688.5,250.5 C 696.521,251.395 703.854,254.061 710.5,258.5C 709.167,261.167 707.833,263.833 706.5,266.5C 702.153,273.359 696.82,279.526 690.5,285C 680.243,293.281 670.243,301.781 660.5,310.5C 659.833,310.5 659.5,310.833 659.5,311.5C 658.508,311.328 657.842,311.662 657.5,312.5C 654.479,315.366 651.979,318.7 650,322.5C 646.922,326.085 643.422,329.085 639.5,331.5C 629.627,333.834 624.627,329.834 624.5,319.5C 630.548,318.459 634.881,315.125 637.5,309.5C 634.553,308.679 631.553,308.179 628.5,308C 627.273,306.413 627.606,305.079 629.5,304C 634.416,302.839 639.416,302.173 644.5,302C 645.056,301.617 645.389,301.117 645.5,300.5C 658.494,288.339 670.994,275.672 683,262.5C 685.072,259.029 686.572,255.362 687.5,251.5C 688.167,251.5 688.5,251.167 688.5,250.5 Z"/></g>
<g><path style="opacity:0.992" fill="#5f79b8" d="M 706.5,266.5 C 706.377,278.936 707.377,291.269 709.5,303.5C 693.463,307.713 677.13,310.047 660.5,310.5C 670.243,301.781 680.243,293.281 690.5,285C 696.82,279.526 702.153,273.359 706.5,266.5 Z"/></g>
<g><path style="opacity:1" fill="#323e60" d="M 671.5,266.5 C 673.379,266.393 673.712,266.893 672.5,268C 663.543,272.643 654.209,273.643 644.5,271C 654.106,272.633 663.106,271.133 671.5,266.5 Z"/></g>
<g><path style="opacity:0.967" fill="#ea8276" d="M 599.5,300.5 C 598.864,303.795 596.864,305.128 593.5,304.5C 581.627,302.441 576.96,295.441 579.5,283.5C 582.807,276.572 584.974,276.905 586,284.5C 587.636,280.861 589.97,277.861 593,275.5C 599.597,277.383 603.43,281.717 604.5,288.5C 602.764,292.537 601.097,296.537 599.5,300.5 Z"/></g>
<g><path style="opacity:0.986" fill="#f8e8d8" d="M 432.5,277.5 C 456.435,313.922 465.602,353.922 460,397.5C 458.262,409.452 455.428,421.119 451.5,432.5C 445.256,433.458 438.923,433.791 432.5,433.5C 432.5,381.5 432.5,329.5 432.5,277.5 Z"/></g>
<g><path style="opacity:0.995" fill="#5b76b4" d="M 709.5,304.5 C 711.18,306.726 710.847,308.393 708.5,309.5C 692.623,315.011 676.289,316.845 659.5,315C 658.619,314.292 657.953,313.458 657.5,312.5C 657.842,311.662 658.508,311.328 659.5,311.5C 676.637,312.109 693.304,309.775 709.5,304.5 Z"/></g>
<g><path style="opacity:1" fill="#303b5b" d="M 709.5,303.5 C 709.5,303.833 709.5,304.167 709.5,304.5C 693.304,309.775 676.637,312.109 659.5,311.5C 659.5,310.833 659.833,310.5 660.5,310.5C 677.13,310.047 693.463,307.713 709.5,303.5 Z"/></g>
<g><path style="opacity:1" fill="#2a324c" d="M 708.5,309.5 C 709.038,311.117 709.371,312.784 709.5,314.5C 709.38,315.586 708.713,316.253 707.5,316.5C 703.283,317.903 698.949,318.736 694.5,319C 684.088,319.615 673.755,319.615 663.5,319C 666.667,322.167 669.833,325.333 673,328.5C 677.699,337.62 675.199,344.12 665.5,348C 663.167,348.667 660.833,348.667 658.5,348C 651.678,343.008 645.345,337.508 639.5,331.5C 643.422,329.085 646.922,326.085 650,322.5C 651.979,318.7 654.479,315.366 657.5,312.5C 657.953,313.458 658.619,314.292 659.5,315C 676.289,316.845 692.623,315.011 708.5,309.5 Z"/></g>
<g><path style="opacity:0.993" fill="#8f97a7" d="M 709.5,314.5 C 713.318,325.075 715.818,336.075 717,347.5C 718.518,396.17 720.018,444.837 721.5,493.5C 719.167,493.5 716.833,493.5 714.5,493.5C 713.376,469.499 713.376,445.499 714.5,421.5C 712.977,400.539 712.144,379.539 712,358.5C 711.053,346.858 708.719,335.525 705,324.5C 706.764,334.752 708.431,345.086 710,355.5C 710.028,378.229 711.195,400.896 713.5,423.5C 712.599,446.824 712.265,470.157 712.5,493.5C 703.167,493.5 693.833,493.5 684.5,493.5C 673.085,452.01 666.085,409.676 663.5,366.5C 664.735,361.187 664.735,355.853 663.5,350.5C 662.505,355.792 662.172,361.125 662.5,366.5C 658.675,389.773 655.175,413.106 652,436.5C 651.096,455.597 651.596,474.597 653.5,493.5C 651.5,493.5 649.5,493.5 647.5,493.5C 646.538,472.174 646.371,450.841 647,429.5C 648.678,414.742 650.844,400.075 653.5,385.5C 650.732,393.154 648.899,401.154 648,409.5C 644.057,437.449 643.557,465.449 646.5,493.5C 636.167,493.5 625.833,493.5 615.5,493.5C 609.177,454.705 607.677,415.705 611,376.5C 613.924,357.047 617.424,337.714 621.5,318.5C 622.609,318.557 623.609,318.89 624.5,319.5C 624.627,329.834 629.627,333.834 639.5,331.5C 645.345,337.508 651.678,343.008 658.5,348C 660.833,348.667 663.167,348.667 665.5,348C 675.199,344.12 677.699,337.62 673,328.5C 669.833,325.333 666.667,322.167 663.5,319C 673.755,319.615 684.088,319.615 694.5,319C 698.949,318.736 703.283,317.903 707.5,316.5C 708.713,316.253 709.38,315.586 709.5,314.5 Z"/></g>
<g><path style="opacity:0.935" fill="#cacaca" d="M 523.5,342.5 C 527.514,342.334 531.514,342.501 535.5,343C 536.928,344.916 537.928,347.083 538.5,349.5C 539.167,349.833 539.833,350.167 540.5,350.5C 543.055,347.278 546.055,346.778 549.5,349C 554.993,353.279 555.993,358.446 552.5,364.5C 558.454,364.286 561.121,367.12 560.5,373C 561.195,378.639 558.695,381.472 553,381.5C 554.248,384.946 554.581,388.612 554,392.5C 551.888,395.284 549.221,397.284 546,398.5C 543.942,397.888 542.109,396.888 540.5,395.5C 539.833,395.833 539.167,396.167 538.5,396.5C 537.928,398.917 536.928,401.084 535.5,403C 531.833,403.667 528.167,403.667 524.5,403C 522.477,400.704 520.811,398.204 519.5,395.5C 516.828,398.456 513.828,398.956 510.5,397C 508.667,395.167 506.833,393.333 505,391.5C 503.959,388.364 504.793,385.864 507.5,384C 506.663,382.989 506.33,381.822 506.5,380.5C 500.253,381.751 497.92,379.251 499.5,373C 499.667,370.833 499.833,368.667 500,366.5C 502.984,365.736 505.484,364.236 507.5,362C 504.793,360.136 503.959,357.636 505,354.5C 507.167,352.333 509.333,350.167 511.5,348C 514.789,347.838 517.789,348.504 520.5,350C 521.273,347.403 522.273,344.903 523.5,342.5 Z M 524.5,358.5 C 541.263,358.079 547.096,365.745 542,381.5C 534.916,388.694 527.249,389.361 519,383.5C 512.253,373.248 514.086,364.915 524.5,358.5 Z"/></g>
<g><path style="opacity:1" fill="#373f57" d="M 663.5,366.5 C 663.167,366.5 662.833,366.5 662.5,366.5C 662.172,361.125 662.505,355.792 663.5,350.5C 664.735,355.853 664.735,361.187 663.5,366.5 Z"/></g>
<g><path style="opacity:1" fill="#454d64" d="M 653.5,385.5 C 654.207,379.005 655.707,372.671 658,366.5C 657.587,373.148 656.087,379.482 653.5,385.5 Z"/></g>
<g><path style="opacity:1" fill="#40475f" d="M 721.5,493.5 C 721.5,494.167 721.5,494.833 721.5,495.5C 709.167,495.5 696.833,495.5 684.5,495.5C 684.5,494.833 684.5,494.167 684.5,493.5C 693.833,493.5 703.167,493.5 712.5,493.5C 712.265,470.157 712.599,446.824 713.5,423.5C 711.195,400.896 710.028,378.229 710,355.5C 708.431,345.086 706.764,334.752 705,324.5C 708.719,335.525 711.053,346.858 712,358.5C 712.144,379.539 712.977,400.539 714.5,421.5C 713.376,445.499 713.376,469.499 714.5,493.5C 716.833,493.5 719.167,493.5 721.5,493.5 Z"/></g>
<g><path style="opacity:0.995" fill="#ed7338" d="M 112.5,402.5 C 121.167,402.5 129.833,402.5 138.5,402.5C 138.5,425.167 138.5,447.833 138.5,470.5C 118.833,470.5 99.1667,470.5 79.5,470.5C 79.0347,449.766 79.5347,429.1 81,408.5C 83.1005,405.533 85.9338,403.7 89.5,403C 97.1594,402.5 104.826,402.334 112.5,402.5 Z"/></g>
<g><path style="opacity:1" fill="#ed7338" d="M 451.5,432.5 C 468.837,432.333 486.17,432.5 503.5,433C 508.598,434.433 512.098,437.6 514,442.5C 514.5,533.499 514.667,624.499 514.5,715.5C 513.796,719.606 512.463,723.606 510.5,727.5C 493.122,646.265 475.622,564.932 458,483.5C 456.622,478.792 453.788,475.292 449.5,473C 444.012,470.984 438.345,470.151 432.5,470.5C 432.5,458.167 432.5,445.833 432.5,433.5C 438.923,433.791 445.256,433.458 451.5,432.5 Z"/></g>
<g><path style="opacity:1" fill="#feab6b" d="M 79.5,470.5 C 99.1667,470.5 118.833,470.5 138.5,470.5C 236.5,470.5 334.5,470.5 432.5,470.5C 438.345,470.151 444.012,470.984 449.5,473C 453.788,475.292 456.622,478.792 458,483.5C 475.622,564.932 493.122,646.265 510.5,727.5C 508.636,730.723 506.636,733.89 504.5,737C 501.185,739.414 497.518,741.081 493.5,742C 361.5,742.667 229.5,742.667 97.5,742C 87.6808,742.429 80.6808,738.262 76.5,729.5C 58.7745,648.763 41.4412,567.93 24.5,487C 25.4908,479.004 29.8241,473.671 37.5,471C 51.496,470.5 65.496,470.333 79.5,470.5 Z"/></g>
<g><path style="opacity:1" fill="#3e465e" d="M 653.5,385.5 C 650.844,400.075 648.678,414.742 647,429.5C 646.371,450.841 646.538,472.174 647.5,493.5C 649.5,493.5 651.5,493.5 653.5,493.5C 653.5,494.167 653.5,494.833 653.5,495.5C 640.833,495.5 628.167,495.5 615.5,495.5C 615.5,494.833 615.5,494.167 615.5,493.5C 625.833,493.5 636.167,493.5 646.5,493.5C 643.557,465.449 644.057,437.449 648,409.5C 648.899,401.154 650.732,393.154 653.5,385.5 Z"/></g>
<g><path style="opacity:0.989" fill="#9097a7" d="M 615.5,495.5 C 628.167,495.5 640.833,495.5 653.5,495.5C 653.5,498.167 653.5,500.833 653.5,503.5C 652.167,503.5 650.833,503.5 649.5,503.5C 640.167,503.5 630.833,503.5 621.5,503.5C 619.833,503.5 618.167,503.5 616.5,503.5C 616.167,500.833 615.833,498.167 615.5,495.5 Z"/></g>
<g><path style="opacity:0.984" fill="#9294a4" d="M 684.5,495.5 C 696.833,495.5 709.167,495.5 721.5,495.5C 722.036,498.698 721.369,501.365 719.5,503.5C 709.833,503.5 700.167,503.5 690.5,503.5C 689.022,503.762 687.689,503.429 686.5,502.5C 685.675,500.199 685.008,497.865 684.5,495.5 Z"/></g>
<g><path style="opacity:1" fill="#cf4e50" d="M 621.5,504.5 C 621.5,504.167 621.5,503.833 621.5,503.5C 630.833,503.5 640.167,503.5 649.5,503.5C 649.5,505.167 649.5,506.833 649.5,508.5C 639.79,509.385 630.457,508.051 621.5,504.5 Z"/></g>
<g><path style="opacity:1" fill="#cf4d4f" d="M 690.5,504.5 C 690.5,504.167 690.5,503.833 690.5,503.5C 700.167,503.5 709.833,503.5 719.5,503.5C 719.371,505.216 719.038,506.883 718.5,508.5C 708.81,509.315 699.477,507.982 690.5,504.5 Z"/></g>
<g><path style="opacity:0.97" fill="#ef867a" d="M 621.5,504.5 C 630.457,508.051 639.79,509.385 649.5,508.5C 649.125,514.872 648.459,521.205 647.5,527.5C 640.064,534.022 632.73,534.022 625.5,527.5C 624.167,519.833 622.833,512.167 621.5,504.5 Z"/></g>
<g><path style="opacity:0.976" fill="#ee8679" d="M 690.5,504.5 C 699.477,507.982 708.81,509.315 718.5,508.5C 718.443,514.851 718.11,521.185 717.5,527.5C 710.051,534.115 702.718,534.115 695.5,527.5C 693.71,519.883 692.043,512.216 690.5,504.5 Z"/></g>
<g><path style="opacity:0.916" fill="#f5f5f7" d="M 621.5,528.5 C 622.122,529.627 622.955,530.627 624,531.5C 624.781,532.944 624.614,534.277 623.5,535.5C 621.766,532.764 619.433,530.764 616.5,529.5C 617.748,527.31 619.414,526.977 621.5,528.5 Z"/></g>
<g><path style="opacity:0.979" fill="#29314a" d="M 625.5,527.5 C 632.73,534.022 640.064,534.022 647.5,527.5C 651.369,534.343 652.369,541.676 650.5,549.5C 633.5,549.5 616.5,549.5 599.5,549.5C 596.099,539.318 599.766,532.985 610.5,530.5C 612.61,533.619 615.277,535.952 618.5,537.5C 618.333,533.821 616.666,531.154 613.5,529.5C 614.5,529.5 615.5,529.5 616.5,529.5C 619.433,530.764 621.766,532.764 623.5,535.5C 624.614,534.277 624.781,532.944 624,531.5C 622.955,530.627 622.122,529.627 621.5,528.5C 622.833,528.167 624.167,527.833 625.5,527.5 Z"/></g>
<g><path style="opacity:0.887" fill="#e9eaed" d="M 691.5,528.5 C 692.989,530.645 693.989,532.978 694.5,535.5C 691.607,533.959 688.94,531.959 686.5,529.5C 687.607,527.153 689.274,526.82 691.5,528.5 Z"/></g>
<g><path style="opacity:0.98" fill="#29314a" d="M 695.5,527.5 C 702.718,534.115 710.051,534.115 717.5,527.5C 721.201,534.634 721.868,541.968 719.5,549.5C 702.833,549.5 686.167,549.5 669.5,549.5C 665.599,539.663 668.933,533.33 679.5,530.5C 682.046,532.564 684.379,534.897 686.5,537.5C 687.614,536.277 687.781,534.944 687,533.5C 685.624,532.295 684.458,530.962 683.5,529.5C 684.5,529.5 685.5,529.5 686.5,529.5C 688.94,531.959 691.607,533.959 694.5,535.5C 693.989,532.978 692.989,530.645 691.5,528.5C 692.833,528.167 694.167,527.833 695.5,527.5 Z"/></g>
<g><path style="opacity:0.927" fill="#eaebed" d="M 613.5,529.5 C 616.666,531.154 618.333,533.821 618.5,537.5C 615.277,535.952 612.61,533.619 610.5,530.5C 611.209,529.596 612.209,529.263 613.5,529.5 Z"/></g>
<g><path style="opacity:0.969" fill="#edeef0" d="M 679.5,530.5 C 680.568,529.566 681.901,529.232 683.5,529.5C 684.458,530.962 685.624,532.295 687,533.5C 687.781,534.944 687.614,536.277 686.5,537.5C 684.379,534.897 682.046,532.564 679.5,530.5 Z"/></g>
<g><path style="opacity:1" fill="#ececef" d="M 638.5,535.5 C 641.571,534.925 643.571,536.091 644.5,539C 641.859,544.632 639.192,544.799 636.5,539.5C 636.752,537.927 637.418,536.594 638.5,535.5 Z"/></g>
<g><path style="opacity:1" fill="#ececef" d="M 707.5,535.5 C 713.488,535.664 714.821,538.164 711.5,543C 705.95,542.635 704.617,540.135 707.5,535.5 Z"/></g>
<g><path style="opacity:0.988" fill="#fdfdfd" d="M 599.5,549.5 C 616.5,549.5 633.5,549.5 650.5,549.5C 656.833,549.5 663.167,549.5 669.5,549.5C 686.167,549.5 702.833,549.5 719.5,549.5C 728.839,549.334 738.173,549.5 747.5,550C 754.069,555.318 754.069,560.485 747.5,565.5C 745.5,565.5 743.5,565.5 741.5,565.5C 739.167,565.5 736.833,565.5 734.5,565.5C 731.833,565.5 729.167,565.5 726.5,565.5C 711.851,624.095 697.518,682.762 683.5,741.5C 676.5,741.5 669.5,741.5 662.5,741.5C 663.993,734.529 665.326,727.529 666.5,720.5C 668.759,711.297 671.092,702.131 673.5,693C 664.84,692.5 656.173,692.334 647.5,692.5C 645.5,692.5 643.5,692.5 641.5,692.5C 633.833,692.5 626.167,692.5 618.5,692.5C 603.167,692.5 587.833,692.5 572.5,692.5C 569.223,692.216 566.057,692.549 563,693.5C 559.165,709.507 555.332,725.507 551.5,741.5C 544.5,741.5 537.5,741.5 530.5,741.5C 532.01,733.128 533.677,724.795 535.5,716.5C 547.759,666.631 560.092,616.798 572.5,567C 563.374,566.874 559.874,562.374 562,553.5C 563.214,551.951 564.714,550.785 566.5,550C 577.495,549.5 588.495,549.333 599.5,549.5 Z M 616.5,566.5 C 645.835,566.333 675.169,566.5 704.5,567C 701.107,579.792 697.773,592.626 694.5,605.5C 671.843,606.5 649.176,606.833 626.5,606.5C 622.857,593.262 619.524,579.929 616.5,566.5 Z M 596.5,600.5 C 596.517,602.565 596.85,604.565 597.5,606.5C 596.167,606.5 594.833,606.5 593.5,606.5C 593.621,603.895 594.621,601.895 596.5,600.5 Z M 588.5,626.5 C 593.167,626.5 597.833,626.5 602.5,626.5C 606.549,642.076 610.215,657.743 613.5,673.5C 601.5,673.5 589.5,673.5 577.5,673.5C 581.009,657.799 584.675,642.132 588.5,626.5 Z M 631.5,626.5 C 650.845,626.167 670.178,626.5 689.5,627.5C 685.517,642.765 681.85,658.099 678.5,673.5C 666.5,673.5 654.5,673.5 642.5,673.5C 638.676,657.87 635.009,642.203 631.5,626.5 Z M 572.5,692.5 C 587.833,692.5 603.167,692.5 618.5,692.5C 620.878,701.055 622.878,709.722 624.5,718.5C 605.161,717.928 585.828,717.262 566.5,716.5C 568.5,708.5 570.5,700.5 572.5,692.5 Z M 647.5,692.5 C 656.173,692.334 664.84,692.5 673.5,693C 671.092,702.131 668.759,711.297 666.5,720.5C 662.202,719.8 657.869,719.467 653.5,719.5C 651.658,710.466 649.658,701.466 647.5,692.5 Z"/></g>
<g><path style="opacity:0.998" fill="#aed0e7" d="M 602.5,565.5 C 604.833,565.5 607.167,565.5 609.5,565.5C 613.305,579.054 616.638,592.72 619.5,606.5C 612.167,606.5 604.833,606.5 597.5,606.5C 596.85,604.565 596.517,602.565 596.5,600.5C 595.463,598.262 595.297,595.929 596,593.5C 598.8,584.299 600.967,574.966 602.5,565.5 Z"/></g>
<g><path style="opacity:0.995" fill="#aed0e7" d="M 734.5,565.5 C 736.833,565.5 739.167,565.5 741.5,565.5C 756.136,624.043 770.469,682.71 784.5,741.5C 786.781,741.923 788.448,741.256 789.5,739.5C 790.404,740.209 790.737,741.209 790.5,742.5C 783.159,742.666 775.826,742.5 768.5,742C 766.744,741.798 765.078,741.298 763.5,740.5C 762.179,736.216 761.012,731.883 760,727.5C 759.617,726.944 759.117,726.611 758.5,726.5C 756.307,715.395 753.64,704.395 750.5,693.5C 734.848,692.501 719.181,692.167 703.5,692.5C 704.723,685.934 706.39,679.601 708.5,673.5C 720.833,673.5 733.167,673.5 745.5,673.5C 742.15,658.099 738.483,642.765 734.5,627.5C 729.88,626.507 725.214,626.173 720.5,626.5C 721.503,620.151 722.67,613.818 724,607.5C 724.383,606.944 724.883,606.611 725.5,606.5C 726.978,606.762 728.311,606.429 729.5,605.5C 728.675,603.199 728.008,600.865 727.5,598.5C 729.041,587.335 731.375,576.335 734.5,565.5 Z"/></g>
<g><path style="opacity:0.934" fill="#81add5" d="M 741.5,565.5 C 743.5,565.5 745.5,565.5 747.5,565.5C 761.147,620.089 774.481,674.755 787.5,729.5C 788.482,732.763 789.149,736.097 789.5,739.5C 788.448,741.256 786.781,741.923 784.5,741.5C 770.469,682.71 756.136,624.043 741.5,565.5 Z"/></g>
<g><path style="opacity:0.987" fill="#85b0d8" d="M 602.5,565.5 C 600.967,574.966 598.8,584.299 596,593.5C 595.297,595.929 595.463,598.262 596.5,600.5C 594.621,601.895 593.621,603.895 593.5,606.5C 590.713,607.477 587.713,607.81 584.5,607.5C 587.346,594.115 590.513,580.782 594,567.5C 596.456,565.679 599.289,565.012 602.5,565.5 Z"/></g>
<g><path style="opacity:0.942" fill="#81add5" d="M 609.5,565.5 C 612.059,565.198 614.393,565.532 616.5,566.5C 619.524,579.929 622.857,593.262 626.5,606.5C 624.167,606.5 621.833,606.5 619.5,606.5C 616.638,592.72 613.305,579.054 609.5,565.5 Z"/></g>
<g><path style="opacity:0.977" fill="#84afd7" d="M 734.5,565.5 C 731.375,576.335 729.041,587.335 727.5,598.5C 726.232,600.905 725.565,603.572 725.5,606.5C 724.883,606.611 724.383,606.944 724,607.5C 722.67,613.818 721.503,620.151 720.5,626.5C 716.343,642.129 712.343,657.796 708.5,673.5C 706.39,679.601 704.723,685.934 703.5,692.5C 701.342,702.133 699.342,711.799 697.5,721.5C 696.883,721.611 696.383,721.944 696,722.5C 694.812,728.585 693.312,734.585 691.5,740.5C 688.914,741.48 686.247,741.813 683.5,741.5C 697.518,682.762 711.851,624.095 726.5,565.5C 729.167,565.5 731.833,565.5 734.5,565.5 Z"/></g>
<g><path style="opacity:0.958" fill="#83aed6" d="M 588.5,626.5 C 584.675,642.132 581.009,657.799 577.5,673.5C 574.5,673.5 571.5,673.5 568.5,673.5C 572.481,657.575 576.148,641.575 579.5,625.5C 582.713,625.19 585.713,625.523 588.5,626.5 Z"/></g>
<g><path style="opacity:0.995" fill="#aed0e7" d="M 630.5,626.5 C 628.473,626.338 626.473,626.505 624.5,627C 629.035,642.308 632.702,657.808 635.5,673.5C 628.167,673.5 620.833,673.5 613.5,673.5C 610.215,657.743 606.549,642.076 602.5,626.5C 611.833,625.167 621.167,625.167 630.5,626.5 Z"/></g>
<g><path style="opacity:0.935" fill="#80add6" d="M 630.5,626.5 C 630.833,626.5 631.167,626.5 631.5,626.5C 635.009,642.203 638.676,657.87 642.5,673.5C 640.167,673.5 637.833,673.5 635.5,673.5C 632.702,657.808 629.035,642.308 624.5,627C 626.473,626.505 628.473,626.338 630.5,626.5 Z"/></g>
<g><path style="opacity:0.977" fill="#84afd7" d="M 572.5,692.5 C 570.5,700.5 568.5,708.5 566.5,716.5C 563.408,724.535 561.408,732.868 560.5,741.5C 557.5,741.5 554.5,741.5 551.5,741.5C 555.332,725.507 559.165,709.507 563,693.5C 566.057,692.549 569.223,692.216 572.5,692.5 Z"/></g>
<g><path style="opacity:0.999" fill="#aed0e7" d="M 618.5,692.5 C 626.167,692.5 633.833,692.5 641.5,692.5C 644.694,708.942 648.361,725.275 652.5,741.5C 654.5,741.5 656.5,741.5 658.5,741.5C 649.682,742.493 640.682,742.827 631.5,742.5C 630.065,734.068 627.732,726.068 624.5,718.5C 622.878,709.722 620.878,701.055 618.5,692.5 Z"/></g>
<g><path style="opacity:0.964" fill="#83afd7" d="M 641.5,692.5 C 643.5,692.5 645.5,692.5 647.5,692.5C 649.658,701.466 651.658,710.466 653.5,719.5C 655.481,726.759 657.148,734.093 658.5,741.5C 656.5,741.5 654.5,741.5 652.5,741.5C 648.361,725.275 644.694,708.942 641.5,692.5 Z"/></g>
<g><path style="opacity:0.978" fill="#e5e5e5" d="M 514.5,715.5 C 521.51,715.668 528.51,716.001 535.5,716.5C 533.677,724.795 532.01,733.128 530.5,741.5C 537.5,741.5 544.5,741.5 551.5,741.5C 554.5,741.5 557.5,741.5 560.5,741.5C 561.408,732.868 563.408,724.535 566.5,716.5C 585.828,717.262 605.161,717.928 624.5,718.5C 627.732,726.068 630.065,734.068 631.5,742.5C 640.682,742.827 649.682,742.493 658.5,741.5C 657.148,734.093 655.481,726.759 653.5,719.5C 657.869,719.467 662.202,719.8 666.5,720.5C 665.326,727.529 663.993,734.529 662.5,741.5C 669.5,741.5 676.5,741.5 683.5,741.5C 686.247,741.813 688.914,741.48 691.5,740.5C 693.312,734.585 694.812,728.585 696,722.5C 696.383,721.944 696.883,721.611 697.5,721.5C 717.876,722.836 738.209,724.503 758.5,726.5C 759.117,726.611 759.617,726.944 760,727.5C 761.012,731.883 762.179,736.216 763.5,740.5C 765.078,741.298 766.744,741.798 768.5,742C 775.826,742.5 783.159,742.666 790.5,742.5C 790.737,741.209 790.404,740.209 789.5,739.5C 789.149,736.097 788.482,732.763 787.5,729.5C 803.408,730.482 818.741,733.815 833.5,739.5C 833.5,741.167 833.5,742.833 833.5,744.5C 822.645,748.908 811.312,751.742 799.5,753C 744.683,759.432 689.683,763.432 634.5,765C 595.008,766.319 555.675,767.486 516.5,768.5C 460.167,768.5 403.833,768.5 347.5,768.5C 267.892,767.308 188.225,763.808 108.5,758C 91.4393,756.512 74.4393,754.512 57.5,752C 49.3038,750.761 41.3038,748.761 33.5,746C 30.6059,745.131 29.4392,743.298 30,740.5C 34.917,736.97 40.417,734.803 46.5,734C 56.4163,731.893 66.4163,730.393 76.5,729.5C 80.6808,738.262 87.6808,742.429 97.5,742C 229.5,742.667 361.5,742.667 493.5,742C 497.518,741.081 501.185,739.414 504.5,737C 506.636,733.89 508.636,730.723 510.5,727.5C 512.463,723.606 513.796,719.606 514.5,715.5 Z"/></g>
</svg>
