<svg width="22" height="22" viewBox="0 0 22 22" fill="none" xmlns="http://www.w3.org/2000/svg">
<path d="M20.2254 0.403906C20.3543 0.537109 20.4531 0.6875 20.5219 0.846484C20.5906 1.00547 20.625 1.18164 20.625 1.3707V1.375V5.5C20.625 6.26055 20.0105 6.875 19.25 6.875C18.4895 6.875 17.875 6.26055 17.875 5.5V4.69648L13.3461 9.22109C12.8391 9.72813 12.0227 9.7625 11.477 9.29414L7.5625 5.93398L3.64375 9.29414C3.06797 9.78828 2.2 9.71953 1.70586 9.14375C1.21172 8.56797 1.28047 7.7 1.85625 7.20586L6.66875 3.08086C7.18437 2.63828 7.94492 2.63828 8.46055 3.08086L12.3062 6.37656L15.9285 2.75H15.125C14.3645 2.75 13.75 2.13555 13.75 1.375C13.75 0.614453 14.3645 0 15.125 0H19.25C19.6281 0 19.9719 0.154688 20.2211 0.399609L20.2254 0.403906ZM0 13.0625C0 11.9238 0.923828 11 2.0625 11H19.9375C21.0762 11 22 11.9238 22 13.0625V19.9375C22 21.0762 21.0762 22 19.9375 22H2.0625C0.923828 22 0 21.0762 0 19.9375V13.0625ZM2.0625 17.875V19.9375H4.125C4.125 18.7988 3.20117 17.875 2.0625 17.875ZM4.125 13.0625H2.0625V15.125C3.20117 15.125 4.125 14.2012 4.125 13.0625ZM19.9375 17.875C18.7988 17.875 17.875 18.7988 17.875 19.9375H19.9375V17.875ZM17.875 13.0625C17.875 14.2012 18.7988 15.125 19.9375 15.125V13.0625H17.875ZM13.75 16.5C13.75 15.7707 13.4603 15.0712 12.9445 14.5555C12.4288 14.0397 11.7293 13.75 11 13.75C10.2707 13.75 9.57118 14.0397 9.05546 14.5555C8.53973 15.0712 8.25 15.7707 8.25 16.5C8.25 17.2293 8.53973 17.9288 9.05546 18.4445C9.57118 18.9603 10.2707 19.25 11 19.25C11.7293 19.25 12.4288 18.9603 12.9445 18.4445C13.4603 17.9288 13.75 17.2293 13.75 16.5Z" fill="#1C52A8"/>
</svg>
