<svg width="25" height="21" viewBox="0 0 25 21" fill="none" xmlns="http://www.w3.org/2000/svg">
<path d="M1.875 0.5C0.839844 0.5 0 1.33984 0 2.375V18.625C0 19.6602 0.839844 20.5 1.875 20.5H5.625V17.375C5.625 16.3398 6.46484 15.5 7.5 15.5C8.53516 15.5 9.375 16.3398 9.375 17.375V20.5H13.125C14.1602 20.5 15 19.6602 15 18.625V2.375C15 1.33984 14.1602 0.5 13.125 0.5H1.875ZM2.5 9.875C2.5 9.53125 2.78125 9.25 3.125 9.25H4.375C4.71875 9.25 5 9.53125 5 9.875V11.125C5 11.4688 4.71875 11.75 4.375 11.75H3.125C2.78125 11.75 2.5 11.4688 2.5 11.125V9.875ZM6.875 9.25H8.125C8.46875 9.25 8.75 9.53125 8.75 9.875V11.125C8.75 11.4688 8.46875 11.75 8.125 11.75H6.875C6.53125 11.75 6.25 11.4688 6.25 11.125V9.875C6.25 9.53125 6.53125 9.25 6.875 9.25ZM10 9.875C10 9.53125 10.2812 9.25 10.625 9.25H11.875C12.2188 9.25 12.5 9.53125 12.5 9.875V11.125C12.5 11.4688 12.2188 11.75 11.875 11.75H10.625C10.2812 11.75 10 11.4688 10 11.125V9.875ZM3.125 4.25H4.375C4.71875 4.25 5 4.53125 5 4.875V6.125C5 6.46875 4.71875 6.75 4.375 6.75H3.125C2.78125 6.75 2.5 6.46875 2.5 6.125V4.875C2.5 4.53125 2.78125 4.25 3.125 4.25ZM6.25 4.875C6.25 4.53125 6.53125 4.25 6.875 4.25H8.125C8.46875 4.25 8.75 4.53125 8.75 4.875V6.125C8.75 6.46875 8.46875 6.75 8.125 6.75H6.875C6.53125 6.75 6.25 6.46875 6.25 6.125V4.875ZM10.625 4.25H11.875C12.2188 4.25 12.5 4.53125 12.5 4.875V6.125C12.5 6.46875 12.2188 6.75 11.875 6.75H10.625C10.2812 6.75 10 6.46875 10 6.125V4.875C10 4.53125 10.2812 4.25 10.625 4.25ZM17.5 0.5C16.8086 0.5 16.25 1.05859 16.25 1.75V20.5H18.75V8H24.375C24.7188 8 25 7.71875 25 7.375V2.375C25 2.03125 24.7188 1.75 24.375 1.75H18.75C18.75 1.05859 18.1914 0.5 17.5 0.5Z" fill="#1C52A8"/>
</svg>
