<svg width="100" height="100" viewBox="0 0 100 100" fill="none" xmlns="http://www.w3.org/2000/svg">
<path d="M57.4141 39.1504C57.4141 44.3296 53.2034 48.5147 48.022 48.5147C35.5734 48.057 35.5734 30.2439 48.022 29.7861C53.2165 29.7861 57.4141 33.9844 57.4141 39.1504Z" fill="#2557A7"/>
<path d="M52.7203 74.0952C52.799 70.9699 54.6505 69.5517 56.0424 67.9103C55.9505 61.7517 58.5767 59.2305 64.6826 59.2699C65.1553 58.8759 65.6017 58.4164 66.1007 57.9961C64.7482 54.6083 61.4392 52.2052 57.5656 52.2052H39.4711C34.4026 52.2052 30.2794 56.3285 30.2794 61.3972V68.9214C9.36178 51.9032 21.4817 17.6566 48.5183 17.6304C68.7794 17.3152 83.276 39.1264 75.1742 57.6547C75.8833 58.2062 76.3954 58.7709 77.0257 59.2962C77.0913 59.2962 77.1964 59.2962 77.3146 59.3093C86.7295 39.0476 70.9198 14.6364 48.5183 15.0041C31.1461 15.0041 17.004 29.1466 17.004 46.5193C16.6889 65.5992 35.0066 81.1336 53.797 77.575C53.193 76.6295 52.7203 75.4871 52.7203 74.0952Z" fill="#2557A7"/>
<path d="M79.8773 63.57C77.2315 61.4985 79.4434 58.1673 77.1615 55.8298C75.5375 54.1362 72.8357 54.8921 70.9458 54.3182C69.2238 53.3524 67.8659 50.945 65.486 51.001C63.1061 50.945 61.7482 53.3524 60.0262 54.3182C59.5363 54.5141 58.7523 54.5561 57.9963 54.5841C54.2445 54.5001 52.4666 56.2497 52.5646 60.0149C52.5786 61.6805 52.3126 62.4223 51.0947 63.584C48.3088 66.2014 48.2948 68.8328 51.0947 71.4502C51.5986 71.9821 52.1166 72.5419 52.2986 72.9758C52.4946 73.4657 52.5366 74.2495 52.5646 75.0054C52.4806 78.7565 54.2305 80.5341 57.9963 80.4361C59.6623 80.4221 60.4042 80.688 61.5662 81.9057C64.1841 84.6911 66.8159 84.7051 69.4338 81.9057C70.5818 80.688 71.3377 80.4361 73.0037 80.4501C76.7555 80.5341 78.5334 78.7845 78.4354 75.0193C78.4214 73.3537 78.6874 72.6119 79.9053 71.4502C82.6912 68.8328 82.7052 66.2014 79.9053 63.584L79.8773 63.57ZM72.6957 65.8095L63.6661 72.9058C63.3721 73.1298 62.9941 73.2418 62.6301 73.1998C62.2661 73.1578 61.9302 72.9618 61.6922 72.6819L58.0103 68.007C56.8904 66.5653 59.0743 64.8437 60.2082 66.2714L63.0221 69.8546L70.9598 63.626C72.4017 62.5063 74.1236 64.6898 72.6957 65.8235V65.8095Z" fill="#FF6600"/>
</svg>
