<svg width="36" height="36" viewBox="0 0 36 36" fill="none" xmlns="http://www.w3.org/2000/svg">
<g filter="url(#filter0_d_249_784)">
<path d="M26 12C29.3125 12 32 9.3125 32 6C32 2.6875 29.3125 0 26 0C22.6875 0 20 2.6875 20 6C20 6.25 20.0125 6.5 20.0438 6.74375L14.1625 9.68125C13.0875 8.6375 11.6188 8 10 8C6.6875 8 4 10.6875 4 14C4 17.3125 6.6875 20 10 20C11.6188 20 13.0875 19.3625 14.1625 18.3188L20.0438 21.2563C20.0125 21.5 20 21.7437 20 22C20 25.3125 22.6875 28 26 28C29.3125 28 32 25.3125 32 22C32 18.6875 29.3125 16 26 16C24.3813 16 22.9125 16.6375 21.8375 17.6812L15.9563 14.7437C15.9875 14.5 16 14.2563 16 14C16 13.7437 15.9875 13.5 15.9563 13.2563L21.8375 10.3188C22.9125 11.3625 24.3813 12 26 12Z" fill="black"/>
<path d="M20.2672 7.19106L20.5848 7.03239L20.5397 6.68017C20.5117 6.46201 20.5 6.23383 20.5 6C20.5 2.96364 22.9636 0.5 26 0.5C29.0364 0.5 31.5 2.96364 31.5 6C31.5 9.03636 29.0364 11.5 26 11.5C24.5151 11.5 23.1702 10.9158 22.1858 9.96002L21.9314 9.71297L21.6141 9.87144L15.7328 12.8089L15.4152 12.9676L15.4603 13.3198C15.4883 13.5382 15.5 13.7602 15.5 14C15.5 14.2398 15.4883 14.4618 15.4603 14.6802L15.4152 15.0324L15.7328 15.1911L21.6141 18.1286L21.9314 18.287L22.1858 18.04C23.1702 17.0842 24.5151 16.5 26 16.5C29.0364 16.5 31.5 18.9636 31.5 22C31.5 25.0364 29.0364 27.5 26 27.5C22.9636 27.5 20.5 25.0364 20.5 22C20.5 21.7602 20.5117 21.5382 20.5397 21.3198L20.5848 20.9676L20.2672 20.8089L14.3859 17.8714L14.0686 17.713L13.8142 17.96C12.8298 18.9158 11.4849 19.5 10 19.5C6.96364 19.5 4.5 17.0364 4.5 14C4.5 10.9636 6.96364 8.5 10 8.5C11.4849 8.5 12.8298 9.08416 13.8142 10.04L14.0686 10.287L14.3859 10.1286L20.2672 7.19106Z" stroke="black"/>
</g>
<defs>
<filter id="filter0_d_249_784" x="0" y="0" width="36" height="36" filterUnits="userSpaceOnUse" color-interpolation-filters="sRGB">
<feFlood flood-opacity="0" result="BackgroundImageFix"/>
<feColorMatrix in="SourceAlpha" type="matrix" values="0 0 0 0 0 0 0 0 0 0 0 0 0 0 0 0 0 0 127 0" result="hardAlpha"/>
<feOffset dy="4"/>
<feGaussianBlur stdDeviation="2"/>
<feComposite in2="hardAlpha" operator="out"/>
<feColorMatrix type="matrix" values="0 0 0 0 0 0 0 0 0 0 0 0 0 0 0 0 0 0 0.25 0"/>
<feBlend mode="normal" in2="BackgroundImageFix" result="effect1_dropShadow_249_784"/>
<feBlend mode="normal" in="SourceGraphic" in2="effect1_dropShadow_249_784" result="shape"/>
</filter>
</defs>
</svg>
