<svg width="89" height="89" viewBox="0 0 89 89" fill="none" xmlns="http://www.w3.org/2000/svg">
<path d="M66.9511 67.7121C60.6853 67.7121 54.676 65.223 50.2454 60.7923C45.8148 56.3617 43.3257 50.3525 43.3257 44.0866C43.3257 38.6562 41.1684 33.4482 37.3286 29.6083C33.4887 25.7684 28.2807 23.6112 22.8502 23.6112L21.2752 23.6112C15.8448 23.6112 10.6368 25.7684 6.79691 29.6083C2.95703 33.4482 0.799803 38.6562 0.799803 44.0866C0.799803 55.7829 5.44613 67.0001 13.7167 75.2707C21.9872 83.5412 33.2044 88.1875 44.9007 88.1875C45.9402 88.1875 46.9797 88.1875 48.0508 88.0615L48.7753 88.0615C49.7833 87.967 50.7756 87.8567 51.7678 87.6992L52.0671 87.6992C52.9806 87.5575 53.8784 87.3685 54.7761 87.1637C54.9966 87.1637 55.2171 87.0692 55.4377 87.0062C56.3984 86.77 57.3434 86.518 58.2727 86.2187L58.7137 86.077C59.5327 85.7934 60.3518 85.4942 61.1708 85.1792C61.344 85.1792 61.533 85.0374 61.722 84.9587C62.6198 84.5964 63.5018 84.1869 64.3681 83.7617L64.8563 83.5097C65.6229 83.1106 66.3789 82.7011 67.1244 82.2811C67.2661 82.1866 67.4079 82.1079 67.5497 82.0291C68.3844 81.5409 69.1247 81.0054 69.9752 80.4541L70.4792 80.0918C71.188 79.5878 71.8967 79.0523 72.5898 78.5168C72.6685 78.4381 72.763 78.3751 72.8575 78.2963C73.5978 77.6978 74.3223 77.052 75.0311 76.3905L75.4878 75.9495C76.1651 75.288 76.8423 74.6265 77.4724 73.9177C78.1339 73.2089 78.7639 72.4529 79.3624 71.6969L79.7719 71.1772C80.3547 70.4054 80.9374 69.6021 81.4887 68.8304L81.4887 68.6886C82.0032 67.9221 82.4915 67.1346 82.9535 66.3261L83.2842 65.759C83.7567 64.9085 84.2135 64.058 84.623 63.176L84.7805 62.8295C85.1585 62.0262 85.505 61.2545 85.8358 60.4039L85.9618 60.0574C83.7493 62.4778 81.0554 64.409 78.0529 65.7272C75.0503 67.0454 71.8053 67.7215 68.5262 67.7121L66.9511 67.7121ZM13.4001 44.0866C13.4001 42.5291 13.8619 41.0065 14.7273 39.7114C15.5926 38.4164 16.8225 37.407 18.2615 36.8109C19.7005 36.2149 21.284 36.0589 22.8116 36.3628C24.3392 36.6666 25.7424 37.4167 26.8438 38.518C27.9452 39.6194 28.6952 41.0226 28.9991 42.5503C29.3029 44.0779 29.147 45.6613 28.5509 47.1003C27.9549 48.5393 26.9455 49.7692 25.6504 50.6346C24.3554 51.4999 22.8328 51.9618 21.2752 51.9618C19.1866 51.9618 17.1835 51.1321 15.7066 49.6552C14.2298 48.1783 13.4001 46.1752 13.4001 44.0866Z" fill="#FF6600"/>
<path d="M26.0005 44.0864C26.0005 41.4768 23.885 39.3613 21.2754 39.3613C18.6658 39.3613 16.5503 41.4768 16.5503 44.0864C16.5503 46.696 18.6658 48.8115 21.2754 48.8115C23.885 48.8115 26.0005 46.696 26.0005 44.0864Z" fill="black"/>
<path d="M73.2515 44.0864C73.2515 41.4768 71.136 39.3613 68.5264 39.3613C65.9168 39.3613 63.8013 41.4768 63.8013 44.0864C63.8013 46.696 65.9168 48.8115 68.5264 48.8115C71.136 48.8115 73.2515 46.696 73.2515 44.0864Z" fill="black"/>
<path d="M3.71386 28.3368C5.92451 25.8652 8.63069 23.8866 11.6564 22.5298C14.6821 21.173 17.9595 20.4683 21.2755 20.4616L22.8505 20.4616C25.953 20.4616 29.0252 21.0727 31.8916 22.26C34.7579 23.4473 37.3624 25.1875 39.5562 27.3814C41.7501 29.5752 43.4903 32.1796 44.6776 35.046C45.8649 37.9124 46.476 40.9845 46.476 44.0871C46.476 49.5175 48.6332 54.7255 52.4731 58.5654C56.313 62.4053 61.521 64.5625 66.9514 64.5625L68.5264 64.5625C71.2153 64.5625 73.8778 64.0329 76.362 63.0039C78.8462 61.9749 81.1034 60.4667 83.0047 58.5654C86.8446 54.7255 89.0018 49.5175 89.0018 44.0871C88.9986 33.7825 85.387 23.8044 78.794 15.8849C72.201 7.96548 63.043 2.60479 52.9097 0.733463C42.7765 -1.13786 32.3078 0.598334 23.3212 5.64065C14.3345 10.683 7.39733 18.713 3.71386 28.3368ZM76.4016 44.0871C76.4016 45.6446 75.9397 47.1672 75.0744 48.4623C74.209 49.7573 72.9791 50.7667 71.5401 51.3628C70.1011 51.9588 68.5177 52.1148 66.9901 51.8109C65.4624 51.5071 64.0592 50.757 62.9578 49.6557C61.8565 48.5543 61.1064 47.1511 60.8026 45.6234C60.4987 44.0958 60.6547 42.5124 61.2507 41.0734C61.8468 39.6344 62.8561 38.4045 64.1512 37.5391C65.4463 36.6738 66.9689 36.2119 68.5264 36.2119C70.615 36.2119 72.6181 37.0416 74.095 38.5185C75.5719 39.9954 76.4016 41.9985 76.4016 44.0871Z" fill="#FF6600"/>
</svg>
