<svg width="40" height="40" viewBox="0 0 40 40" fill="none" xmlns="http://www.w3.org/2000/svg">
<path d="M29.7596 30.4667C26.9408 30.4667 24.2374 29.3467 22.2442 27.3531C20.251 25.3595 19.1312 22.6556 19.1312 19.8362C19.1312 17.3928 18.1607 15.0494 16.4332 13.3217C14.7058 11.5939 12.3629 10.6232 9.91987 10.6232L9.21131 10.6232C6.76832 10.6232 4.42538 11.5939 2.69793 13.3217C0.970473 15.0494 -9.74191e-07 17.3928 -8.67384e-07 19.8363C-6.3734e-07 25.0991 2.09025 30.1463 5.81093 33.8677C9.5316 37.589 14.5779 39.6797 19.8397 39.6797C20.3074 39.6797 20.775 39.6797 21.2569 39.623L21.5828 39.623C22.0363 39.5805 22.4827 39.5309 22.9291 39.46L23.0637 39.46C23.4747 39.3962 23.8785 39.3112 24.2824 39.219C24.3816 39.219 24.4808 39.1765 24.58 39.1482C25.0122 39.0419 25.4374 38.9285 25.8554 38.7938L26.0538 38.73C26.4223 38.6025 26.7907 38.4678 27.1592 38.3261C27.2371 38.3261 27.3222 38.2623 27.4072 38.2269C27.8111 38.0639 28.2079 37.8796 28.5976 37.6883L28.8172 37.5749C29.1621 37.3953 29.5022 37.2111 29.8376 37.0221C29.9013 36.9796 29.9651 36.9441 30.0289 36.9087C30.4044 36.689 30.7374 36.448 31.1201 36.2L31.3468 36.037C31.6656 35.8102 31.9845 35.5693 32.2963 35.3283C32.3317 35.2929 32.3742 35.2645 32.4167 35.2291C32.7497 34.9598 33.0757 34.6692 33.3945 34.3716L33.6 34.1731C33.9047 33.8755 34.2094 33.5778 34.4928 33.2589C34.7904 32.94 35.0738 32.5998 35.3431 32.2597L35.5273 32.0258C35.7895 31.6785 36.0516 31.3171 36.2996 30.9698L36.2996 30.9061C36.5311 30.5612 36.7508 30.2068 36.9586 29.843L37.1074 29.5879C37.32 29.2052 37.5255 28.8225 37.7097 28.4256L37.7805 28.2697C37.9506 27.9083 38.1065 27.561 38.2553 27.1783L38.312 27.0224C37.3166 28.1115 36.1047 28.9804 34.754 29.5736C33.4032 30.1667 31.9434 30.4709 30.4682 30.4667L29.7596 30.4667ZM5.6685 19.8363C5.6685 19.1354 5.87628 18.4503 6.26557 17.8676C6.65486 17.2849 7.20817 16.8307 7.85553 16.5625C8.5029 16.2943 9.21524 16.2241 9.90248 16.3609C10.5897 16.4976 11.221 16.8351 11.7165 17.3306C12.2119 17.8262 12.5493 18.4576 12.686 19.145C12.8227 19.8323 12.7526 20.5448 12.4844 21.1923C12.2163 21.8398 11.7622 22.3932 11.1796 22.7825C10.597 23.1719 9.91201 23.3797 9.21131 23.3797C8.2717 23.3797 7.37057 23.0064 6.70616 22.3419C6.04176 21.6773 5.6685 20.776 5.6685 19.8363Z" fill="#FF6600"/>
<path d="M11.3373 19.8368C11.3373 18.6626 10.3856 17.7107 9.21162 17.7107C8.03764 17.7107 7.08594 18.6626 7.08594 19.8368C7.08594 21.011 8.03764 21.9629 9.21162 21.9629C10.3856 21.9629 11.3373 21.011 11.3373 19.8368Z" fill="black"/>
<path d="M32.5932 19.8368C32.5932 18.6626 31.6415 17.7107 30.4675 17.7107C29.2935 17.7107 28.3418 18.6626 28.3418 19.8368C28.3418 21.011 29.2935 21.9629 30.4675 21.9629C31.6415 21.9629 32.5932 21.011 32.5932 19.8368Z" fill="black"/>
<path d="M1.31054 12.7508C2.30505 11.6387 3.52248 10.7484 4.88366 10.1379C6.24483 9.52743 7.71925 9.21036 9.21101 9.20734L9.91957 9.20734C11.3153 9.20734 12.6974 9.4823 13.9869 10.0165C15.2764 10.5508 16.4481 11.3338 17.435 12.3209C18.422 13.308 19.2048 14.4799 19.739 15.7697C20.2731 17.0594 20.548 18.4417 20.548 19.8378C20.548 22.2812 21.5185 24.6246 23.2459 26.3523C24.9734 28.0801 27.3163 29.0508 29.7593 29.0508L30.4679 29.0508C31.6775 29.0508 32.8753 28.8125 33.9929 28.3495C35.1105 27.8865 36.1259 27.2078 36.9813 26.3523C38.7087 24.6246 39.6792 22.2812 39.6792 19.8377C39.6777 15.2011 38.053 10.7114 35.087 7.14803C32.121 3.58464 28.001 1.17256 23.4424 0.330548C18.8837 -0.511467 14.1742 0.269746 10.1313 2.53856C6.08849 4.80738 2.96763 8.42055 1.31054 12.7508ZM34.0107 19.8377C34.0107 20.5386 33.8029 21.2237 33.4136 21.8064C33.0243 22.3891 32.471 22.8433 31.8237 23.1115C31.1763 23.3797 30.464 23.4499 29.7767 23.3131C29.0895 23.1764 28.4582 22.8389 27.9627 22.3434C27.4673 21.8478 27.1298 21.2164 26.9931 20.529C26.8564 19.8417 26.9266 19.1292 27.1948 18.4817C27.4629 17.8342 27.917 17.2808 28.4996 16.8915C29.0822 16.5021 29.7672 16.2943 30.4679 16.2943C31.4075 16.2943 32.3086 16.6676 32.973 17.3321C33.6374 17.9967 34.0107 18.898 34.0107 19.8377Z" fill="#FF6600"/>
</svg>
