<?xml version="1.0" encoding="UTF-8"?>
<svg xmlns="http://www.w3.org/2000/svg" xmlns:xlink="http://www.w3.org/1999/xlink" style="display:none">

  <!-- ==================== LOCATION/MAP ICONS ==================== -->

  <!-- Location Pin (10x13) - Most common custom icon -->
  <symbol id="icon-location-pin" viewBox="0 0 10 13">
    <path d="M5.61719 12.7079C6.95312 11.0736 10 7.11255 10 4.88765C10 2.18926 7.76042 0 5 0C2.23958 0 0 2.18926 0 4.88765C0 7.11255 3.04688 11.0736 4.38281 12.7079C4.70312 13.0974 5.29688 13.0974 5.61719 12.7079Z" fill="currentColor"/>
  </symbol>

  <!-- Location Pin with dot -->
  <symbol id="icon-location-dot" viewBox="0 0 10 13">
    <path d="M5.61719 12.7079C6.95312 11.0736 10 7.11255 10 4.88765C10 2.18926 7.76042 0 5 0C2.23958 0 0 2.18926 0 4.88765C0 7.11255 3.04688 11.0736 4.38281 12.7079C4.70312 13.0974 5.29688 13.0974 5.61719 12.7079ZM5 6.5C3.89583 6.5 3 5.60417 3 4.5C3 3.39583 3.89583 2.5 5 2.5C6.10417 2.5 7 3.39583 7 4.5C7 5.60417 6.10417 6.5 5 6.5Z" fill="currentColor"/>
  </symbol>

  <!-- ==================== BUILDING/COMPANY ICONS ==================== -->

  <!-- Building/Office (8x11) -->
  <symbol id="icon-building" viewBox="0 0 8 11">
    <path d="M1 0C0.447917 0 0 0.461914 0 1.03125V9.96875C0 10.5381 0.447917 11 1 11H3V9.28125C3 8.71191 3.44792 8.25 4 8.25C4.55208 8.25 5 8.71191 5 9.28125V11H7C7.55208 11 8 10.5381 8 9.96875V1.03125C8 0.461914 7.55208 0 7 0H1ZM2 2H3V3H2V2ZM5 2H6V3H5V2ZM2 4H3V5H2V4ZM5 4H6V5H5V4ZM2 6H3V7H2V6ZM5 6H6V7H5V6Z" fill="currentColor"/>
  </symbol>

  <!-- Building simple -->
  <symbol id="icon-building-simple" viewBox="0 0 8 11">
    <path d="M1 0C0.447917 0 0 0.461914 0 1.03125V9.96875C0 10.5381 0.447917 11 1 11H3V9.28125C3 8.71191 3.44792 8.25 4 8.25C4.55208 8.25 5 8.71191 5 9.28125V11H7C7.55208 11 8 10.5381 8 9.96875V1.03125C8 0.461914 7.55208 0 7 0H1Z" fill="currentColor"/>
  </symbol>

  <!-- ==================== USER/PEOPLE ICONS ==================== -->

  <!-- Add User/Connect (18x15) -->
  <symbol id="icon-add-user" viewBox="0 0 18 15">
    <path d="M6.3 5.88C7.78985 5.88 9 4.56875 9 2.94C9 1.31125 7.78985 0 6.3 0C4.81015 0 3.6 1.31125 3.6 2.94C3.6 4.56875 4.81015 5.88 6.3 5.88ZM8.82 6.72H8.46825C7.8183 7.04063 7.0812 7.245 6.3 7.245C5.5188 7.245 4.78485 7.04063 4.13175 6.72H3.78C1.6929 6.72 0 8.51719 0 10.7344V11.5781C0 12.3637 0.604125 13 1.35 13H11.25C11.9959 13 12.6 12.3637 12.6 11.5781V10.7344C12.6 8.51719 10.9071 6.72 8.82 6.72ZM13.5 5.6875V4.0625C13.5 3.77656 13.2984 3.5625 13.0275 3.5625H12.2725C12.0016 3.5625 11.8 3.77656 11.8 4.0625V5.6875H10.2725C10.0016 5.6875 9.8 5.90156 9.8 6.1875V6.9375C9.8 7.22344 10.0016 7.4375 10.2725 7.4375H11.8V9.0625C11.8 9.34844 12.0016 9.5625 12.2725 9.5625H13.0275C13.2984 9.5625 13.5 9.34844 13.5 9.0625V7.4375H15.1275C15.3984 7.4375 15.6 7.22344 15.6 6.9375V6.1875C15.6 5.90156 15.3984 5.6875 15.1275 5.6875H13.5Z" fill="currentColor"/>
  </symbol>

  <!-- User/Person single -->
  <symbol id="icon-user" viewBox="0 0 14 16">
    <path d="M7 8C9.20938 8 11 6.20937 11 4C11 1.79063 9.20938 0 7 0C4.79063 0 3 1.79063 3 4C3 6.20937 4.79063 8 7 8ZM9.8 9H9.27812C8.58437 9.31875 7.8125 9.5 7 9.5C6.1875 9.5 5.41875 9.31875 4.72188 9H4.2C1.88125 9 0 10.8813 0 13.2V14.5C0 15.3281 0.671875 16 1.5 16H12.5C13.3281 16 14 15.3281 14 14.5V13.2C14 10.8813 12.1187 9 9.8 9Z" fill="currentColor"/>
  </symbol>

  <!-- Users/People group -->
  <symbol id="icon-users" viewBox="0 0 20 16">
    <path d="M6 8C7.65685 8 9 6.65685 9 5C9 3.34315 7.65685 2 6 2C4.34315 2 3 3.34315 3 5C3 6.65685 4.34315 8 6 8ZM8.4 9H8.14C7.49 9.31 6.77 9.5 6 9.5C5.23 9.5 4.51 9.31 3.86 9H3.6C1.61 9 0 10.61 0 12.6V13.5C0 14.33 0.67 15 1.5 15H10.5C11.33 15 12 14.33 12 13.5V12.6C12 10.61 10.39 9 8.4 9ZM14 8C15.38 8 16.5 6.88 16.5 5.5C16.5 4.12 15.38 3 14 3C12.62 3 11.5 4.12 11.5 5.5C11.5 6.88 12.62 8 14 8ZM15.5 9H15.36C14.94 9.15 14.48 9.25 14 9.25C13.52 9.25 13.06 9.15 12.64 9H12.5C12.05 9 11.63 9.11 11.24 9.28C12.32 10.23 13 11.56 13 13.05V13.75C13 13.83 12.98 13.92 12.97 14H18.5C19.33 14 20 13.33 20 12.5C20 10.57 18.43 9 16.5 9H15.5Z" fill="currentColor"/>
  </symbol>

  <!-- Followers count -->
  <symbol id="icon-followers" viewBox="0 0 15 14">
    <path d="M5.25 7C6.7 7 7.875 5.825 7.875 4.375C7.875 2.925 6.7 1.75 5.25 1.75C3.8 1.75 2.625 2.925 2.625 4.375C2.625 5.825 3.8 7 5.25 7ZM7.35 7.875H7.1225C6.5625 8.1375 5.925 8.3125 5.25 8.3125C4.575 8.3125 3.9375 8.1375 3.3775 7.875H3.15C1.4 7.875 0 9.275 0 11.025V11.8125C0 12.5375 0.5875 13.125 1.3125 13.125H9.1875C9.9125 13.125 10.5 12.5375 10.5 11.8125V11.025C10.5 9.275 9.1 7.875 7.35 7.875ZM12.25 7C13.4925 7 14.5 5.9925 14.5 4.75C14.5 3.5075 13.4925 2.5 12.25 2.5C11.0075 2.5 10 3.5075 10 4.75C10 5.9925 11.0075 7 12.25 7ZM13.125 7.875H13.02C12.785 7.9625 12.525 8.03125 12.25 8.03125C11.975 8.03125 11.715 7.9625 11.48 7.875H11.375C10.9375 7.875 10.53 7.9975 10.1625 8.19375C10.9125 8.91875 11.375 9.89375 11.375 10.9813V11.5C11.375 11.5625 11.3625 11.625 11.355 11.6875H14.1875C14.9125 11.6875 15.5 11.1 15.5 10.375C15.5 8.99375 14.38 7.875 13 7.875H13.125Z" fill="currentColor"/>
  </symbol>

  <!-- ==================== TICKET/EVENT ICONS ==================== -->

  <!-- Ticket with notches (19x13) -->
  <symbol id="icon-ticket" viewBox="0 0 19 13">
    <path d="M2.11111 0C0.946701 0 0 0.946701 0 2.11111V4.22222C0 4.5125 0.244097 4.7401 0.517882 4.83576C1.13802 5.05017 1.58333 5.64062 1.58333 6.33333C1.58333 7.02604 1.13802 7.61649 0.517882 7.8309C0.244097 7.92656 0 8.15417 0 8.44444V10.5556C0 11.72 0.946701 12.6667 2.11111 12.6667H16.8889C18.0533 12.6667 19 11.72 19 10.5556V8.44444C19 8.15417 18.7559 7.92656 18.4821 7.8309C17.862 7.61649 17.4167 7.02604 17.4167 6.33333C17.4167 5.64062 17.862 5.05017 18.4821 4.83576C18.7559 4.7401 19 4.5125 19 4.22222V2.11111C19 0.946701 18.0533 0 16.8889 0H2.11111Z" fill="currentColor"/>
  </symbol>

  <!-- Event/Calendar -->
  <symbol id="icon-event" viewBox="0 0 20 27">
    <path d="M6.25 0C5.55937 0 5 0.503906 5 1.125V2.25H3.75C1.67969 2.25 0 3.76172 0 5.625V23.625C0 25.4883 1.67969 27 3.75 27H16.25C18.3203 27 20 25.4883 20 23.625V5.625C20 3.76172 18.3203 2.25 16.25 2.25H15V1.125C15 0.503906 14.4406 0 13.75 0C13.0594 0 12.5 0.503906 12.5 1.125V2.25H7.5V1.125C7.5 0.503906 6.94062 0 6.25 0ZM2.5 9H17.5V23.625C17.5 24.2461 16.9406 24.75 16.25 24.75H3.75C3.05937 24.75 2.5 24.2461 2.5 23.625V9Z" fill="currentColor"/>
  </symbol>

  <!-- Calendar check -->
  <symbol id="icon-calendar-check" viewBox="0 0 16 16">
    <path d="M5 0C4.44772 0 4 0.447715 4 1V2H2C0.895431 2 0 2.89543 0 4V14C0 15.1046 0.895431 16 2 16H14C15.1046 16 16 15.1046 16 14V4C16 2.89543 15.1046 2 14 2H12V1C12 0.447715 11.5523 0 11 0C10.4477 0 10 0.447715 10 1V2H6V1C6 0.447715 5.55228 0 5 0ZM2 6H14V14H2V6ZM11.3536 8.35355C11.5488 8.15829 11.5488 7.84171 11.3536 7.64645C11.1583 7.45118 10.8417 7.45118 10.6464 7.64645L7 11.2929L5.35355 9.64645C5.15829 9.45118 4.84171 9.45118 4.64645 9.64645C4.45118 9.84171 4.45118 10.1583 4.64645 10.3536L6.64645 12.3536C6.84171 12.5488 7.15829 12.5488 7.35355 12.3536L11.3536 8.35355Z" fill="currentColor"/>
  </symbol>

  <!-- ==================== SKILLS/BADGES ==================== -->

  <!-- Skills badge (11x11) -->
  <symbol id="icon-skills" viewBox="0 0 11 11">
    <path d="M6.77617 0.333008C6.65371 0.126758 6.42812 0 6.1875 0C5.94688 0 5.72129 0.126758 5.59883 0.333008L3.53633 3.77051C3.40957 3.9832 3.40527 4.24746 3.52773 4.4623C3.6502 4.67715 3.87793 4.81035 4.125 4.81035H8.25C8.49707 4.81035 8.72695 4.67715 8.84727 4.4623C8.96758 4.24746 8.96543 3.9832 8.83867 3.77051L6.77617 0.333008ZM5.5 5.5C2.46289 5.5 0 7.68652 0 10.3906C0 10.7275 0.280273 11 0.625 11H10.375C10.7197 11 11 10.7275 11 10.3906C11 7.68652 8.53711 5.5 5.5 5.5Z" fill="currentColor"/>
  </symbol>

  <!-- Star rating -->
  <symbol id="icon-star" viewBox="0 0 12 12">
    <path d="M6 0L7.34708 4.1459H11.7063L8.17963 6.7082L9.52671 10.8541L6 8.2918L2.47329 10.8541L3.82037 6.7082L0.293661 4.1459H4.65292L6 0Z" fill="currentColor"/>
  </symbol>

  <!-- Badge/Certificate -->
  <symbol id="icon-badge" viewBox="0 0 16 20">
    <path d="M8 0L10 4L14 4.5L11 8L12 12L8 10L4 12L5 8L2 4.5L6 4L8 0ZM6 14L8 13L10 14V20L8 18L6 20V14Z" fill="currentColor"/>
  </symbol>

  <!-- ==================== COMMUNICATION ICONS ==================== -->

  <!-- Chat bubble -->
  <symbol id="icon-chat" viewBox="0 0 16 16">
    <path d="M8 0C3.58172 0 0 3.13401 0 7C0 8.94015 0.86656 10.6838 2.2848 11.9605C2.1136 13.0355 1.52 14.2133 0.704 15.0293C0.512 15.2213 0.4576 15.512 0.5696 15.7613C0.6816 16.0107 0.928 16.168 1.2 16.168C3.312 16.168 5.0336 15.208 6.0032 14.3013C6.6528 14.432 7.3184 14.5 8 14.5C12.4183 14.5 16 11.366 16 7.5C16 3.63401 12.4183 0 8 0Z" fill="currentColor"/>
  </symbol>

  <!-- Message/Envelope -->
  <symbol id="icon-message" viewBox="0 0 16 12">
    <path d="M0 2C0 0.895 0.895 0 2 0H14C15.105 0 16 0.895 16 2V10C16 11.105 15.105 12 14 12H2C0.895 12 0 11.105 0 10V2ZM2.118 1.5L8 5.5L13.882 1.5H2.118ZM1.5 2.618V10C1.5 10.276 1.724 10.5 2 10.5H14C14.276 10.5 14.5 10.276 14.5 10V2.618L8.236 6.882C8.094 6.978 7.906 6.978 7.764 6.882L1.5 2.618Z" fill="currentColor"/>
  </symbol>

  <!-- ==================== STATUS ICONS ==================== -->

  <!-- Smiley/Available -->
  <symbol id="icon-smiley" viewBox="0 0 18 18">
    <path d="M9 0C4.02943 0 0 4.02943 0 9C0 13.9706 4.02943 18 9 18C13.9706 18 18 13.9706 18 9C18 4.02943 13.9706 0 9 0ZM5.4 7.2C5.4 6.53726 5.93726 6 6.6 6C7.26274 6 7.8 6.53726 7.8 7.2C7.8 7.86274 7.26274 8.4 6.6 8.4C5.93726 8.4 5.4 7.86274 5.4 7.2ZM12.6 12.6C11.5941 13.3941 10.3412 13.8 9 13.8C7.65882 13.8 6.40588 13.3941 5.4 12.6C5.04 12.3176 4.97647 11.7882 5.25882 11.4282C5.54118 11.0682 6.07059 11.0047 6.43059 11.2871C7.12941 11.8306 8.02353 12.15 9 12.15C9.97647 12.15 10.8706 11.8306 11.5694 11.2871C11.9294 11.0047 12.4588 11.0682 12.7412 11.4282C13.0235 11.7882 12.96 12.3176 12.6 12.6ZM11.4 8.4C10.7373 8.4 10.2 7.86274 10.2 7.2C10.2 6.53726 10.7373 6 11.4 6C12.0627 6 12.6 6.53726 12.6 7.2C12.6 7.86274 12.0627 8.4 11.4 8.4Z" fill="currentColor"/>
  </symbol>

  <!-- Check/Success -->
  <symbol id="icon-check" viewBox="0 0 12 12">
    <path d="M10.28 2.28L4.5 8.06L1.72 5.28C1.43 4.99 0.95 4.99 0.66 5.28C0.37 5.57 0.37 6.05 0.66 6.34L4 9.68C4.29 9.97 4.77 9.97 5.06 9.68L11.34 3.34C11.63 3.05 11.63 2.57 11.34 2.28C11.05 1.99 10.57 1.99 10.28 2.28Z" fill="currentColor"/>
  </symbol>

  <!-- Info circle -->
  <symbol id="icon-info" viewBox="0 0 12 12">
    <path d="M6 0C2.68629 0 0 2.68629 0 6C0 9.31371 2.68629 12 6 12C9.31371 12 12 9.31371 12 6C12 2.68629 9.31371 0 6 0ZM6 2.5C6.41421 2.5 6.75 2.83579 6.75 3.25C6.75 3.66421 6.41421 4 6 4C5.58579 4 5.25 3.66421 5.25 3.25C5.25 2.83579 5.58579 2.5 6 2.5ZM7 9H5V5H7V9Z" fill="currentColor"/>
  </symbol>

  <!-- ==================== FORMAT/TYPE ICONS ==================== -->

  <!-- Globe/Online -->
  <symbol id="icon-globe" viewBox="0 0 16 16">
    <path d="M8 0C3.58 0 0 3.58 0 8C0 12.42 3.58 16 8 16C12.42 16 16 12.42 16 8C16 3.58 12.42 0 8 0ZM13.53 5H11.25C10.93 3.56 10.43 2.25 9.77 1.19C11.36 1.8 12.65 3.22 13.53 5ZM8 2C8.83 3.02 9.53 4.37 9.89 6H6.11C6.47 4.37 7.17 3.02 8 2ZM2.26 10C2.1 9.36 2 8.69 2 8C2 7.31 2.1 6.64 2.26 6H4.89C4.84 6.65 4.8 7.32 4.8 8C4.8 8.68 4.84 9.35 4.89 10H2.26ZM2.47 11H4.75C5.07 12.44 5.57 13.75 6.23 14.81C4.64 14.2 3.35 12.78 2.47 11ZM4.75 5H2.47C3.35 3.22 4.64 1.8 6.23 1.19C5.57 2.25 5.07 3.56 4.75 5ZM8 14C7.17 12.98 6.47 11.63 6.11 10H9.89C9.53 11.63 8.83 12.98 8 14ZM10.2 8C10.2 7.32 10.16 6.65 10.11 6H13.74C13.9 6.64 14 7.31 14 8C14 8.69 13.9 9.36 13.74 10H10.11C10.16 9.35 10.2 8.68 10.2 8ZM9.77 14.81C10.43 13.75 10.93 12.44 11.25 11H13.53C12.65 12.78 11.36 14.2 9.77 14.81Z" fill="currentColor"/>
  </symbol>

  <!-- Video/Camera -->
  <symbol id="icon-video" viewBox="0 0 17 12">
    <path d="M10 0H2C0.9 0 0 0.9 0 2V10C0 11.1 0.9 12 2 12H10C11.1 12 12 11.1 12 10V7.5L17 12V0L12 4.5V2C12 0.9 11.1 0 10 0Z" fill="currentColor"/>
  </symbol>

  <!-- Hybrid/Split -->
  <symbol id="icon-hybrid" viewBox="0 0 20 13">
    <path d="M2 0C0.9 0 0 0.9 0 2V11C0 12.1 0.9 13 2 13H8V0H2ZM10 0V13H18C19.1 13 20 12.1 20 11V2C20 0.9 19.1 0 18 0H10ZM4 4L6 6.5L4 9H5.5L7 6.5L5.5 4H4ZM14 4L15.5 6.5L14 9H15.5L17 6.5L15.5 4H14Z" fill="currentColor"/>
  </symbol>

  <!-- In-person/Venue -->
  <symbol id="icon-venue" viewBox="0 0 16 16">
    <path d="M8 0L0 4V6H16V4L8 0ZM2 7V13H4V7H2ZM6 7V13H8V7H6ZM10 7V13H12V7H10ZM0 14V16H16V14H0Z" fill="currentColor"/>
  </symbol>

  <!-- ==================== NAVIGATION ICONS ==================== -->

  <!-- Chevron Right -->
  <symbol id="icon-chevron-right" viewBox="0 0 24 24">
    <path d="M10 6L8.59 7.41 13.17 12l-4.58 4.59L10 18l6-6-6-6z" fill="currentColor"/>
  </symbol>

  <!-- Chevron Left -->
  <symbol id="icon-chevron-left" viewBox="0 0 24 24">
    <path d="M15.41 7.41L14 6l-6 6 6 6 1.41-1.41L10.83 12z" fill="currentColor"/>
  </symbol>

  <!-- Chevron Down -->
  <symbol id="icon-chevron-down" viewBox="0 0 24 24">
    <path d="M7.41 8.59L12 13.17l4.59-4.58L18 10l-6 6-6-6 1.41-1.41z" fill="currentColor"/>
  </symbol>

  <!-- Chevron Up -->
  <symbol id="icon-chevron-up" viewBox="0 0 24 24">
    <path d="M7.41 15.41L12 10.83l4.59 4.58L18 14l-6-6-6 6 1.41 1.41z" fill="currentColor"/>
  </symbol>

  <!-- Arrow Left -->
  <symbol id="icon-arrow-left" viewBox="0 0 16 16">
    <path d="M15 7H3.83l4.88-4.88c.39-.39.39-1.03 0-1.42-.39-.39-1.02-.39-1.41 0l-6.59 6.59c-.39.39-.39 1.02 0 1.41l6.59 6.59c.39.39 1.02.39 1.41 0 .39-.39.39-1.02 0-1.41L3.83 9H15c.55 0 1-.45 1-1s-.45-1-1-1z" fill="currentColor"/>
  </symbol>

  <!-- ==================== ACTION ICONS ==================== -->

  <!-- Share -->
  <symbol id="icon-share" viewBox="0 0 16 16">
    <path d="M13 0C11.3431 0 10 1.34315 10 3C10 3.12548 10.0077 3.24917 10.0227 3.37061L5.08261 5.84066C4.54305 5.32015 3.80857 5 3 5C1.34315 5 0 6.34315 0 8C0 9.65685 1.34315 11 3 11C3.80857 11 4.54305 10.6798 5.08261 10.1593L10.0227 12.6294C10.0077 12.7508 10 12.8745 10 13C10 14.6569 11.3431 16 13 16C14.6569 16 16 14.6569 16 13C16 11.3431 14.6569 10 13 10C12.1914 10 11.4569 10.3202 10.9174 10.8407L5.97733 8.37061C5.99229 8.24917 6 8.12548 6 8C6 7.87452 5.99229 7.75083 5.97733 7.62939L10.9174 5.15934C11.4569 5.67985 12.1914 6 13 6C14.6569 6 16 4.65685 16 3C16 1.34315 14.6569 0 13 0Z" fill="currentColor"/>
  </symbol>

  <!-- Heart/Like -->
  <symbol id="icon-heart" viewBox="0 0 16 14">
    <path d="M8 14L6.84 12.92C2.72 9.1 0 6.6 0 3.5C0 1 2 0 4 0C5.32 0 6.68 0.84 8 2.16C9.32 0.84 10.68 0 12 0C14 0 16 1 16 3.5C16 6.6 13.28 9.1 9.16 12.92L8 14Z" fill="currentColor"/>
  </symbol>

  <!-- Bookmark -->
  <symbol id="icon-bookmark" viewBox="0 0 12 16">
    <path d="M0 2C0 0.9 0.9 0 2 0H10C11.1 0 12 0.9 12 2V16L6 12L0 16V2Z" fill="currentColor"/>
  </symbol>

  <!-- Plus/Add -->
  <symbol id="icon-plus" viewBox="0 0 12 12">
    <path d="M11 5H7V1C7 0.45 6.55 0 6 0C5.45 0 5 0.45 5 1V5H1C0.45 5 0 5.45 0 6C0 6.55 0.45 7 1 7H5V11C5 11.55 5.45 12 6 12C6.55 12 7 11.55 7 11V7H11C11.55 7 12 6.55 12 6C12 5.45 11.55 5 11 5Z" fill="currentColor"/>
  </symbol>

  <!-- Close/X -->
  <symbol id="icon-close" viewBox="0 0 12 12">
    <path d="M11.41 1.41L10.59 0.59L6 5.17L1.41 0.59L0.59 1.41L5.17 6L0.59 10.59L1.41 11.41L6 6.83L10.59 11.41L11.41 10.59L6.83 6L11.41 1.41Z" fill="currentColor"/>
  </symbol>

  <!-- Edit/Pen -->
  <symbol id="icon-edit" viewBox="0 0 14 14">
    <path d="M0 11.08V14H2.92L11.46 5.46L8.54 2.54L0 11.08ZM13.61 3.31C13.88 3.04 13.88 2.61 13.61 2.34L11.66 0.39C11.39 0.12 10.96 0.12 10.69 0.39L9.25 1.83L12.17 4.75L13.61 3.31Z" fill="currentColor"/>
  </symbol>

  <!-- Delete/Trash -->
  <symbol id="icon-trash" viewBox="0 0 12 14">
    <path d="M1 12.5C1 13.33 1.67 14 2.5 14H9.5C10.33 14 11 13.33 11 12.5V3H1V12.5ZM12 1H9L8 0H4L3 1H0V2H12V1Z" fill="currentColor"/>
  </symbol>

  <!-- Search -->
  <symbol id="icon-search" viewBox="0 0 14 14">
    <path d="M9.5 0C6.46 0 4 2.46 4 5.5C4 6.74 4.4 7.88 5.09 8.79L0 13.88L1.12 15L6.21 9.91C7.12 10.6 8.26 11 9.5 11C12.54 11 15 8.54 15 5.5C15 2.46 12.54 0 9.5 0ZM9.5 9C7.57 9 6 7.43 6 5.5C6 3.57 7.57 2 9.5 2C11.43 2 13 3.57 13 5.5C13 7.43 11.43 9 9.5 9Z" fill="currentColor"/>
  </symbol>

  <!-- Filter -->
  <symbol id="icon-filter" viewBox="0 0 14 12">
    <path d="M5.5 12H8.5V10H5.5V12ZM0 0V2H14V0H0ZM2.5 7H11.5V5H2.5V7Z" fill="currentColor"/>
  </symbol>

  <!-- ==================== MISC ICONS ==================== -->

  <!-- Briefcase/Work -->
  <symbol id="icon-briefcase" viewBox="0 0 16 14">
    <path d="M14 3H11V1C11 0.45 10.55 0 10 0H6C5.45 0 5 0.45 5 1V3H2C0.9 3 0 3.9 0 5V12C0 13.1 0.9 14 2 14H14C15.1 14 16 13.1 16 12V5C16 3.9 15.1 3 14 3ZM6 1H10V3H6V1Z" fill="currentColor"/>
  </symbol>

  <!-- Link/Chain -->
  <symbol id="icon-link" viewBox="0 0 16 8">
    <path d="M1.9 4C1.9 2.84 2.84 1.9 4 1.9H7V0H4C1.79 0 0 1.79 0 4C0 6.21 1.79 8 4 8H7V6.1H4C2.84 6.1 1.9 5.16 1.9 4ZM5 5H11V3H5V5ZM12 0H9V1.9H12C13.16 1.9 14.1 2.84 14.1 4C14.1 5.16 13.16 6.1 12 6.1H9V8H12C14.21 8 16 6.21 16 4C16 1.79 14.21 0 12 0Z" fill="currentColor"/>
  </symbol>

  <!-- External link -->
  <symbol id="icon-external" viewBox="0 0 12 12">
    <path d="M10.667 10.667H1.333V1.333H6V0H1.333C0.6 0 0 0.6 0 1.333V10.667C0 11.4 0.6 12 1.333 12H10.667C11.4 12 12 11.4 12 10.667V6H10.667V10.667ZM7.333 0V1.333H9.727L3.173 7.887L4.113 8.827L10.667 2.273V4.667H12V0H7.333Z" fill="currentColor"/>
  </symbol>

  <!-- Clock/Time -->
  <symbol id="icon-clock" viewBox="0 0 14 14">
    <path d="M7 0C3.13 0 0 3.13 0 7C0 10.87 3.13 14 7 14C10.87 14 14 10.87 14 7C14 3.13 10.87 0 7 0ZM7 12.6C3.91 12.6 1.4 10.09 1.4 7C1.4 3.91 3.91 1.4 7 1.4C10.09 1.4 12.6 3.91 12.6 7C12.6 10.09 10.09 12.6 7 12.6ZM7.35 3.5H6.3V7.7L9.94 9.87L10.5 8.96L7.35 7.11V3.5Z" fill="currentColor"/>
  </symbol>

  <!-- Bell/Notification -->
  <symbol id="icon-bell" viewBox="0 0 14 16">
    <path d="M7 16C7.83 16 8.5 15.33 8.5 14.5H5.5C5.5 15.33 6.17 16 7 16ZM13 11V6.5C13 4.08 11.13 2.08 8.75 1.59V1C8.75 0.31 8.19 0 7.5 0H6.5C5.81 0 5.25 0.31 5.25 1V1.59C2.87 2.08 1 4.08 1 6.5V11L0 12V13H14V12L13 11Z" fill="currentColor"/>
  </symbol>

  <!-- Copy/Duplicate -->
  <symbol id="icon-copy" viewBox="0 0 14 16">
    <path d="M10 0H2C0.9 0 0 0.9 0 2V12H2V2H10V0ZM12 4H6C4.9 4 4 4.9 4 6V14C4 15.1 4.9 16 6 16H12C13.1 16 14 15.1 14 14V6C14 4.9 13.1 4 12 4ZM12 14H6V6H12V14Z" fill="currentColor"/>
  </symbol>

  <!-- Download -->
  <symbol id="icon-download" viewBox="0 0 14 14">
    <path d="M14 10V12C14 13.1 13.1 14 12 14H2C0.9 14 0 13.1 0 12V10H2V12H12V10H14ZM7 11L11 7H8V0H6V7H3L7 11Z" fill="currentColor"/>
  </symbol>

  <!-- Upload -->
  <symbol id="icon-upload" viewBox="0 0 14 14">
    <path d="M14 10V12C14 13.1 13.1 14 12 14H2C0.9 14 0 13.1 0 12V10H2V12H12V10H14ZM3 4L7 0L11 4H8V11H6V4H3Z" fill="currentColor"/>
  </symbol>

  <!-- Eye/View -->
  <symbol id="icon-eye" viewBox="0 0 16 10">
    <path d="M8 0C4.36 0 1.26 2.28 0 5.5C1.26 8.72 4.36 11 8 11C11.64 11 14.74 8.72 16 5.5C14.74 2.28 11.64 0 8 0ZM8 9.17C5.97 9.17 4.33 7.53 4.33 5.5C4.33 3.47 5.97 1.83 8 1.83C10.03 1.83 11.67 3.47 11.67 5.5C11.67 7.53 10.03 9.17 8 9.17ZM8 3.3C6.78 3.3 5.8 4.28 5.8 5.5C5.8 6.72 6.78 7.7 8 7.7C9.22 7.7 10.2 6.72 10.2 5.5C10.2 4.28 9.22 3.3 8 3.3Z" fill="currentColor"/>
  </symbol>

  <!-- Fire/Trending -->
  <symbol id="icon-fire" viewBox="0 0 12 16">
    <path d="M6.76 0.01C6.66 -0.03 6.55 0.01 6.5 0.1C6.37 0.29 4.02 3.87 4.02 6.3C4.02 7 4.32 7.69 4.93 8.14C4.27 7.14 4.19 5.86 4.56 4.8C4.59 4.7 4.53 4.59 4.44 4.54C4.34 4.49 4.23 4.51 4.16 4.59C2.37 6.7 1 9.81 1 12C1 14.21 2.79 16 5 16H7C9.21 16 11 14.21 11 12C11 5.84 7.06 0.22 6.76 0.01Z" fill="currentColor"/>
  </symbol>

  <!-- Lightning/Bolt -->
  <symbol id="icon-bolt" viewBox="0 0 10 16">
    <path d="M10 6H6.21L8 0H2L0 10H3.79L2 16L10 6Z" fill="currentColor"/>
  </symbol>

  <!-- Shield/Security -->
  <symbol id="icon-shield" viewBox="0 0 14 16">
    <path d="M7 0L0 3V7C0 11.55 2.99 15.74 7 16C11.01 15.74 14 11.55 14 7V3L7 0ZM7 7.99H12C11.47 11.11 9.54 13.79 7 14.47V8H2V4.3L7 2.19V7.99Z" fill="currentColor"/>
  </symbol>

  <!-- Verified/Check Badge -->
  <symbol id="icon-verified" viewBox="0 0 16 16">
    <path d="M8 0L6.4 1.6H4L3.2 4L0.8 4.8L0 7.2V9.6L1.6 11.2V13.6L4 14.4L5.6 16H8L10.4 14.4L12.8 13.6V11.2L14.4 9.6V7.2L13.6 4.8L12 4L11.2 1.6H8.8L8 0ZM11.2 5.6L7.2 10.4L4.8 8L6 6.8L7.2 8L10 4.8L11.2 5.6Z" fill="currentColor"/>
  </symbol>

  <!-- Directions/Turn -->
  <symbol id="icon-directions" viewBox="0 0 14 14">
    <path d="M12.6 5.6L8.4 1.4C7.8 0.8 6.8 0.8 6.2 1.4L2 5.6C1.4 6.2 1.4 7.2 2 7.8L6.2 12C6.8 12.6 7.8 12.6 8.4 12L12.6 7.8C13.2 7.2 13.2 6.2 12.6 5.6ZM7 9.8V7.4H5V5.4H7V3.4L9.6 6.6L7 9.8Z" fill="currentColor"/>
  </symbol>

  <!-- Menu/Hamburger -->
  <symbol id="icon-menu" viewBox="0 0 14 10">
    <path d="M0 0H14V2H0V0ZM0 4H14V6H0V4ZM0 8H14V10H0V8Z" fill="currentColor"/>
  </symbol>

  <!-- More/Ellipsis Vertical -->
  <symbol id="icon-more" viewBox="0 0 4 14">
    <path d="M2 0C0.9 0 0 0.9 0 2C0 3.1 0.9 4 2 4C3.1 4 4 3.1 4 2C4 0.9 3.1 0 2 0ZM2 10C0.9 10 0 10.9 0 12C0 13.1 0.9 14 2 14C3.1 14 4 13.1 4 12C4 10.9 3.1 10 2 10ZM2 5C0.9 5 0 5.9 0 7C0 8.1 0.9 9 2 9C3.1 9 4 8.1 4 7C4 5.9 3.1 5 2 5Z" fill="currentColor"/>
  </symbol>

  <!-- Job Post Modal: gradient defs (must be at top level for cross-browser support) -->
  <defs>
    <linearGradient id="jp_grad0" x1="34.0033" y1="117.484" x2="84.5346" y2="71.5974" gradientUnits="userSpaceOnUse"><stop stop-color="#F69CD2"/><stop offset="0.98" stop-color="#BC1558"/><stop offset="1" stop-color="#BC1558"/></linearGradient>
    <linearGradient id="jp_grad1" x1="143.454" y1="32.6119" x2="160.088" y2="17.5064" gradientUnits="userSpaceOnUse"><stop stop-color="#BC1558"/><stop offset="0.98" stop-color="#BC1558"/><stop offset="1" stop-color="#BC1558"/></linearGradient>
    <linearGradient id="jp_grad2" x1="20.1901" y1="66.4139" x2="66.147" y2="24.6812" gradientUnits="userSpaceOnUse"><stop stop-color="#F69CD2"/><stop offset="0.012" stop-color="#F599D0"/><stop offset="1" stop-color="#BC1558"/></linearGradient>
    <linearGradient id="jp_grad3" x1="138.908" y1="15.7999" x2="154.037" y2="2.06188" gradientUnits="userSpaceOnUse"><stop stop-color="#F599D0"/><stop offset="0.012" stop-color="#F599D0"/><stop offset="1" stop-color="#BC1558"/></linearGradient>
    <linearGradient id="jp_grad4" x1="168.377" y1="128.334" x2="147.212" y2="128.334" gradientUnits="userSpaceOnUse"><stop stop-color="#1897C9"/><stop offset="0.16" stop-color="#1897C9"/><stop offset="0.33" stop-color="#18B7C9"/><stop offset="0.82" stop-color="#19D8C9"/><stop offset="1" stop-color="#19D8C9"/></linearGradient>
    <linearGradient id="jp_grad5" x1="165.744" y1="98.7272" x2="190.338" y2="107.315" gradientUnits="userSpaceOnUse"><stop stop-color="#1897C9"/><stop offset="0.16" stop-color="#1897C9"/><stop offset="0.49" stop-color="#18B7C9"/><stop offset="0.91" stop-color="#19D8C9"/><stop offset="1" stop-color="#19D8C9"/></linearGradient>
    <linearGradient id="jp_badge_grad" x1="31.9003" y1="34.3338" x2="117.007" y2="117.761" gradientUnits="userSpaceOnUse"><stop stop-color="#59BDB5"/><stop offset="1" stop-color="#37509C"/></linearGradient>
    <linearGradient id="jp_r_grad0" x1="167.264" y1="41.098" x2="116.733" y2="86.9846" gradientUnits="userSpaceOnUse"><stop stop-color="#F69CD2"/><stop offset="0.98" stop-color="#BC1558"/><stop offset="1" stop-color="#BC1558"/></linearGradient>
    <linearGradient id="jp_r_grad1" x1="57.814" y1="125.97" x2="41.1795" y2="141.076" gradientUnits="userSpaceOnUse"><stop stop-color="#BC1558"/><stop offset="0.98" stop-color="#BC1558"/><stop offset="1" stop-color="#BC1558"/></linearGradient>
    <linearGradient id="jp_r_grad2" x1="181.077" y1="92.1682" x2="135.121" y2="133.901" gradientUnits="userSpaceOnUse"><stop stop-color="#F69CD2"/><stop offset="0.012" stop-color="#F599D0"/><stop offset="1" stop-color="#BC1558"/></linearGradient>
    <linearGradient id="jp_r_grad3" x1="62.3594" y1="142.782" x2="47.2308" y2="156.52" gradientUnits="userSpaceOnUse"><stop stop-color="#F599D0"/><stop offset="0.012" stop-color="#F599D0"/><stop offset="1" stop-color="#BC1558"/></linearGradient>
    <linearGradient id="jp_r_grad4" x1="32.8907" y1="30.2481" x2="54.056" y2="30.2481" gradientUnits="userSpaceOnUse"><stop stop-color="#1897C9"/><stop offset="0.16" stop-color="#1897C9"/><stop offset="0.33" stop-color="#18B7C9"/><stop offset="0.82" stop-color="#19D8C9"/><stop offset="1" stop-color="#19D8C9"/></linearGradient>
    <linearGradient id="jp_r_grad5" x1="35.5238" y1="59.8548" x2="10.9292" y2="51.2673" gradientUnits="userSpaceOnUse"><stop stop-color="#1897C9"/><stop offset="0.16" stop-color="#1897C9"/><stop offset="0.49" stop-color="#18B7C9"/><stop offset="0.91" stop-color="#19D8C9"/><stop offset="1" stop-color="#19D8C9"/></linearGradient>
  </defs>

  <!-- Job Post Modal: Left confetti ribbon -->
  <symbol id="icon-jp-confetti-left" viewBox="0 0 202 159">
    <path d="M32.4723 121.112C35.3675 116.679 40.3842 112.91 43.6772 109.461C48.9127 103.913 53.9112 98.124 58.6845 92.1299C64.0985 85.2929 69.1805 78.166 73.9176 70.833C76.2565 67.1364 79.3113 62.2149 78.8612 57.6334C80.3176 57.8373 81.6746 58.4707 82.8952 59.6645C85.4466 63.1289 84.8379 67.1395 83.1547 71.0211C80.6299 76.8436 76.4478 82.2094 72.7818 87.3287C68.6557 93.1133 64.3277 98.7646 59.7627 104.175C54.485 110.451 48.9228 116.463 43.1236 122.233C40.2177 125.159 36.948 128.681 36.185 132.582L32.4723 121.112Z" fill="url(#jp_grad0)"/>
    <path d="M142.95 33.8061C143.903 32.3469 145.554 31.1062 146.638 29.9707C148.362 28.1444 150.007 26.2387 151.578 24.2655C153.361 22.0148 155.034 19.6687 156.593 17.2547C157.363 16.0378 158.369 14.4177 158.22 12.9095C158.7 12.9767 159.147 13.1852 159.548 13.5782C160.388 14.7186 160.188 16.0389 159.634 17.3167C158.803 19.2334 157.426 20.9997 156.219 22.685C154.861 24.5892 153.436 26.4496 151.933 28.2306C150.196 30.2968 148.365 32.2756 146.456 34.1751C145.499 35.1386 144.423 36.2977 144.172 37.5821L142.95 33.8061Z" fill="url(#jp_grad1)"/>
    <path d="M82.4921 59.1586C82.6106 59.2792 82.6931 59.4114 82.764 59.5076C82.8232 59.5679 82.8348 59.6038 82.8941 59.6641C81.6734 58.4702 80.3164 57.8369 78.8601 57.633C75.6015 57.1385 72.0006 58.8998 69.1749 60.8473C63.2 64.8469 57.7889 69.9749 52.2275 74.5159C45.6668 79.8968 33.1677 93.3174 24.0712 85.2184C22.4105 83.7697 20.7287 82.01 19.2383 80.2282L15.1532 67.6072C15.5802 65.2445 16.4852 62.8859 17.5795 60.7441C22.197 52.0594 32.7633 42.363 28.981 32.0275C26.8371 31.1721 24.4955 31.0561 21.9626 30.9623C18.2345 30.8581 14.6174 30.3604 11.0415 29.2536C7.54912 28.1594 4.25234 26.565 1.22203 24.5665L0 20.791C2.58284 22.0207 5.28727 23.0124 8.04243 23.6698C13.3624 24.8875 20.4153 23.3594 25.0491 26.5073C27.9123 28.4804 30.6911 31.9109 32.7707 34.6541C36.0436 38.9972 36.0634 44.9494 34.1085 49.8327C30.296 59.4088 17.4178 69.6946 21.2785 80.6404C29.9259 84.0384 39.7328 73.7138 45.824 68.7232C51.2288 64.3122 56.457 59.601 62.0629 55.4428C65.3951 52.9739 70.1539 50.0035 74.467 51.547C77.6601 52.6983 80.4104 56.6545 82.4921 59.1586Z" fill="url(#jp_grad2)"/>
    <path d="M159.417 13.4116C159.456 13.4513 159.484 13.4948 159.507 13.5265C159.526 13.5463 159.53 13.5581 159.55 13.578C159.148 13.185 158.701 12.9765 158.222 12.9093C157.149 12.7465 155.964 13.3264 155.034 13.9675C153.067 15.2841 151.285 16.9722 149.455 18.4671C147.295 20.2384 143.18 24.6564 140.186 21.9902C139.639 21.5133 139.085 20.9341 138.595 20.3475L137.25 16.1928C137.391 15.415 137.689 14.6386 138.049 13.9335C139.569 11.0746 143.047 7.88257 141.802 4.4802C141.096 4.19864 140.325 4.16044 139.492 4.12956C138.264 4.09526 137.074 3.93143 135.896 3.56707C134.747 3.20688 133.662 2.682 132.664 2.02412L132.262 0.78125C133.112 1.18604 134.002 1.5125 134.909 1.72893C136.661 2.12978 138.982 1.62673 140.508 2.663C141.45 3.31253 142.365 4.44183 143.05 5.34486C144.127 6.77459 144.134 8.73402 143.49 10.3415C142.235 13.4939 137.996 16.8799 139.266 20.4832C142.113 21.6018 145.341 18.203 147.347 16.5602C149.126 15.1081 150.847 13.5572 152.692 12.1883C153.789 11.3756 155.356 10.3978 156.776 10.9059C157.827 11.2849 158.732 12.5872 159.417 13.4116Z" fill="url(#jp_grad3)"/>
    <path d="M158.337 98.4629C158.563 98.3873 158.79 98.2739 159.017 98.1983C159.017 98.2361 158.979 98.2361 158.979 98.2361C159.13 98.1983 159.281 98.1228 159.395 98.085C159.395 98.1983 159.357 98.3117 159.281 98.4629C159.206 98.6141 158.866 98.8408 158.526 99.0676C158.677 99.0298 158.828 99.0298 158.941 98.992C158.904 99.0298 158.866 99.0676 158.866 99.0676C154.179 102.998 155.313 109.083 157.052 114.185C159.433 121.177 162.154 128.055 164.686 135.009C166.765 140.641 170.015 147.33 167.407 153.339C166.311 155.872 164.421 157.27 162.267 158.253C160.793 158.631 159.319 158.668 157.921 158.442C162.381 153.113 158.677 143.891 156.485 137.882C154.671 133.006 152.894 128.131 151.08 123.256C149.568 119.136 147.414 114.714 147.225 110.255C146.961 103.792 151.345 100.957 156.749 99.0298C157.241 98.8408 157.694 98.6897 158.185 98.5007C158.223 98.5007 158.299 98.4629 158.337 98.4629ZM156.334 99.3322L156.409 99.2944C156.371 99.3322 156.334 99.3322 156.334 99.3322Z" fill="url(#jp_grad4)"/>
    <path d="M200.211 107.005C202.366 107.421 200.551 106.929 200.589 106.929C200.06 106.967 197.944 106.891 197.641 106.854C195.411 106.74 193.219 106.173 191.141 105.417C184.489 102.961 178.707 98.0099 171.639 96.6871C169.334 96.2714 167.18 96.3092 165.063 96.6493H165.025C163.589 96.8383 161.095 97.5186 160.641 97.6698C160.566 97.6698 160.566 97.6698 160.566 97.6698C158.411 98.2745 154.821 99.7862 154.821 99.7862C155.426 99.4839 157.164 99.3327 158.147 99.2949C158.147 99.2949 158.147 99.2949 158.109 99.2949C158.487 99.2571 158.789 99.2571 158.865 99.2571C161.321 99.1815 163.778 99.5594 166.121 100.315C176.59 103.717 184.98 112.523 196.734 108.706C197.15 108.592 197.566 108.441 197.981 108.328C198.284 107.798 199.644 106.929 200.211 107.005Z" fill="url(#jp_grad5)"/>
  </symbol>

  <!-- Job Post Modal: Checkmark badge -->
  <symbol id="icon-jp-badge" viewBox="0 0 149 152">
    <path fill-rule="evenodd" clip-rule="evenodd" d="M146.916 83.0234C148.328 85.1918 149 87.6288 149 90.0371C149 94.3835 146.8 98.634 142.795 101.052C138.905 103.403 136.58 107.596 136.58 112.057C136.58 112.604 136.619 113.16 136.686 113.717C136.763 114.273 136.801 114.83 136.801 115.377C136.801 121.911 131.825 127.533 125.15 128.167C122.604 128.416 120.26 129.395 118.349 130.92C116.428 132.446 114.949 134.509 114.151 136.936C112.355 142.348 107.312 145.754 101.924 145.754C100.444 145.754 98.9363 145.495 97.4667 144.957C96.0162 144.42 94.5082 144.161 93.0193 144.161C89.5902 144.161 86.2283 145.533 83.7597 148.085C81.2238 150.695 77.8619 152 74.5 152C71.1381 152 67.7762 150.695 65.2403 148.085C62.7717 145.533 59.4098 144.161 55.9807 144.161C54.4918 144.161 52.9838 144.42 51.5333 144.957C50.0637 145.495 48.5556 145.754 47.0764 145.754C41.6877 145.754 36.6449 142.348 34.8486 136.936C34.0514 134.509 32.5721 132.446 30.651 130.92C28.7396 129.395 26.3958 128.416 23.8504 128.167C17.1746 127.533 12.1989 121.911 12.1989 115.377C12.1989 114.83 12.2374 114.273 12.3142 113.717C12.3814 113.16 12.4199 112.604 12.4199 112.057C12.4199 107.596 10.0953 103.403 6.20513 101.052C2.19965 98.634 0 94.3835 0 90.0371C0 87.6288 0.672383 85.1918 2.08439 83.0234C3.47718 80.8837 4.17838 78.4467 4.17838 76C4.17838 73.5533 3.47718 71.1067 2.08439 68.9766C0.672383 66.8082 0 64.3712 0 61.9629C0 57.6165 2.19965 53.366 6.20513 50.9481C10.0953 48.5878 12.4199 44.3949 12.4199 39.9429C12.4199 39.396 12.3814 38.8395 12.3142 38.283C12.2374 37.7265 12.1989 37.1701 12.1989 36.6136C12.1989 30.0891 17.1746 24.4666 23.8504 23.8238C26.3958 23.5839 28.7396 22.6052 30.651 21.0797C32.5721 19.5541 34.0514 17.4912 34.8486 15.0638C36.6449 9.65232 41.6877 6.24618 47.0764 6.24618C48.5556 6.24618 50.0637 6.50524 51.5333 7.04254C52.9838 7.57985 54.4918 7.83891 55.9807 7.83891C59.4098 7.83891 62.7717 6.46686 65.2403 3.91466C67.7762 1.30489 71.1381 0 74.5 0C77.8619 0 81.2238 1.30489 83.7597 3.91466C87.3041 7.57985 92.6831 8.80798 97.4667 7.04254C98.9363 6.50524 100.444 6.24618 101.924 6.24618C107.312 6.24618 112.355 9.65232 114.151 15.0638C114.949 17.4912 116.428 19.5541 118.349 21.0797C120.26 22.6052 122.604 23.5839 125.15 23.8238C131.825 24.4666 136.801 30.0891 136.801 36.6136C136.801 37.1701 136.763 37.7265 136.686 38.283C136.619 38.8395 136.58 39.396 136.58 39.9429C136.58 44.3949 138.905 48.5878 142.795 50.9481C146.8 53.366 149 57.6165 149 61.9629C149 64.3712 148.328 66.8082 146.916 68.9766C145.523 71.1067 144.822 73.5533 144.822 76C144.822 78.4467 145.523 80.8837 146.916 83.0234Z" fill="url(#jp_badge_grad)"/>
    <path class="checkmarksvg" d="M63.4662 109L38 83.6334L48.9266 72.7495L62.2684 86.0391L99.0021 41L111 50.7101L63.4662 109Z" fill="#FEFEFE"/>
  </symbol>

  <!-- Job Post Modal: Right confetti ribbon -->
  <symbol id="icon-jp-confetti-right" viewBox="0 0 202 158">
    <path d="M168.795 37.4702C165.9 41.903 160.883 45.6719 157.59 49.1212C152.355 54.6691 147.356 60.458 142.583 66.4521C137.169 73.2892 132.087 80.416 127.35 87.749C125.011 91.4457 121.956 96.3671 122.406 100.949C120.95 100.745 119.593 100.111 118.372 98.9175C115.821 95.4531 116.43 91.4426 118.113 87.5609C120.638 81.7385 124.82 76.3727 128.486 71.2534C132.612 65.4688 136.94 59.8174 141.505 54.4071C146.783 48.1306 152.345 42.1195 158.144 36.3495C161.05 33.4227 164.32 29.9015 165.083 25.9999L168.795 37.4702Z" fill="url(#jp_r_grad0)"/>
    <path d="M58.318 124.776C57.365 126.235 55.7135 127.476 54.6295 128.611C52.906 130.438 51.2605 132.343 49.6892 134.317C47.9069 136.567 46.234 138.913 44.6746 141.327C43.9046 142.544 42.899 144.164 43.0472 145.672C42.5677 145.605 42.121 145.397 41.7192 145.004C40.8793 143.863 41.0797 142.543 41.6338 141.265C42.4649 139.349 43.8416 137.582 45.0485 135.897C46.4067 133.993 47.8315 132.132 49.3342 130.351C51.0716 128.285 52.9027 126.306 54.8117 124.407C55.7683 123.443 56.8447 122.284 57.0959 121L58.318 124.776Z" fill="url(#jp_r_grad1)"/>
    <path d="M118.775 99.4234C118.657 99.3028 118.574 99.1706 118.504 99.0744C118.444 99.0141 118.433 98.9782 118.374 98.9179C119.594 100.112 120.951 100.745 122.407 100.949C125.666 101.444 129.267 99.6822 132.093 97.7348C138.068 93.7352 143.479 88.6072 149.04 84.0661C155.601 78.6852 168.1 65.2646 177.196 73.3637C178.857 74.8124 180.539 76.572 182.029 78.3539L186.114 90.9748C185.687 93.3376 184.782 95.6962 183.688 97.838C179.071 106.523 168.504 116.219 172.287 126.555C174.43 127.41 176.772 127.526 179.305 127.62C183.033 127.724 186.65 128.222 190.226 129.328C193.718 130.423 197.015 132.017 200.046 134.016L201.268 137.791C198.685 136.561 195.98 135.57 193.225 134.912C187.905 133.695 180.852 135.223 176.218 132.075C173.355 130.102 170.576 126.671 168.497 123.928C165.224 119.585 165.204 113.633 167.159 108.749C170.972 99.1733 183.85 88.8874 179.989 77.9417C171.342 74.5437 161.535 84.8683 155.444 89.8589C150.039 94.2698 144.811 98.9811 139.205 103.139C135.873 105.608 131.114 108.579 126.801 107.035C123.607 105.884 120.857 101.928 118.775 99.4234Z" fill="url(#jp_r_grad2)"/>
    <path d="M41.8501 145.17C41.8111 145.131 41.7839 145.087 41.7606 145.056C41.7411 145.036 41.7373 145.024 41.7178 145.004C42.1196 145.397 42.5663 145.606 43.0457 145.673C44.1184 145.835 45.3038 145.256 46.234 144.615C48.2009 143.298 49.9822 141.61 51.813 140.115C53.9727 138.344 58.0873 133.926 61.0818 136.592C61.6285 137.069 62.1821 137.648 62.6728 138.235L64.0175 142.389C63.877 143.167 63.5791 143.943 63.2188 144.649C61.6988 147.507 58.2204 150.699 59.4655 154.102C60.1713 154.383 60.9421 154.422 61.776 154.452C63.0032 154.487 64.1939 154.651 65.3711 155.015C66.5207 155.375 67.606 155.9 68.6036 156.558L69.0059 157.801C68.1556 157.396 67.2653 157.07 66.3584 156.853C64.6071 156.452 62.2853 156.955 60.7599 155.919C59.8173 155.27 58.9026 154.14 58.218 153.237C57.1406 151.807 57.1341 149.848 57.7776 148.24C59.0326 145.088 63.272 141.702 62.0011 138.099C59.1545 136.98 55.9261 140.379 53.921 142.022C52.1417 143.474 50.4206 145.025 48.5752 146.394C47.4783 147.206 45.9117 148.184 44.4919 147.676C43.4407 147.297 42.5354 145.995 41.8501 145.17Z" fill="url(#jp_r_grad3)"/>
    <path d="M42.931 60.1191C42.7042 60.1947 42.4775 60.3081 42.2507 60.3837C42.2507 60.3459 42.2885 60.3459 42.2885 60.3459C42.1373 60.3837 41.9861 60.4593 41.8728 60.4971C41.8728 60.3837 41.9106 60.2703 41.9861 60.1191C42.0617 59.968 42.4019 59.7412 42.742 59.5144C42.5908 59.5522 42.4397 59.5522 42.3263 59.59C42.3641 59.5522 42.4019 59.5144 42.4019 59.5144C47.0883 55.5839 45.9545 49.4991 44.216 44.3969C41.835 37.4051 39.1138 30.5266 36.5816 23.5726C34.503 17.9413 31.2527 11.2518 33.8605 5.2426C34.9565 2.71041 36.8462 1.31204 39.0004 0.329407C40.4744 -0.0485306 41.9483 -0.0863266 43.3467 0.140438C38.8871 5.46936 42.5908 14.691 44.7829 20.7002C46.597 25.5756 48.3733 30.451 50.1874 35.3264C51.6991 39.4459 53.8534 43.8678 54.0423 48.3275C54.3069 54.7902 49.9228 57.6247 44.5183 59.5522C44.027 59.7412 43.5735 59.8924 43.0822 60.0813C43.0444 60.0813 42.9688 60.1191 42.931 60.1191ZM44.9341 59.2499L44.8585 59.2877C44.8963 59.2499 44.9341 59.2499 44.9341 59.2499Z" fill="url(#jp_r_grad4)"/>
    <path d="M1.05631 51.5772C-1.09793 51.1615 0.716167 51.6528 0.678374 51.6528C1.20749 51.615 3.32394 51.6906 3.62629 51.7284C5.85612 51.8418 8.04816 52.4087 10.1268 53.1646C16.7785 55.6212 22.561 60.5721 29.6284 61.8949C31.9338 62.3106 34.0881 62.2729 36.2045 61.9327H36.2423C37.6785 61.7437 40.1729 61.0635 40.6264 60.9123C40.702 60.9123 40.702 60.9123 40.702 60.9123C42.8562 60.3076 46.4466 58.7958 46.4466 58.7958C45.8419 59.0982 44.1034 59.2494 43.1208 59.2871C43.1208 59.2871 43.1208 59.2871 43.1586 59.2871C42.7806 59.3249 42.4783 59.3249 42.4027 59.3249C39.9461 59.4005 37.4895 59.0226 35.1463 58.2667C24.6774 54.8653 16.2872 46.0593 4.53334 49.8765C4.11761 49.9899 3.70187 50.1411 3.28614 50.2544C2.98379 50.7836 1.62322 51.6528 1.05631 51.5772Z" fill="url(#jp_r_grad5)"/>
  </symbol>

  <!-- Footer: Terms/File Question -->
  <symbol id="icon-file-question" viewBox="0 0 10 9">
    <path d="M0 1.11111C0 0.498264 0.498264 0 1.11111 0H3.88889V2.22222C3.88889 2.52951 4.13715 2.77778 4.44444 2.77778H6.66667V3.44792C5.38368 3.81076 4.44444 4.98958 4.44444 6.38889C4.44444 7.41493 4.94965 8.32118 5.72396 8.87674C5.6684 8.88542 5.61285 8.88889 5.55556 8.88889H1.11111C0.498264 8.88889 0 8.39062 0 7.77778V1.11111ZM6.66667 2.22222H4.44444V0L6.66667 2.22222ZM7.5 3.88889C8.16304 3.88889 8.79893 4.15228 9.26777 4.62112C9.73661 5.08996 10 5.72585 10 6.38889C10 7.05193 9.73661 7.68782 9.26777 8.15666C8.79893 8.6255 8.16304 8.88889 7.5 8.88889C6.83696 8.88889 6.20107 8.6255 5.73223 8.15666C5.26339 7.68782 5 7.05193 5 6.38889C5 5.72585 5.26339 5.08996 5.73223 4.62112C6.20107 4.15228 6.83696 3.88889 7.5 3.88889ZM7.5 8.05556C7.61051 8.05556 7.71649 8.01166 7.79463 7.93352C7.87277 7.85538 7.91667 7.7494 7.91667 7.63889C7.91667 7.52838 7.87277 7.4224 7.79463 7.34426C7.71649 7.26612 7.61051 7.22222 7.5 7.22222C7.38949 7.22222 7.28351 7.26612 7.20537 7.34426C7.12723 7.4224 7.08333 7.52838 7.08333 7.63889C7.08333 7.7494 7.12723 7.85538 7.20537 7.93352C7.28351 8.01166 7.38949 8.05556 7.5 8.05556ZM6.38889 5.58333V5.69444C6.38889 5.84722 6.51389 5.97222 6.66667 5.97222C6.81944 5.97222 6.94444 5.84722 6.94444 5.69444V5.58333C6.94444 5.49132 7.0191 5.41667 7.11111 5.41667H7.81424C7.94792 5.41667 8.05556 5.52431 8.05556 5.65799C8.05556 5.74826 8.00521 5.82986 7.92708 5.87153L7.37153 6.16319C7.27951 6.21181 7.22222 6.30556 7.22222 6.40972V6.66667C7.22222 6.81944 7.34722 6.94444 7.5 6.94444C7.65278 6.94444 7.77778 6.81944 7.77778 6.66667V6.57812L8.18576 6.36458C8.44792 6.22743 8.61111 5.95486 8.61111 5.65972C8.61111 5.21875 8.25347 4.86285 7.81424 4.86285H7.11111C6.71181 4.86285 6.38889 5.18576 6.38889 5.58507V5.58333Z" fill="currentColor"/>
  </symbol>

  <!-- Footer: Tao.ai logo -->
  <symbol id="icon-tao-logo" viewBox="0 0 16 16">
    <path fill-rule="evenodd" clip-rule="evenodd" d="M10.5341 4.42451L8.4495 4.39261C8.24982 5.34678 7.3313 10.9602 8.343 11.5608C9.20029 12.0685 9.89517 11.1648 10.4383 11.1303C11.1944 13.3868 6.82811 14.7556 6.5033 11.7788C6.30362 9.93955 7.55228 5.18199 7.34461 4.32882C5.92823 4.29161 4.07788 4.02849 4.06723 5.7242C4.0619 6.44447 4.46392 6.69697 3.72644 6.76873C2.77331 5.31489 3.48949 3.36934 4.76743 2.82448C5.75784 2.40454 9.26152 2.68627 10.7258 2.68627C11.2157 2.68627 12.2274 2.51882 12.5496 2.65438C13.1805 4.26769 11.7748 4.42451 10.5341 4.42451ZM16 8.02855C16 6.8777 15.6645 5.62851 15.3051 4.79129C14.9271 3.90888 14.3067 3.01319 13.6757 2.38859C11.4473 0.174598 7.80254 -0.73173 4.81269 0.668958C3.48949 1.28824 2.31272 2.17862 1.5007 3.40123C0.896336 4.31022 0.47568 5.04113 0.249378 6.17869C-0.0567951 7.71759 -0.0967307 8.04716 0.21743 9.62061C0.459706 10.8352 0.773867 11.4492 1.40485 12.4645C2.69344 14.535 5.45699 15.9436 7.94897 15.9995C8.31372 16.0101 9.29081 15.8613 9.65023 15.7815C12.1369 15.2446 14.1789 13.6021 15.2465 11.3057C15.4276 10.9176 15.6486 10.317 15.7684 9.81198C15.8616 9.40267 16 8.44052 16 8.02855Z" fill="currentColor"/>
  </symbol>

  <!-- Footer: Feedback/Edit -->
  <symbol id="icon-feedback" viewBox="0 0 12 10">
    <path d="M1.25 0C0.560547 0 0 0.560547 0 1.25V8.75C0 9.43945 0.560547 10 1.25 10H6.25C6.93945 10 7.5 9.43945 7.5 8.75V8.37305C7.44727 8.39453 7.39453 8.41211 7.33984 8.42578L6.16602 8.71875C6.10742 8.73242 6.04883 8.74219 5.99023 8.74609C5.97266 8.74805 5.95508 8.75 5.9375 8.75H4.6875C4.56836 8.75 4.46094 8.68359 4.4082 8.57812L4.23633 8.23242C4.20312 8.16602 4.13672 8.125 4.06445 8.125C3.99219 8.125 3.92383 8.16602 3.89258 8.23242L3.7207 8.57812C3.66406 8.69336 3.54102 8.76172 3.41406 8.75C3.28711 8.73828 3.17773 8.65039 3.14258 8.5293L2.8125 7.44141L2.62109 8.08203C2.50195 8.47852 2.13672 8.75 1.72266 8.75H1.5625C1.39062 8.75 1.25 8.60938 1.25 8.4375C1.25 8.26562 1.39062 8.125 1.5625 8.125H1.72266C1.86133 8.125 1.98242 8.03516 2.02148 7.90234L2.3125 6.93555C2.37891 6.71484 2.58203 6.5625 2.8125 6.5625C3.04297 6.5625 3.24609 6.71484 3.3125 6.93555L3.53906 7.68945C3.68359 7.56836 3.86719 7.5 4.0625 7.5C4.37305 7.5 4.65625 7.67578 4.79492 7.95312L4.88086 8.125H5.05469C4.99414 7.95312 4.98242 7.76562 5.02734 7.58203L5.32031 6.4082C5.375 6.1875 5.48828 5.98828 5.64844 5.82812L7.5 3.97656V3.125H5C4.6543 3.125 4.375 2.8457 4.375 2.5V0H1.25ZM5 0V2.5H7.5L5 0ZM10.7383 2.72852C10.4336 2.42383 9.93945 2.42383 9.63281 2.72852L9.05859 3.30273L10.4453 4.68945L11.0195 4.11523C11.3242 3.81055 11.3242 3.31641 11.0195 3.00977L10.7383 2.72852ZM6.0918 6.26953C6.01172 6.34961 5.95508 6.44922 5.92773 6.56055L5.63477 7.73438C5.60742 7.8418 5.63867 7.95312 5.7168 8.03125C5.79492 8.10938 5.90625 8.14062 6.01367 8.11328L7.1875 7.82031C7.29688 7.79297 7.39844 7.73633 7.47852 7.65625L10.002 5.13086L8.61523 3.74414L6.0918 6.26953Z" fill="currentColor"/>
  </symbol>

  <!-- Footer: Donate/Heart-Hand -->
  <symbol id="icon-donate" viewBox="0 0 11 10">
    <path fill-rule="evenodd" clip-rule="evenodd" d="M1.68724 6.83475C2.65604 6.58123 3.45611 6.5761 4.86577 7.44936L6.74895 7.06267C7.03741 7.00377 7.20341 7.08316 7.30682 7.20864C7.37214 7.29059 7.39663 7.38534 7.37214 7.48522C7.34764 7.58509 7.28505 7.66192 7.18708 7.70801L5.1624 8.67346C4.98007 8.78358 5.10525 8.96797 5.2522 8.90394L7.57079 7.81045C7.66604 7.76435 7.7368 7.69777 7.78306 7.60558C7.83476 7.50314 7.91096 7.42119 8.01437 7.35205L9.89211 6.11515C10.3683 5.80016 10.7412 6.23807 10.5915 6.39684L8.29739 8.58383L5.8509 9.76952C5.52706 9.92573 5.20594 9.98207 4.844 9.9411L1.72534 9.61075C1.6056 9.59794 1.51579 9.50319 1.51579 9.39051V7.04987C1.51579 6.94743 1.58383 6.86292 1.68724 6.83475ZM5.85907 1.29557C5.86451 1.30581 5.87811 1.31349 5.89172 1.31349C5.90533 1.31349 5.91621 1.30581 5.92438 1.29557C6.45232 0.419748 7.26056 -0.256324 8.36815 0.0945161C9.21993 0.363408 9.83768 1.15472 9.83768 2.08944C9.83768 3.41598 8.3872 4.49411 7.4565 5.34944L6.14481 6.48647C6.00058 6.6094 5.78015 6.6094 5.63591 6.48647L4.32695 5.34944C3.39624 4.49411 1.94576 3.41598 1.94576 2.08944C1.94576 1.12911 2.59617 0.322434 3.48333 0.074029C4.56642 -0.228155 5.34745 0.447918 5.85907 1.29557ZM0.236757 6.85268H0.990571C1.1212 6.85268 1.22733 6.95255 1.22733 7.07291V9.55697C1.22733 9.80025 1.01506 10 0.756535 10H0.236757C0.106133 10 0 9.90013 0 9.7772V7.07291C0 6.95255 0.106133 6.85268 0.236757 6.85268Z" fill="currentColor"/>
  </symbol>

  <!-- Footer: Chatbot Minimize -->
  <symbol id="icon-chatbot-minimize" viewBox="0 0 19 19">
    <path d="M5.95898 9.26562H12.5723" stroke="currentColor" stroke-width="1.24" stroke-linecap="round" stroke-linejoin="round"/>
    <path d="M9.26667 17.5333C13.8133 17.5333 17.5333 13.8133 17.5333 9.26667C17.5333 4.72 13.8133 1 9.26667 1C4.72 1 1 4.72 1 9.26667C1 13.8133 4.72 17.5333 9.26667 17.5333Z" stroke="currentColor" stroke-width="1.24" stroke-linecap="round" stroke-linejoin="round"/>
  </symbol>

  <!-- Footer: Chat Send -->
  <symbol id="icon-chat-send" viewBox="0 0 17 17">
    <path d="M6.04768 2.03133L13.1239 5.56946C16.2983 7.15666 16.2983 9.75239 13.1239 11.3396L6.04768 14.8777C1.28608 17.2585 -0.656589 15.3076 1.72421 10.5543L2.44341 9.12413C2.62528 8.76039 2.62528 8.15692 2.44341 7.79319L1.72421 6.35479C-0.656589 1.60146 1.29434 -0.349475 6.04768 2.03133Z" stroke="currentColor" stroke-width="1.24" stroke-linecap="round" stroke-linejoin="round"/>
  </symbol>

</svg>
