<?xml version="1.0" encoding="UTF-8"?>
<svg xmlns="http://www.w3.org/2000/svg" xmlns:xlink="http://www.w3.org/1999/xlink" style="display:none">

  <!-- ==================== LOCATION/MAP ICONS ==================== -->

  <!-- Location Pin (10x13) - Most common custom icon -->
  <symbol id="icon-location-pin" viewBox="0 0 10 13">
    <path d="M5.61719 12.7079C6.95312 11.0736 10 7.11255 10 4.88765C10 2.18926 7.76042 0 5 0C2.23958 0 0 2.18926 0 4.88765C0 7.11255 3.04688 11.0736 4.38281 12.7079C4.70312 13.0974 5.29688 13.0974 5.61719 12.7079Z" fill="currentColor"/>
  </symbol>

  <!-- Location Pin with dot -->
  <symbol id="icon-location-dot" viewBox="0 0 10 13">
    <path d="M5.61719 12.7079C6.95312 11.0736 10 7.11255 10 4.88765C10 2.18926 7.76042 0 5 0C2.23958 0 0 2.18926 0 4.88765C0 7.11255 3.04688 11.0736 4.38281 12.7079C4.70312 13.0974 5.29688 13.0974 5.61719 12.7079ZM5 6.5C3.89583 6.5 3 5.60417 3 4.5C3 3.39583 3.89583 2.5 5 2.5C6.10417 2.5 7 3.39583 7 4.5C7 5.60417 6.10417 6.5 5 6.5Z" fill="currentColor"/>
  </symbol>

  <!-- ==================== BUILDING/COMPANY ICONS ==================== -->

  <!-- Building/Office (8x11) -->
  <symbol id="icon-building" viewBox="0 0 8 11">
    <path d="M1 0C0.447917 0 0 0.461914 0 1.03125V9.96875C0 10.5381 0.447917 11 1 11H3V9.28125C3 8.71191 3.44792 8.25 4 8.25C4.55208 8.25 5 8.71191 5 9.28125V11H7C7.55208 11 8 10.5381 8 9.96875V1.03125C8 0.461914 7.55208 0 7 0H1ZM2 2H3V3H2V2ZM5 2H6V3H5V2ZM2 4H3V5H2V4ZM5 4H6V5H5V4ZM2 6H3V7H2V6ZM5 6H6V7H5V6Z" fill="currentColor"/>
  </symbol>

  <!-- Building simple -->
  <symbol id="icon-building-simple" viewBox="0 0 8 11">
    <path d="M1 0C0.447917 0 0 0.461914 0 1.03125V9.96875C0 10.5381 0.447917 11 1 11H3V9.28125C3 8.71191 3.44792 8.25 4 8.25C4.55208 8.25 5 8.71191 5 9.28125V11H7C7.55208 11 8 10.5381 8 9.96875V1.03125C8 0.461914 7.55208 0 7 0H1Z" fill="currentColor"/>
  </symbol>

  <!-- ==================== USER/PEOPLE ICONS ==================== -->

  <!-- Add User/Connect (18x15) -->
  <symbol id="icon-add-user" viewBox="0 0 18 15">
    <path d="M6.3 5.88C7.78985 5.88 9 4.56875 9 2.94C9 1.31125 7.78985 0 6.3 0C4.81015 0 3.6 1.31125 3.6 2.94C3.6 4.56875 4.81015 5.88 6.3 5.88ZM8.82 6.72H8.46825C7.8183 7.04063 7.0812 7.245 6.3 7.245C5.5188 7.245 4.78485 7.04063 4.13175 6.72H3.78C1.6929 6.72 0 8.51719 0 10.7344V11.5781C0 12.3637 0.604125 13 1.35 13H11.25C11.9959 13 12.6 12.3637 12.6 11.5781V10.7344C12.6 8.51719 10.9071 6.72 8.82 6.72ZM13.5 5.6875V4.0625C13.5 3.77656 13.2984 3.5625 13.0275 3.5625H12.2725C12.0016 3.5625 11.8 3.77656 11.8 4.0625V5.6875H10.2725C10.0016 5.6875 9.8 5.90156 9.8 6.1875V6.9375C9.8 7.22344 10.0016 7.4375 10.2725 7.4375H11.8V9.0625C11.8 9.34844 12.0016 9.5625 12.2725 9.5625H13.0275C13.2984 9.5625 13.5 9.34844 13.5 9.0625V7.4375H15.1275C15.3984 7.4375 15.6 7.22344 15.6 6.9375V6.1875C15.6 5.90156 15.3984 5.6875 15.1275 5.6875H13.5Z" fill="currentColor"/>
  </symbol>

  <!-- User/Person single -->
  <symbol id="icon-user" viewBox="0 0 14 16">
    <path d="M7 8C9.20938 8 11 6.20937 11 4C11 1.79063 9.20938 0 7 0C4.79063 0 3 1.79063 3 4C3 6.20937 4.79063 8 7 8ZM9.8 9H9.27812C8.58437 9.31875 7.8125 9.5 7 9.5C6.1875 9.5 5.41875 9.31875 4.72188 9H4.2C1.88125 9 0 10.8813 0 13.2V14.5C0 15.3281 0.671875 16 1.5 16H12.5C13.3281 16 14 15.3281 14 14.5V13.2C14 10.8813 12.1187 9 9.8 9Z" fill="currentColor"/>
  </symbol>

  <!-- Users/People group -->
  <symbol id="icon-users" viewBox="0 0 20 16">
    <path d="M6 8C7.65685 8 9 6.65685 9 5C9 3.34315 7.65685 2 6 2C4.34315 2 3 3.34315 3 5C3 6.65685 4.34315 8 6 8ZM8.4 9H8.14C7.49 9.31 6.77 9.5 6 9.5C5.23 9.5 4.51 9.31 3.86 9H3.6C1.61 9 0 10.61 0 12.6V13.5C0 14.33 0.67 15 1.5 15H10.5C11.33 15 12 14.33 12 13.5V12.6C12 10.61 10.39 9 8.4 9ZM14 8C15.38 8 16.5 6.88 16.5 5.5C16.5 4.12 15.38 3 14 3C12.62 3 11.5 4.12 11.5 5.5C11.5 6.88 12.62 8 14 8ZM15.5 9H15.36C14.94 9.15 14.48 9.25 14 9.25C13.52 9.25 13.06 9.15 12.64 9H12.5C12.05 9 11.63 9.11 11.24 9.28C12.32 10.23 13 11.56 13 13.05V13.75C13 13.83 12.98 13.92 12.97 14H18.5C19.33 14 20 13.33 20 12.5C20 10.57 18.43 9 16.5 9H15.5Z" fill="currentColor"/>
  </symbol>

  <!-- Followers count -->
  <symbol id="icon-followers" viewBox="0 0 15 14">
    <path d="M5.25 7C6.7 7 7.875 5.825 7.875 4.375C7.875 2.925 6.7 1.75 5.25 1.75C3.8 1.75 2.625 2.925 2.625 4.375C2.625 5.825 3.8 7 5.25 7ZM7.35 7.875H7.1225C6.5625 8.1375 5.925 8.3125 5.25 8.3125C4.575 8.3125 3.9375 8.1375 3.3775 7.875H3.15C1.4 7.875 0 9.275 0 11.025V11.8125C0 12.5375 0.5875 13.125 1.3125 13.125H9.1875C9.9125 13.125 10.5 12.5375 10.5 11.8125V11.025C10.5 9.275 9.1 7.875 7.35 7.875ZM12.25 7C13.4925 7 14.5 5.9925 14.5 4.75C14.5 3.5075 13.4925 2.5 12.25 2.5C11.0075 2.5 10 3.5075 10 4.75C10 5.9925 11.0075 7 12.25 7ZM13.125 7.875H13.02C12.785 7.9625 12.525 8.03125 12.25 8.03125C11.975 8.03125 11.715 7.9625 11.48 7.875H11.375C10.9375 7.875 10.53 7.9975 10.1625 8.19375C10.9125 8.91875 11.375 9.89375 11.375 10.9813V11.5C11.375 11.5625 11.3625 11.625 11.355 11.6875H14.1875C14.9125 11.6875 15.5 11.1 15.5 10.375C15.5 8.99375 14.38 7.875 13 7.875H13.125Z" fill="currentColor"/>
  </symbol>

  <!-- ==================== TICKET/EVENT ICONS ==================== -->

  <!-- Ticket with notches (19x13) -->
  <symbol id="icon-ticket" viewBox="0 0 19 13">
    <path d="M2.11111 0C0.946701 0 0 0.946701 0 2.11111V4.22222C0 4.5125 0.244097 4.7401 0.517882 4.83576C1.13802 5.05017 1.58333 5.64062 1.58333 6.33333C1.58333 7.02604 1.13802 7.61649 0.517882 7.8309C0.244097 7.92656 0 8.15417 0 8.44444V10.5556C0 11.72 0.946701 12.6667 2.11111 12.6667H16.8889C18.0533 12.6667 19 11.72 19 10.5556V8.44444C19 8.15417 18.7559 7.92656 18.4821 7.8309C17.862 7.61649 17.4167 7.02604 17.4167 6.33333C17.4167 5.64062 17.862 5.05017 18.4821 4.83576C18.7559 4.7401 19 4.5125 19 4.22222V2.11111C19 0.946701 18.0533 0 16.8889 0H2.11111Z" fill="currentColor"/>
  </symbol>

  <!-- Event/Calendar -->
  <symbol id="icon-event" viewBox="0 0 20 27">
    <path d="M6.25 0C5.55937 0 5 0.503906 5 1.125V2.25H3.75C1.67969 2.25 0 3.76172 0 5.625V23.625C0 25.4883 1.67969 27 3.75 27H16.25C18.3203 27 20 25.4883 20 23.625V5.625C20 3.76172 18.3203 2.25 16.25 2.25H15V1.125C15 0.503906 14.4406 0 13.75 0C13.0594 0 12.5 0.503906 12.5 1.125V2.25H7.5V1.125C7.5 0.503906 6.94062 0 6.25 0ZM2.5 9H17.5V23.625C17.5 24.2461 16.9406 24.75 16.25 24.75H3.75C3.05937 24.75 2.5 24.2461 2.5 23.625V9Z" fill="currentColor"/>
  </symbol>

  <!-- Calendar check -->
  <symbol id="icon-calendar-check" viewBox="0 0 16 16">
    <path d="M5 0C4.44772 0 4 0.447715 4 1V2H2C0.895431 2 0 2.89543 0 4V14C0 15.1046 0.895431 16 2 16H14C15.1046 16 16 15.1046 16 14V4C16 2.89543 15.1046 2 14 2H12V1C12 0.447715 11.5523 0 11 0C10.4477 0 10 0.447715 10 1V2H6V1C6 0.447715 5.55228 0 5 0ZM2 6H14V14H2V6ZM11.3536 8.35355C11.5488 8.15829 11.5488 7.84171 11.3536 7.64645C11.1583 7.45118 10.8417 7.45118 10.6464 7.64645L7 11.2929L5.35355 9.64645C5.15829 9.45118 4.84171 9.45118 4.64645 9.64645C4.45118 9.84171 4.45118 10.1583 4.64645 10.3536L6.64645 12.3536C6.84171 12.5488 7.15829 12.5488 7.35355 12.3536L11.3536 8.35355Z" fill="currentColor"/>
  </symbol>

  <!-- ==================== SKILLS/BADGES ==================== -->

  <!-- Skills badge (11x11) -->
  <symbol id="icon-skills" viewBox="0 0 11 11">
    <path d="M6.77617 0.333008C6.65371 0.126758 6.42812 0 6.1875 0C5.94688 0 5.72129 0.126758 5.59883 0.333008L3.53633 3.77051C3.40957 3.9832 3.40527 4.24746 3.52773 4.4623C3.6502 4.67715 3.87793 4.81035 4.125 4.81035H8.25C8.49707 4.81035 8.72695 4.67715 8.84727 4.4623C8.96758 4.24746 8.96543 3.9832 8.83867 3.77051L6.77617 0.333008ZM5.5 5.5C2.46289 5.5 0 7.68652 0 10.3906C0 10.7275 0.280273 11 0.625 11H10.375C10.7197 11 11 10.7275 11 10.3906C11 7.68652 8.53711 5.5 5.5 5.5Z" fill="currentColor"/>
  </symbol>

  <!-- Star rating -->
  <symbol id="icon-star" viewBox="0 0 12 12">
    <path d="M6 0L7.34708 4.1459H11.7063L8.17963 6.7082L9.52671 10.8541L6 8.2918L2.47329 10.8541L3.82037 6.7082L0.293661 4.1459H4.65292L6 0Z" fill="currentColor"/>
  </symbol>

  <!-- Badge/Certificate -->
  <symbol id="icon-badge" viewBox="0 0 16 20">
    <path d="M8 0L10 4L14 4.5L11 8L12 12L8 10L4 12L5 8L2 4.5L6 4L8 0ZM6 14L8 13L10 14V20L8 18L6 20V14Z" fill="currentColor"/>
  </symbol>

  <!-- ==================== COMMUNICATION ICONS ==================== -->

  <!-- Chat bubble -->
  <symbol id="icon-chat" viewBox="0 0 16 16">
    <path d="M8 0C3.58172 0 0 3.13401 0 7C0 8.94015 0.86656 10.6838 2.2848 11.9605C2.1136 13.0355 1.52 14.2133 0.704 15.0293C0.512 15.2213 0.4576 15.512 0.5696 15.7613C0.6816 16.0107 0.928 16.168 1.2 16.168C3.312 16.168 5.0336 15.208 6.0032 14.3013C6.6528 14.432 7.3184 14.5 8 14.5C12.4183 14.5 16 11.366 16 7.5C16 3.63401 12.4183 0 8 0Z" fill="currentColor"/>
  </symbol>

  <!-- Message/Envelope -->
  <symbol id="icon-message" viewBox="0 0 16 12">
    <path d="M0 2C0 0.895 0.895 0 2 0H14C15.105 0 16 0.895 16 2V10C16 11.105 15.105 12 14 12H2C0.895 12 0 11.105 0 10V2ZM2.118 1.5L8 5.5L13.882 1.5H2.118ZM1.5 2.618V10C1.5 10.276 1.724 10.5 2 10.5H14C14.276 10.5 14.5 10.276 14.5 10V2.618L8.236 6.882C8.094 6.978 7.906 6.978 7.764 6.882L1.5 2.618Z" fill="currentColor"/>
  </symbol>

  <!-- ==================== STATUS ICONS ==================== -->

  <!-- Smiley/Available -->
  <symbol id="icon-smiley" viewBox="0 0 18 18">
    <path d="M9 0C4.02943 0 0 4.02943 0 9C0 13.9706 4.02943 18 9 18C13.9706 18 18 13.9706 18 9C18 4.02943 13.9706 0 9 0ZM5.4 7.2C5.4 6.53726 5.93726 6 6.6 6C7.26274 6 7.8 6.53726 7.8 7.2C7.8 7.86274 7.26274 8.4 6.6 8.4C5.93726 8.4 5.4 7.86274 5.4 7.2ZM12.6 12.6C11.5941 13.3941 10.3412 13.8 9 13.8C7.65882 13.8 6.40588 13.3941 5.4 12.6C5.04 12.3176 4.97647 11.7882 5.25882 11.4282C5.54118 11.0682 6.07059 11.0047 6.43059 11.2871C7.12941 11.8306 8.02353 12.15 9 12.15C9.97647 12.15 10.8706 11.8306 11.5694 11.2871C11.9294 11.0047 12.4588 11.0682 12.7412 11.4282C13.0235 11.7882 12.96 12.3176 12.6 12.6ZM11.4 8.4C10.7373 8.4 10.2 7.86274 10.2 7.2C10.2 6.53726 10.7373 6 11.4 6C12.0627 6 12.6 6.53726 12.6 7.2C12.6 7.86274 12.0627 8.4 11.4 8.4Z" fill="currentColor"/>
  </symbol>

  <!-- Check/Success -->
  <symbol id="icon-check" viewBox="0 0 12 12">
    <path d="M10.28 2.28L4.5 8.06L1.72 5.28C1.43 4.99 0.95 4.99 0.66 5.28C0.37 5.57 0.37 6.05 0.66 6.34L4 9.68C4.29 9.97 4.77 9.97 5.06 9.68L11.34 3.34C11.63 3.05 11.63 2.57 11.34 2.28C11.05 1.99 10.57 1.99 10.28 2.28Z" fill="currentColor"/>
  </symbol>

  <!-- Info circle -->
  <symbol id="icon-info" viewBox="0 0 12 12">
    <path d="M6 0C2.68629 0 0 2.68629 0 6C0 9.31371 2.68629 12 6 12C9.31371 12 12 9.31371 12 6C12 2.68629 9.31371 0 6 0ZM6 2.5C6.41421 2.5 6.75 2.83579 6.75 3.25C6.75 3.66421 6.41421 4 6 4C5.58579 4 5.25 3.66421 5.25 3.25C5.25 2.83579 5.58579 2.5 6 2.5ZM7 9H5V5H7V9Z" fill="currentColor"/>
  </symbol>

  <!-- ==================== FORMAT/TYPE ICONS ==================== -->

  <!-- Globe/Online -->
  <symbol id="icon-globe" viewBox="0 0 16 16">
    <path d="M8 0C3.58 0 0 3.58 0 8C0 12.42 3.58 16 8 16C12.42 16 16 12.42 16 8C16 3.58 12.42 0 8 0ZM13.53 5H11.25C10.93 3.56 10.43 2.25 9.77 1.19C11.36 1.8 12.65 3.22 13.53 5ZM8 2C8.83 3.02 9.53 4.37 9.89 6H6.11C6.47 4.37 7.17 3.02 8 2ZM2.26 10C2.1 9.36 2 8.69 2 8C2 7.31 2.1 6.64 2.26 6H4.89C4.84 6.65 4.8 7.32 4.8 8C4.8 8.68 4.84 9.35 4.89 10H2.26ZM2.47 11H4.75C5.07 12.44 5.57 13.75 6.23 14.81C4.64 14.2 3.35 12.78 2.47 11ZM4.75 5H2.47C3.35 3.22 4.64 1.8 6.23 1.19C5.57 2.25 5.07 3.56 4.75 5ZM8 14C7.17 12.98 6.47 11.63 6.11 10H9.89C9.53 11.63 8.83 12.98 8 14ZM10.2 8C10.2 7.32 10.16 6.65 10.11 6H13.74C13.9 6.64 14 7.31 14 8C14 8.69 13.9 9.36 13.74 10H10.11C10.16 9.35 10.2 8.68 10.2 8ZM9.77 14.81C10.43 13.75 10.93 12.44 11.25 11H13.53C12.65 12.78 11.36 14.2 9.77 14.81Z" fill="currentColor"/>
  </symbol>

  <!-- Video/Camera -->
  <symbol id="icon-video" viewBox="0 0 17 12">
    <path d="M10 0H2C0.9 0 0 0.9 0 2V10C0 11.1 0.9 12 2 12H10C11.1 12 12 11.1 12 10V7.5L17 12V0L12 4.5V2C12 0.9 11.1 0 10 0Z" fill="currentColor"/>
  </symbol>

  <!-- Hybrid/Split -->
  <symbol id="icon-hybrid" viewBox="0 0 20 13">
    <path d="M2 0C0.9 0 0 0.9 0 2V11C0 12.1 0.9 13 2 13H8V0H2ZM10 0V13H18C19.1 13 20 12.1 20 11V2C20 0.9 19.1 0 18 0H10ZM4 4L6 6.5L4 9H5.5L7 6.5L5.5 4H4ZM14 4L15.5 6.5L14 9H15.5L17 6.5L15.5 4H14Z" fill="currentColor"/>
  </symbol>

  <!-- In-person/Venue -->
  <symbol id="icon-venue" viewBox="0 0 16 16">
    <path d="M8 0L0 4V6H16V4L8 0ZM2 7V13H4V7H2ZM6 7V13H8V7H6ZM10 7V13H12V7H10ZM0 14V16H16V14H0Z" fill="currentColor"/>
  </symbol>

  <!-- ==================== NAVIGATION ICONS ==================== -->

  <!-- Chevron Right -->
  <symbol id="icon-chevron-right" viewBox="0 0 24 24">
    <path d="M10 6L8.59 7.41 13.17 12l-4.58 4.59L10 18l6-6-6-6z" fill="currentColor"/>
  </symbol>

  <!-- Chevron Left -->
  <symbol id="icon-chevron-left" viewBox="0 0 24 24">
    <path d="M15.41 7.41L14 6l-6 6 6 6 1.41-1.41L10.83 12z" fill="currentColor"/>
  </symbol>

  <!-- Chevron Down -->
  <symbol id="icon-chevron-down" viewBox="0 0 24 24">
    <path d="M7.41 8.59L12 13.17l4.59-4.58L18 10l-6 6-6-6 1.41-1.41z" fill="currentColor"/>
  </symbol>

  <!-- Chevron Up -->
  <symbol id="icon-chevron-up" viewBox="0 0 24 24">
    <path d="M7.41 15.41L12 10.83l4.59 4.58L18 14l-6-6-6 6 1.41 1.41z" fill="currentColor"/>
  </symbol>

  <!-- Arrow Left -->
  <symbol id="icon-arrow-left" viewBox="0 0 16 16">
    <path d="M15 7H3.83l4.88-4.88c.39-.39.39-1.03 0-1.42-.39-.39-1.02-.39-1.41 0l-6.59 6.59c-.39.39-.39 1.02 0 1.41l6.59 6.59c.39.39 1.02.39 1.41 0 .39-.39.39-1.02 0-1.41L3.83 9H15c.55 0 1-.45 1-1s-.45-1-1-1z" fill="currentColor"/>
  </symbol>

  <!-- ==================== ACTION ICONS ==================== -->

  <!-- Share -->
  <symbol id="icon-share" viewBox="0 0 16 16">
    <path d="M13 0C11.3431 0 10 1.34315 10 3C10 3.12548 10.0077 3.24917 10.0227 3.37061L5.08261 5.84066C4.54305 5.32015 3.80857 5 3 5C1.34315 5 0 6.34315 0 8C0 9.65685 1.34315 11 3 11C3.80857 11 4.54305 10.6798 5.08261 10.1593L10.0227 12.6294C10.0077 12.7508 10 12.8745 10 13C10 14.6569 11.3431 16 13 16C14.6569 16 16 14.6569 16 13C16 11.3431 14.6569 10 13 10C12.1914 10 11.4569 10.3202 10.9174 10.8407L5.97733 8.37061C5.99229 8.24917 6 8.12548 6 8C6 7.87452 5.99229 7.75083 5.97733 7.62939L10.9174 5.15934C11.4569 5.67985 12.1914 6 13 6C14.6569 6 16 4.65685 16 3C16 1.34315 14.6569 0 13 0Z" fill="currentColor"/>
  </symbol>

  <!-- Heart/Like -->
  <symbol id="icon-heart" viewBox="0 0 16 14">
    <path d="M8 14L6.84 12.92C2.72 9.1 0 6.6 0 3.5C0 1 2 0 4 0C5.32 0 6.68 0.84 8 2.16C9.32 0.84 10.68 0 12 0C14 0 16 1 16 3.5C16 6.6 13.28 9.1 9.16 12.92L8 14Z" fill="currentColor"/>
  </symbol>

  <!-- Bookmark -->
  <symbol id="icon-bookmark" viewBox="0 0 12 16">
    <path d="M0 2C0 0.9 0.9 0 2 0H10C11.1 0 12 0.9 12 2V16L6 12L0 16V2Z" fill="currentColor"/>
  </symbol>

  <!-- Plus/Add -->
  <symbol id="icon-plus" viewBox="0 0 12 12">
    <path d="M11 5H7V1C7 0.45 6.55 0 6 0C5.45 0 5 0.45 5 1V5H1C0.45 5 0 5.45 0 6C0 6.55 0.45 7 1 7H5V11C5 11.55 5.45 12 6 12C6.55 12 7 11.55 7 11V7H11C11.55 7 12 6.55 12 6C12 5.45 11.55 5 11 5Z" fill="currentColor"/>
  </symbol>

  <!-- Close/X -->
  <symbol id="icon-close" viewBox="0 0 12 12">
    <path d="M11.41 1.41L10.59 0.59L6 5.17L1.41 0.59L0.59 1.41L5.17 6L0.59 10.59L1.41 11.41L6 6.83L10.59 11.41L11.41 10.59L6.83 6L11.41 1.41Z" fill="currentColor"/>
  </symbol>

  <!-- Edit/Pen -->
  <symbol id="icon-edit" viewBox="0 0 14 14">
    <path d="M0 11.08V14H2.92L11.46 5.46L8.54 2.54L0 11.08ZM13.61 3.31C13.88 3.04 13.88 2.61 13.61 2.34L11.66 0.39C11.39 0.12 10.96 0.12 10.69 0.39L9.25 1.83L12.17 4.75L13.61 3.31Z" fill="currentColor"/>
  </symbol>

  <!-- Delete/Trash -->
  <symbol id="icon-trash" viewBox="0 0 12 14">
    <path d="M1 12.5C1 13.33 1.67 14 2.5 14H9.5C10.33 14 11 13.33 11 12.5V3H1V12.5ZM12 1H9L8 0H4L3 1H0V2H12V1Z" fill="currentColor"/>
  </symbol>

  <!-- Search -->
  <symbol id="icon-search" viewBox="0 0 14 14">
    <path d="M9.5 0C6.46 0 4 2.46 4 5.5C4 6.74 4.4 7.88 5.09 8.79L0 13.88L1.12 15L6.21 9.91C7.12 10.6 8.26 11 9.5 11C12.54 11 15 8.54 15 5.5C15 2.46 12.54 0 9.5 0ZM9.5 9C7.57 9 6 7.43 6 5.5C6 3.57 7.57 2 9.5 2C11.43 2 13 3.57 13 5.5C13 7.43 11.43 9 9.5 9Z" fill="currentColor"/>
  </symbol>

  <!-- Filter -->
  <symbol id="icon-filter" viewBox="0 0 14 12">
    <path d="M5.5 12H8.5V10H5.5V12ZM0 0V2H14V0H0ZM2.5 7H11.5V5H2.5V7Z" fill="currentColor"/>
  </symbol>

  <!-- ==================== MISC ICONS ==================== -->

  <!-- Briefcase/Work -->
  <symbol id="icon-briefcase" viewBox="0 0 16 14">
    <path d="M14 3H11V1C11 0.45 10.55 0 10 0H6C5.45 0 5 0.45 5 1V3H2C0.9 3 0 3.9 0 5V12C0 13.1 0.9 14 2 14H14C15.1 14 16 13.1 16 12V5C16 3.9 15.1 3 14 3ZM6 1H10V3H6V1Z" fill="currentColor"/>
  </symbol>

  <!-- Link/Chain -->
  <symbol id="icon-link" viewBox="0 0 16 8">
    <path d="M1.9 4C1.9 2.84 2.84 1.9 4 1.9H7V0H4C1.79 0 0 1.79 0 4C0 6.21 1.79 8 4 8H7V6.1H4C2.84 6.1 1.9 5.16 1.9 4ZM5 5H11V3H5V5ZM12 0H9V1.9H12C13.16 1.9 14.1 2.84 14.1 4C14.1 5.16 13.16 6.1 12 6.1H9V8H12C14.21 8 16 6.21 16 4C16 1.79 14.21 0 12 0Z" fill="currentColor"/>
  </symbol>

  <!-- External link -->
  <symbol id="icon-external" viewBox="0 0 12 12">
    <path d="M10.667 10.667H1.333V1.333H6V0H1.333C0.6 0 0 0.6 0 1.333V10.667C0 11.4 0.6 12 1.333 12H10.667C11.4 12 12 11.4 12 10.667V6H10.667V10.667ZM7.333 0V1.333H9.727L3.173 7.887L4.113 8.827L10.667 2.273V4.667H12V0H7.333Z" fill="currentColor"/>
  </symbol>

  <!-- Clock/Time -->
  <symbol id="icon-clock" viewBox="0 0 14 14">
    <path d="M7 0C3.13 0 0 3.13 0 7C0 10.87 3.13 14 7 14C10.87 14 14 10.87 14 7C14 3.13 10.87 0 7 0ZM7 12.6C3.91 12.6 1.4 10.09 1.4 7C1.4 3.91 3.91 1.4 7 1.4C10.09 1.4 12.6 3.91 12.6 7C12.6 10.09 10.09 12.6 7 12.6ZM7.35 3.5H6.3V7.7L9.94 9.87L10.5 8.96L7.35 7.11V3.5Z" fill="currentColor"/>
  </symbol>

  <!-- Bell/Notification -->
  <symbol id="icon-bell" viewBox="0 0 14 16">
    <path d="M7 16C7.83 16 8.5 15.33 8.5 14.5H5.5C5.5 15.33 6.17 16 7 16ZM13 11V6.5C13 4.08 11.13 2.08 8.75 1.59V1C8.75 0.31 8.19 0 7.5 0H6.5C5.81 0 5.25 0.31 5.25 1V1.59C2.87 2.08 1 4.08 1 6.5V11L0 12V13H14V12L13 11Z" fill="currentColor"/>
  </symbol>

  <!-- Copy/Duplicate -->
  <symbol id="icon-copy" viewBox="0 0 14 16">
    <path d="M10 0H2C0.9 0 0 0.9 0 2V12H2V2H10V0ZM12 4H6C4.9 4 4 4.9 4 6V14C4 15.1 4.9 16 6 16H12C13.1 16 14 15.1 14 14V6C14 4.9 13.1 4 12 4ZM12 14H6V6H12V14Z" fill="currentColor"/>
  </symbol>

  <!-- Download -->
  <symbol id="icon-download" viewBox="0 0 14 14">
    <path d="M14 10V12C14 13.1 13.1 14 12 14H2C0.9 14 0 13.1 0 12V10H2V12H12V10H14ZM7 11L11 7H8V0H6V7H3L7 11Z" fill="currentColor"/>
  </symbol>

  <!-- Upload -->
  <symbol id="icon-upload" viewBox="0 0 14 14">
    <path d="M14 10V12C14 13.1 13.1 14 12 14H2C0.9 14 0 13.1 0 12V10H2V12H12V10H14ZM3 4L7 0L11 4H8V11H6V4H3Z" fill="currentColor"/>
  </symbol>

  <!-- Eye/View -->
  <symbol id="icon-eye" viewBox="0 0 16 10">
    <path d="M8 0C4.36 0 1.26 2.28 0 5.5C1.26 8.72 4.36 11 8 11C11.64 11 14.74 8.72 16 5.5C14.74 2.28 11.64 0 8 0ZM8 9.17C5.97 9.17 4.33 7.53 4.33 5.5C4.33 3.47 5.97 1.83 8 1.83C10.03 1.83 11.67 3.47 11.67 5.5C11.67 7.53 10.03 9.17 8 9.17ZM8 3.3C6.78 3.3 5.8 4.28 5.8 5.5C5.8 6.72 6.78 7.7 8 7.7C9.22 7.7 10.2 6.72 10.2 5.5C10.2 4.28 9.22 3.3 8 3.3Z" fill="currentColor"/>
  </symbol>

  <!-- Fire/Trending -->
  <symbol id="icon-fire" viewBox="0 0 12 16">
    <path d="M6.76 0.01C6.66 -0.03 6.55 0.01 6.5 0.1C6.37 0.29 4.02 3.87 4.02 6.3C4.02 7 4.32 7.69 4.93 8.14C4.27 7.14 4.19 5.86 4.56 4.8C4.59 4.7 4.53 4.59 4.44 4.54C4.34 4.49 4.23 4.51 4.16 4.59C2.37 6.7 1 9.81 1 12C1 14.21 2.79 16 5 16H7C9.21 16 11 14.21 11 12C11 5.84 7.06 0.22 6.76 0.01Z" fill="currentColor"/>
  </symbol>

  <!-- Lightning/Bolt -->
  <symbol id="icon-bolt" viewBox="0 0 10 16">
    <path d="M10 6H6.21L8 0H2L0 10H3.79L2 16L10 6Z" fill="currentColor"/>
  </symbol>

  <!-- Shield/Security -->
  <symbol id="icon-shield" viewBox="0 0 14 16">
    <path d="M7 0L0 3V7C0 11.55 2.99 15.74 7 16C11.01 15.74 14 11.55 14 7V3L7 0ZM7 7.99H12C11.47 11.11 9.54 13.79 7 14.47V8H2V4.3L7 2.19V7.99Z" fill="currentColor"/>
  </symbol>

  <!-- Verified/Check Badge -->
  <symbol id="icon-verified" viewBox="0 0 16 16">
    <path d="M8 0L6.4 1.6H4L3.2 4L0.8 4.8L0 7.2V9.6L1.6 11.2V13.6L4 14.4L5.6 16H8L10.4 14.4L12.8 13.6V11.2L14.4 9.6V7.2L13.6 4.8L12 4L11.2 1.6H8.8L8 0ZM11.2 5.6L7.2 10.4L4.8 8L6 6.8L7.2 8L10 4.8L11.2 5.6Z" fill="currentColor"/>
  </symbol>

  <!-- Directions/Turn -->
  <symbol id="icon-directions" viewBox="0 0 14 14">
    <path d="M12.6 5.6L8.4 1.4C7.8 0.8 6.8 0.8 6.2 1.4L2 5.6C1.4 6.2 1.4 7.2 2 7.8L6.2 12C6.8 12.6 7.8 12.6 8.4 12L12.6 7.8C13.2 7.2 13.2 6.2 12.6 5.6ZM7 9.8V7.4H5V5.4H7V3.4L9.6 6.6L7 9.8Z" fill="currentColor"/>
  </symbol>

  <!-- Menu/Hamburger -->
  <symbol id="icon-menu" viewBox="0 0 14 10">
    <path d="M0 0H14V2H0V0ZM0 4H14V6H0V4ZM0 8H14V10H0V8Z" fill="currentColor"/>
  </symbol>

  <!-- More/Ellipsis Vertical -->
  <symbol id="icon-more" viewBox="0 0 4 14">
    <path d="M2 0C0.9 0 0 0.9 0 2C0 3.1 0.9 4 2 4C3.1 4 4 3.1 4 2C4 0.9 3.1 0 2 0ZM2 10C0.9 10 0 10.9 0 12C0 13.1 0.9 14 2 14C3.1 14 4 13.1 4 12C4 10.9 3.1 10 2 10ZM2 5C0.9 5 0 5.9 0 7C0 8.1 0.9 9 2 9C3.1 9 4 8.1 4 7C4 5.9 3.1 5 2 5Z" fill="currentColor"/>
  </symbol>

</svg>
